<svg width="46" height="44" viewBox="0 0 46 44" fill="none" xmlns="http://www.w3.org/2000/svg">
<path d="M3.12476 37.4593C6.00666 41.7903 13.0052 44.7901 22.5679 43.8141C32.1306 42.8381 44.2476 37.775 45.6231 26.6117C46.9986 15.4485 44.9681 6.72527 33.506 2.39417C22.0439 -1.93693 10.9038 -0.61428 4.15755 8.16991C-2.58872 16.9541 0.242871 33.1282 3.12476 37.4593Z" fill="white"/>
<path d="M25.7692 12.999C25.3869 12.999 25.0769 13.309 25.0769 13.6913C25.0769 14.0737 25.3869 14.3836 25.7692 14.3836H26.6923C28.859 14.3836 30.6154 16.1401 30.6154 18.3067V19.2298C30.6154 19.6121 30.9253 19.9221 31.3077 19.9221C31.69 19.9221 32 19.6121 32 19.2298V18.3067C32 15.3754 29.6237 12.999 26.6923 12.999H25.7692Z" fill="#212020"/>
<path d="M19.3077 12.999C16.3763 12.999 14 15.3754 14 18.3067V19.2298C14 19.6121 14.31 19.9221 14.6923 19.9221C15.0747 19.9221 15.3846 19.6121 15.3846 19.2298V18.3067C15.3846 16.1401 17.141 14.3836 19.3077 14.3836H20.2308C20.6131 14.3836 20.9231 14.0737 20.9231 13.6913C20.9231 13.309 20.6131 12.999 20.2308 12.999H19.3077Z" fill="#212020"/>
<path d="M23 17.6144C20.5784 17.6144 18.6154 19.5775 18.6154 21.999C18.6154 24.4206 20.5784 26.3836 23 26.3836C25.4216 26.3836 27.3846 24.4206 27.3846 21.999C27.3846 19.5775 25.4216 17.6144 23 17.6144Z" fill="#212020"/>
<path d="M15.3846 24.7683C15.3846 24.3859 15.0747 24.0759 14.6923 24.0759C14.31 24.0759 14 24.3859 14 24.7683V25.6913C14 28.6227 16.3763 30.999 19.3077 30.999H20.2308C20.6131 30.999 20.9231 30.6891 20.9231 30.3067C20.9231 29.9244 20.6131 29.6144 20.2308 29.6144H19.3077C17.141 29.6144 15.3846 27.858 15.3846 25.6913V24.7683Z" fill="#212020"/>
<path d="M32 24.7683C32 24.3859 31.69 24.0759 31.3077 24.0759C30.9253 24.0759 30.6154 24.3859 30.6154 24.7683V25.6913C30.6154 27.858 28.859 29.6144 26.6923 29.6144H25.7692C25.3869 29.6144 25.0769 29.9244 25.0769 30.3067C25.0769 30.6891 25.3869 30.999 25.7692 30.999H26.6923C29.6237 30.999 32 28.6227 32 25.6913V24.7683Z" fill="#212020"/>
<path d="M25.7692 12.999C25.3869 12.999 25.0769 13.309 25.0769 13.6913C25.0769 14.0737 25.3869 14.3836 25.7692 14.3836H26.6923C28.859 14.3836 30.6154 16.1401 30.6154 18.3067V19.2298C30.6154 19.6121 30.9253 19.9221 31.3077 19.9221C31.69 19.9221 32 19.6121 32 19.2298V18.3067C32 15.3754 29.6237 12.999 26.6923 12.999H25.7692Z" stroke="#212020" stroke-width="0.3" stroke-linecap="round"/>
<path d="M19.3077 12.999C16.3763 12.999 14 15.3754 14 18.3067V19.2298C14 19.6121 14.31 19.9221 14.6923 19.9221C15.0747 19.9221 15.3846 19.6121 15.3846 19.2298V18.3067C15.3846 16.1401 17.141 14.3836 19.3077 14.3836H20.2308C20.6131 14.3836 20.9231 14.0737 20.9231 13.6913C20.9231 13.309 20.6131 12.999 20.2308 12.999H19.3077Z" stroke="#212020" stroke-width="0.3" stroke-linecap="round"/>
<path d="M23 17.6144C20.5784 17.6144 18.6154 19.5775 18.6154 21.999C18.6154 24.4206 20.5784 26.3836 23 26.3836C25.4216 26.3836 27.3846 24.4206 27.3846 21.999C27.3846 19.5775 25.4216 17.6144 23 17.6144Z" stroke="#212020" stroke-width="0.3" stroke-linecap="round"/>
<path d="M15.3846 24.7683C15.3846 24.3859 15.0747 24.0759 14.6923 24.0759C14.31 24.0759 14 24.3859 14 24.7683V25.6913C14 28.6227 16.3763 30.999 19.3077 30.999H20.2308C20.6131 30.999 20.9231 30.6891 20.9231 30.3067C20.9231 29.9244 20.6131 29.6144 20.2308 29.6144H19.3077C17.141 29.6144 15.3846 27.858 15.3846 25.6913V24.7683Z" stroke="#212020" stroke-width="0.3" stroke-linecap="round"/>
<path d="M32 24.7683C32 24.3859 31.69 24.0759 31.3077 24.0759C30.9253 24.0759 30.6154 24.3859 30.6154 24.7683V25.6913C30.6154 27.858 28.859 29.6144 26.6923 29.6144H25.7692C25.3869 29.6144 25.0769 29.9244 25.0769 30.3067C25.0769 30.6891 25.3869 30.999 25.7692 30.999H26.6923C29.6237 30.999 32 28.6227 32 25.6913V24.7683Z" stroke="#212020" stroke-width="0.3" stroke-linecap="round"/>
</svg>
