<svg width="608" height="581" viewBox="0 0 608 581" fill="none" xmlns="http://www.w3.org/2000/svg">
<g opacity="0.2">
<path opacity="0.1" d="M-716.392 311.077C-835.229 -20.1146 -492.065 -80.6095 -234.842 2.70583C-85.2964 44.2526 -2.00258 -126.297 183.264 -74.7066C368.531 -23.116 167.807 198.525 451.714 283.107C735.62 367.688 636.447 849.369 395.662 872.985C154.878 896.601 227.131 970.917 -0.384174 1170.54C-227.899 1370.16 -653.239 1148.74 -572.266 874.937C-491.293 601.137 -587.748 669.596 -716.392 311.077Z" stroke="url(#paint0_linear_1039_95997)"/>
<path opacity="0.15" d="M-667.54 329.804C-776.774 25.8669 -460.577 -34.1987 -222.899 43.2808C-83.4323 82.6424 -4.36599 -73.9073 166.392 -26.3549C340.961 22.2617 156.371 225.067 417.335 304.331C678.921 384.11 590.934 830.085 364.56 852.118C139.514 874.051 207.265 944.459 -4.07367 1127.61C-215.412 1310.75 -607.477 1107.6 -534.313 852.755C-460.869 601.618 -548.593 660.486 -667.54 329.804Z" stroke="url(#paint1_linear_1039_95997)"/>
<path opacity="0.2" d="M-618.649 348.534C-718.28 71.8503 -429.05 12.214 -210.916 83.8577C-81.5288 121.034 -6.69015 -21.5156 149.559 21.9986C313.429 67.6413 144.974 251.61 382.996 325.557C622.261 400.533 545.461 810.803 333.497 831.253C124.189 851.503 187.437 918.004 -7.72381 1084.67C-202.885 1251.34 -561.677 1066.46 -496.321 830.576C-430.406 602.102 -509.398 651.378 -618.649 348.534Z" stroke="url(#paint2_linear_1039_95997)"/>
<path opacity="0.25" d="M-569.789 367.266C-659.816 117.836 -397.554 58.6289 -198.964 124.437C-79.6562 159.428 -9.04522 30.8783 132.696 70.3543C285.867 113.023 133.546 278.155 348.625 346.786C565.57 416.959 499.957 791.523 302.404 810.39C108.834 828.957 167.579 891.551 -11.405 1041.74C-190.389 1191.94 -515.907 1025.32 -458.36 808.398C-399.974 602.587 -470.235 642.272 -569.789 367.266Z" stroke="url(#paint3_linear_1039_95997)"/>
<path opacity="0.3" d="M-520.944 385.999C-601.367 163.822 -366.072 105.044 -187.027 165.016C-77.7986 197.822 -11.4152 83.2728 115.817 118.711C258.29 158.406 122.103 304.701 314.24 368.014C508.865 433.385 454.438 772.244 271.295 789.528C93.4639 806.412 147.706 865.098 -15.1011 998.815C-177.908 1132.53 -470.152 984.187 -420.413 786.221C-369.557 603.073 -431.086 633.167 -520.944 385.999Z" stroke="url(#paint4_linear_1039_95997)"/>
<path opacity="0.5" d="M-471.982 405.861C-542.802 210.938 -334.474 152.589 -174.973 206.725C-75.8242 237.346 -13.6683 136.797 99.0551 168.196C230.829 204.917 110.777 332.377 279.972 390.373C452.276 450.941 409.035 754.094 240.303 769.795C78.2104 784.996 127.95 839.775 -18.6803 957.015C-165.311 1074.26 -424.281 944.181 -382.35 765.173C-339.023 604.689 -391.821 625.191 -471.982 405.861Z" stroke="url(#paint5_linear_1039_95997)"/>
<path opacity="0.4" d="M-422.919 427.059C-484.135 259.389 -302.774 201.47 -162.818 249.77C-73.7483 278.206 -15.8201 191.656 82.3947 219.018C203.47 252.765 99.5519 361.388 245.805 414.067C395.789 469.833 363.734 737.281 209.413 751.399C63.0584 764.916 108.295 815.788 -22.1581 916.552C-152.611 1017.32 -378.308 905.511 -344.186 745.462C-308.388 607.641 -352.454 618.551 -422.919 427.059Z" stroke="url(#paint6_linear_1039_95997)"/>
<path opacity="0.5" d="M-373.864 448.331C-425.477 307.915 -271.083 250.425 -150.672 292.889C-71.6813 319.14 -17.9806 246.59 65.7254 269.913C176.102 300.687 88.3182 390.474 211.629 437.835C339.293 488.798 318.425 720.541 178.514 733.076C47.8975 744.91 88.6316 791.875 -25.6448 876.162C-139.921 960.449 -332.344 866.915 -306.03 725.824C-277.761 610.666 -313.096 611.985 -373.864 448.331Z" stroke="url(#paint7_linear_1039_95997)"/>
<path opacity="0.5" d="M-324.8 469.711C-366.809 356.548 -239.383 299.487 -138.516 336.116C-69.6041 360.181 -20.1311 301.632 49.0663 320.917C148.745 348.716 77.0948 419.667 177.464 461.711C282.807 507.871 273.125 703.909 147.624 714.86C32.7468 725.011 68.9781 768.069 -29.1213 835.88C-127.221 903.691 -286.37 828.426 -267.864 706.294C-247.124 613.799 -273.729 605.526 -324.8 469.711Z" stroke="url(#paint8_linear_1039_95997)"/>
<path opacity="0.55" d="M-275.713 491.247C-308.118 405.337 -207.659 348.706 -126.336 379.499C-67.5041 401.379 -22.2586 356.829 32.43 372.076C121.41 396.902 65.8943 449.016 143.321 485.743C226.344 527.101 227.848 687.433 116.758 696.801C17.619 705.269 49.3475 744.42 -32.5749 795.754C-114.497 847.088 -240.373 790.094 -229.676 686.92C-216.465 617.089 -234.338 599.224 -275.713 491.247Z" stroke="url(#paint9_linear_1039_95997)"/>
<path opacity="0.5" d="M-226.592 513.02C-249.394 454.364 -175.902 398.162 -114.124 423.119C-65.3712 442.814 -24.3533 412.265 15.8266 423.474C94.1078 445.325 54.7266 478.603 109.211 510.013C169.914 546.568 182.604 671.195 85.9248 678.98C2.52398 685.765 29.7497 721.009 -35.9957 755.866C-101.741 790.724 -194.343 752 -191.454 667.785C-185.772 620.616 -194.914 593.16 -226.592 513.02Z" stroke="url(#paint10_linear_1039_95997)"/>
<path opacity="0.65" d="M-177.441 535.165C-190.639 503.763 -144.114 447.99 -101.881 467.111C-63.2073 484.621 -26.4171 468.071 -0.745845 475.242C66.8368 494.119 43.5898 508.561 75.132 534.654C113.515 566.406 137.391 655.328 55.1224 661.53C-12.5401 666.631 10.1829 697.968 -39.3856 716.349C-88.954 734.73 -148.282 714.276 -153.202 649.02C-155.049 624.514 -155.459 587.467 -177.441 535.165Z" stroke="url(#paint11_linear_1039_95997)"/>
<path opacity="0.7" d="M-140.305 548.805C-150.11 525.475 -115.545 484.038 -84.1675 498.244C-55.4347 511.253 -28.1014 498.958 -9.02891 504.285C41.1816 518.31 23.9103 529.04 47.3445 548.426C75.8609 572.016 93.6003 638.08 32.4784 642.688C-17.7914 646.478 -0.90939 669.76 -37.7363 683.416C-74.5632 697.072 -118.641 681.876 -122.296 633.393C-123.669 615.187 -123.973 587.663 -140.305 548.805Z" stroke="url(#paint12_linear_1039_95997)"/>
<path opacity="0.75" d="M-107.928 560.693C-114.777 544.398 -90.6343 515.455 -68.7181 525.378C-48.649 534.464 -29.5573 525.876 -16.2357 529.597C18.8351 539.393 6.7715 546.888 23.1397 560.428C43.0577 576.906 55.4482 623.05 12.7561 626.268C-22.3561 628.916 -10.5644 645.177 -36.2871 654.716C-62.0098 664.254 -92.7968 653.64 -95.3498 619.776C-96.3086 607.059 -96.5214 587.834 -107.928 560.693Z" stroke="url(#paint13_linear_1039_95997)"/>
<path opacity="0.8" d="M-74.2003 573.083C-77.9676 564.12 -64.6876 548.2 -52.6326 553.658C-41.5936 558.656 -31.0922 553.932 -23.7646 555.979C-4.47387 561.367 -11.1094 565.49 -2.10608 572.938C8.84982 582.001 15.6652 607.383 -7.8176 609.153C-27.1311 610.609 -20.6451 619.554 -34.7939 624.8C-48.9427 630.047 -65.8771 624.209 -67.2814 605.582C-67.8088 598.587 -67.9258 588.012 -74.2003 573.083Z" stroke="url(#paint14_linear_1039_95997)"/>
</g>
<defs>
<linearGradient id="paint0_linear_1039_95997" x1="80.3956" y1="345.22" x2="-597.792" y2="1362.5" gradientUnits="userSpaceOnUse">
<stop/>
<stop offset="1" stop-opacity="0"/>
</linearGradient>
<linearGradient id="paint1_linear_1039_95997" x1="-269.037" y1="1178.48" x2="1115.28" y2="654.028" gradientUnits="userSpaceOnUse">
<stop/>
<stop offset="1" stop-opacity="0"/>
</linearGradient>
<linearGradient id="paint2_linear_1039_95997" x1="-41.5981" y1="121.914" x2="-868.577" y2="575.234" gradientUnits="userSpaceOnUse">
<stop/>
<stop offset="1" stop-opacity="0"/>
</linearGradient>
<linearGradient id="paint3_linear_1039_95997" x1="-878.986" y1="678.111" x2="384.99" y2="1162.77" gradientUnits="userSpaceOnUse">
<stop/>
<stop offset="1" stop-opacity="0"/>
</linearGradient>
<linearGradient id="paint4_linear_1039_95997" x1="-180.131" y1="1625.09" x2="409.173" y2="-134.435" gradientUnits="userSpaceOnUse">
<stop/>
<stop offset="1" stop-opacity="0"/>
</linearGradient>
<linearGradient id="paint5_linear_1039_95997" x1="433.965" y1="212.891" x2="-140.079" y2="1222.37" gradientUnits="userSpaceOnUse">
<stop/>
<stop offset="1" stop-opacity="0"/>
</linearGradient>
<linearGradient id="paint6_linear_1039_95997" x1="-526.462" y1="379.72" x2="550.094" y2="171.399" gradientUnits="userSpaceOnUse">
<stop/>
<stop offset="1" stop-opacity="0"/>
</linearGradient>
<linearGradient id="paint7_linear_1039_95997" x1="175.508" y1="640.893" x2="-364.769" y2="897.608" gradientUnits="userSpaceOnUse">
<stop/>
<stop offset="1" stop-opacity="0"/>
</linearGradient>
<linearGradient id="paint8_linear_1039_95997" x1="-116.031" y1="518.902" x2="311.887" y2="429.107" gradientUnits="userSpaceOnUse">
<stop/>
<stop offset="1" stop-opacity="0"/>
</linearGradient>
<linearGradient id="paint9_linear_1039_95997" x1="-76.747" y1="826.981" x2="145.095" y2="342.912" gradientUnits="userSpaceOnUse">
<stop/>
<stop offset="1" stop-opacity="0"/>
</linearGradient>
<linearGradient id="paint10_linear_1039_95997" x1="20.4389" y1="388.64" x2="-143.857" y2="846.253" gradientUnits="userSpaceOnUse">
<stop/>
<stop offset="1" stop-opacity="0"/>
</linearGradient>
<linearGradient id="paint11_linear_1039_95997" x1="-12.3493" y1="531.288" x2="205.07" y2="708.896" gradientUnits="userSpaceOnUse">
<stop/>
<stop offset="1" stop-opacity="0"/>
</linearGradient>
<linearGradient id="paint12_linear_1039_95997" x1="-271.104" y1="310.069" x2="92.1932" y2="696.308" gradientUnits="userSpaceOnUse">
<stop/>
<stop offset="1" stop-opacity="0"/>
</linearGradient>
<linearGradient id="paint13_linear_1039_95997" x1="-32.8315" y1="535.385" x2="-125.223" y2="678.755" gradientUnits="userSpaceOnUse">
<stop/>
<stop offset="1" stop-opacity="0"/>
</linearGradient>
<linearGradient id="paint14_linear_1039_95997" x1="-70.9742" y1="566.335" x2="3.14086" y2="603.582" gradientUnits="userSpaceOnUse">
<stop/>
<stop offset="1" stop-color="#B3B2B0" stop-opacity="0"/>
</linearGradient>
</defs>
</svg>
