<svg width="19" height="19" viewBox="0 0 19 19" fill="none" xmlns="http://www.w3.org/2000/svg">
<g clip-path="url(#clip0_1065_8995)">
<circle cx="9.00391" cy="9.99707" r="8" fill="#212020"/>
<path d="M9.00391 0.99707C7.22388 0.99707 5.48382 1.52491 4.00378 2.51384C2.52374 3.50278 1.37018 4.90839 0.688995 6.55292C0.00780582 8.19746 -0.170424 10.0071 0.176843 11.7529C0.52411 13.4987 1.38128 15.1024 2.63995 16.361C3.89862 17.6197 5.50227 18.4769 7.2481 18.8241C8.99393 19.1714 10.8035 18.9932 12.4481 18.312C14.0926 17.6308 15.4982 16.4772 16.4871 14.9972C17.4761 13.5172 18.0039 11.7771 18.0039 9.99707C18.0013 7.61092 17.0523 5.32323 15.365 3.63596C13.6778 1.94869 11.3901 0.999651 9.00391 0.99707V0.99707ZM9.00391 17.4971C7.52055 17.4971 6.0705 17.0572 4.83713 16.2331C3.60377 15.409 2.64247 14.2376 2.07481 12.8672C1.50716 11.4968 1.35863 9.98875 1.64802 8.53389C1.93741 7.07904 2.65172 5.74266 3.70061 4.69377C4.7495 3.64488 6.08588 2.93057 7.54073 2.64118C8.99559 2.35179 10.5036 2.50032 11.874 3.06797C13.2445 3.63563 14.4158 4.59693 15.2399 5.83029C16.064 7.06366 16.5039 8.51371 16.5039 9.99707C16.5017 11.9855 15.7109 13.8919 14.3048 15.298C12.8988 16.704 10.9924 17.4949 9.00391 17.4971Z" fill="#212020"/>
<path d="M12.0035 6.99693C11.8629 6.85633 11.6721 6.77734 11.4733 6.77734C11.2744 6.77734 11.0836 6.85633 10.943 6.99693L9.0035 8.93643L7.064 6.99693C6.92255 6.86032 6.7331 6.78472 6.53645 6.78643C6.3398 6.78814 6.15169 6.86701 6.01264 7.00607C5.87358 7.14513 5.79471 7.33324 5.793 7.52988C5.79129 7.72653 5.86688 7.91598 6.0035 8.05743L7.943 9.99693L6.0035 11.9364C5.86688 12.0779 5.79129 12.2673 5.793 12.464C5.79471 12.6606 5.87358 12.8487 6.01264 12.9878C6.15169 13.1269 6.3398 13.2057 6.53645 13.2074C6.7331 13.2091 6.92255 13.1336 7.064 12.9969L9.0035 11.0574L10.943 12.9969C11.0845 13.1336 11.2739 13.2091 11.4706 13.2074C11.6672 13.2057 11.8553 13.1269 11.9944 12.9878C12.1334 12.8487 12.2123 12.6606 12.214 12.464C12.2157 12.2673 12.1401 12.0779 12.0035 11.9364L10.064 9.99693L12.0035 8.05743C12.1441 7.91679 12.2231 7.72606 12.2231 7.52718C12.2231 7.32831 12.1441 7.13758 12.0035 6.99693Z" fill="white"/>
</g>
<defs>
<clipPath id="clip0_1065_8995">
<rect width="18" height="18" fill="white" transform="translate(0.00390625 0.99707)"/>
</clipPath>
</defs>
</svg>
