<svg width="1440" height="800" viewBox="0 0 1440 800" fill="none" xmlns="http://www.w3.org/2000/svg">
<g opacity="0.2">
<path opacity="0.1" d="M1166.5 -176.848C1584.08 207.381 1139.1 550.573 709.282 624.011C464.551 676.551 473.167 982.526 169.888 1047.45C-133.391 1112.37 -12.4714 645.535 -481.354 737.129C-950.236 828.723 -1168.97 66.3782 -842.646 -147.524C-516.326 -361.427 -675.154 -413.533 -499.486 -868.954C-323.817 -1324.38 449.511 -1326.3 538.698 -874.553C627.886 -422.808 714.46 -592.782 1166.5 -176.848Z" stroke="url(#paint0_linear_1095_9894)"/>
<path opacity="0.15" d="M1082.69 -167.051C1466.16 185.428 1059.38 507.829 661.854 574.98C433.157 623.101 437.337 905.912 157.807 965.745C-127.962 1026.91 -15.9986 599.06 -448.127 681.084C-881.528 762.838 -1089.52 59.8729 -782.605 -140.986C-477.51 -340.708 -626.982 -390.601 -462.096 -810.379C-297.21 -1230.16 414.912 -1233.28 501.069 -814.466C584.056 -400.732 665.333 -550.47 1082.69 -167.051Z" stroke="url(#paint1_linear_1095_9894)"/>
<path opacity="0.2" d="M998.834 -157.225C1348.19 163.506 979.615 465.116 614.377 525.98C401.715 569.681 401.46 829.328 145.679 884.074C-122.581 941.481 -19.5735 552.614 -414.947 625.068C-812.868 696.983 -1010.13 53.3969 -722.613 -134.418C-438.743 -319.959 -578.859 -367.639 -424.755 -751.775C-270.651 -1135.91 380.264 -1140.24 463.392 -754.35C540.177 -378.627 616.157 -508.129 998.834 -157.225Z" stroke="url(#paint2_linear_1095_9894)"/>
<path opacity="0.25" d="M915.022 -147.432C1230.27 141.549 899.896 422.368 566.946 476.946C370.319 516.227 365.627 752.71 133.596 802.369C-117.155 856.02 -23.103 506.135 -381.723 569.019C-744.162 631.094 -930.687 46.888 -662.575 -127.882C-399.929 -299.243 -530.689 -344.711 -387.368 -693.203C-244.047 -1041.7 345.663 -1047.23 425.76 -694.267C496.344 -356.555 567.027 -465.821 915.022 -147.432Z" stroke="url(#paint3_linear_1095_9894)"/>
<path opacity="0.3" d="M831.215 -137.641C1112.35 119.59 820.182 379.618 519.521 427.909C338.928 462.77 329.801 676.089 121.518 720.661C-111.723 770.556 -26.6272 459.654 -348.492 512.967C-675.451 565.203 -851.241 40.3761 -602.532 -121.35C-361.111 -278.53 -482.514 -321.785 -349.976 -634.635C-217.437 -947.484 311.067 -954.223 388.134 -634.187C452.517 -334.486 517.903 -423.516 831.215 -137.641Z" stroke="url(#paint4_linear_1095_9894)"/>
<path opacity="0.35" d="M746.418 -129.386C993.442 96.0967 739.478 335.333 471.105 377.337C306.546 407.779 292.984 597.933 108.45 637.419C-107.282 683.557 -31.1414 411.637 -316.252 455.381C-607.73 497.776 -772.786 32.3294 -543.479 -116.353C-323.283 -259.352 -435.33 -300.394 -313.574 -577.601C-191.817 -854.807 275.48 -862.751 349.517 -575.642C407.699 -313.951 467.788 -382.746 746.418 -129.386Z" stroke="url(#paint5_linear_1095_9894)"/>
<path opacity="0.4" d="M660.461 -122.958C873.373 70.7755 657.614 289.221 421.529 324.938C273.005 350.96 255.007 517.95 94.2223 552.349C-104 594.73 -36.8155 361.793 -285.172 395.967C-541.169 428.522 -695.489 22.4549 -485.585 -113.183C-286.614 -242.002 -389.305 -280.832 -278.331 -522.395C-167.358 -763.958 238.734 -773.106 309.741 -518.925C361.722 -295.244 416.513 -343.803 660.461 -122.958Z" stroke="url(#paint6_linear_1095_9894)"/>
<path opacity="0.45" d="M574.462 -116.642C753.262 45.3417 575.708 242.996 371.912 272.426C239.422 294.028 216.988 437.855 79.9524 467.167C-100.76 505.792 -42.5318 311.836 -254.134 336.44C-474.65 359.156 -618.236 12.4682 -427.734 -110.126C-249.988 -224.764 -343.323 -261.381 -243.131 -467.301C-142.94 -673.222 201.945 -683.574 269.922 -462.319C315.702 -276.65 365.196 -304.973 574.462 -116.642Z" stroke="url(#paint7_linear_1095_9894)"/>
<path opacity="0.5" d="M488.369 -110.474C633.057 19.7609 493.707 196.624 322.2 219.768C205.745 236.95 178.875 357.612 65.5881 381.837C-97.6151 416.706 -48.3424 261.733 -223.191 276.766C-408.226 289.643 -541.076 2.33462 -369.977 -107.215C-213.456 -207.673 -297.434 -242.077 -208.025 -412.354C-118.617 -582.632 165.063 -594.188 230.009 -405.861C269.588 -258.202 313.785 -266.29 488.369 -110.474Z" stroke="url(#paint8_linear_1095_9894)"/>
<path opacity="0.55" d="M402.121 -104.509C512.697 -6.0233 411.552 150.049 272.333 166.906C171.912 179.668 140.607 277.166 51.069 296.304C-94.6247 327.416 -54.3079 211.426 -192.402 216.889C-341.956 219.926 -464.071 -8.00269 -312.375 -104.509C-177.079 -190.785 -251.701 -222.977 -173.075 -357.611C-94.4484 -492.246 128.025 -505.007 189.941 -349.607C223.319 -239.958 262.219 -227.81 402.121 -104.509Z" stroke="url(#paint9_linear_1095_9894)"/>
<path opacity="0.6" d="M315.667 -98.87C392.13 -32.1338 329.19 103.147 222.259 113.717C137.873 122.06 102.132 196.394 36.3433 210.445C-91.841 237.801 -60.48 160.792 -161.82 156.686C-275.893 149.883 -387.274 -18.6663 -254.98 -102.128C-140.908 -174.224 -206.174 -204.203 -138.33 -303.194C-70.4866 -402.186 90.781 -416.151 149.667 -293.678C176.843 -222.041 210.447 -189.656 315.667 -98.87Z" stroke="url(#paint10_linear_1095_9894)"/>
<path opacity="0.65" d="M228.876 -93.7289C271.228 -58.7421 246.493 55.7477 171.85 60.0312C103.499 63.9537 63.3218 115.124 21.282 124.088C-89.3928 147.687 -66.9877 109.661 -131.573 95.9848C-210.166 79.3424 -310.811 -29.8274 -197.92 -100.245C-105.073 -158.16 -160.983 -185.926 -103.922 -249.275C-46.8603 -312.624 53.2013 -327.793 109.057 -238.248C130.032 -204.621 158.338 -152.001 228.876 -93.7289Z" stroke="url(#paint11_linear_1095_9894)"/>
<path opacity="0.7" d="M165.613 -85.4248C197.078 -59.4313 178.701 25.6289 123.245 28.8113C72.4635 31.7255 42.6141 69.7426 11.3806 76.4025C-70.8453 93.9355 -54.1994 65.6839 -102.183 55.5231C-160.574 43.1586 -235.348 -37.9492 -151.476 -90.266C-82.495 -133.294 -124.033 -153.923 -81.6395 -200.988C-39.2458 -248.053 35.0951 -259.323 76.5931 -192.795C92.1768 -167.812 113.207 -128.718 165.613 -85.4248Z" stroke="url(#paint12_linear_1095_9894)"/>
<path opacity="0.75" d="M110.464 -78.1835C132.442 -60.0277 119.606 -0.615299 80.8718 1.60754C45.4019 3.64304 24.5529 30.197 2.73713 34.8488C-54.6956 47.0951 -43.0689 27.3621 -76.5844 20.265C-117.368 11.6287 -169.597 -45.023 -111.014 -81.565C-62.8326 -111.619 -91.846 -126.028 -62.2351 -158.901C-32.6241 -191.775 19.3011 -199.647 48.2864 -153.179C59.1712 -135.729 73.8601 -108.423 110.464 -78.1835Z" stroke="url(#paint13_linear_1095_9894)"/>
<path opacity="0.8" d="M53.0064 -70.644C65.0952 -60.6574 58.0348 -27.9775 36.7289 -26.7548C17.2186 -25.6352 5.75061 -11.0291 -6.2492 -8.47041C-37.8402 -1.73428 -31.4448 -12.5885 -49.8802 -16.4922C-72.3135 -21.2426 -101.042 -52.404 -68.8182 -72.504C-42.3159 -89.0352 -58.2748 -96.9608 -41.9872 -115.043C-25.6997 -133.125 2.86181 -137.455 18.8052 -111.895C24.7925 -102.297 32.8721 -87.277 53.0064 -70.644Z" stroke="url(#paint14_linear_1095_9894)"/>
</g>
<defs>
<linearGradient id="paint0_linear_1095_9894" x1="2.64473" y1="370.559" x2="210.353" y2="-1590.2" gradientUnits="userSpaceOnUse">
<stop/>
<stop offset="1" stop-opacity="0"/>
</linearGradient>
<linearGradient id="paint1_linear_1095_9894" x1="-121.629" y1="-1081.31" x2="-1706.88" y2="703.724" gradientUnits="userSpaceOnUse">
<stop/>
<stop offset="1" stop-opacity="0"/>
</linearGradient>
<linearGradient id="paint2_linear_1095_9894" x1="344.011" y1="598.302" x2="1186.26" y2="-668.099" gradientUnits="userSpaceOnUse">
<stop/>
<stop offset="1" stop-opacity="0"/>
</linearGradient>
<linearGradient id="paint3_linear_1095_9894" x1="1124.16" y1="-822.864" x2="-1044.22" y2="-569.503" gradientUnits="userSpaceOnUse">
<stop/>
<stop offset="1" stop-opacity="0"/>
</linearGradient>
<linearGradient id="paint4_linear_1095_9894" x1="-582.812" y1="-1652.83" x2="-108.164" y2="1301.81" gradientUnits="userSpaceOnUse">
<stop/>
<stop offset="1" stop-opacity="0"/>
</linearGradient>
<linearGradient id="paint5_linear_1095_9894" x1="-403.453" y1="824.159" x2="-338.692" y2="-1047.53" gradientUnits="userSpaceOnUse">
<stop/>
<stop offset="1" stop-opacity="0"/>
</linearGradient>
<linearGradient id="paint6_linear_1095_9894" x1="843.807" y1="-132.802" x2="-538.314" y2="970.328" gradientUnits="userSpaceOnUse">
<stop/>
<stop offset="1" stop-opacity="0"/>
</linearGradient>
<linearGradient id="paint7_linear_1095_9894" x1="-354.465" y1="19.32" x2="225.303" y2="-751.684" gradientUnits="userSpaceOnUse">
<stop/>
<stop offset="1" stop-opacity="0"/>
</linearGradient>
<linearGradient id="paint8_linear_1095_9894" x1="153.31" y1="-24.5412" x2="-390.835" y2="423.927" gradientUnits="userSpaceOnUse">
<stop/>
<stop offset="1" stop-opacity="0"/>
</linearGradient>
<linearGradient id="paint9_linear_1095_9894" x1="-133.334" y1="-435.274" x2="-88.0644" y2="422.269" gradientUnits="userSpaceOnUse">
<stop/>
<stop offset="1" stop-opacity="0"/>
</linearGradient>
<linearGradient id="paint10_linear_1095_9894" x1="55.8182" y1="263.661" x2="-51.8676" y2="-513.029" gradientUnits="userSpaceOnUse">
<stop/>
<stop offset="1" stop-opacity="0"/>
</linearGradient>
<linearGradient id="paint11_linear_1095_9894" x1="-4.07679" y1="35.337" x2="-447.579" y2="-55.7169" gradientUnits="userSpaceOnUse">
<stop/>
<stop offset="1" stop-opacity="0"/>
</linearGradient>
<linearGradient id="paint12_linear_1095_9894" x1="531.107" y1="157.77" x2="-276.906" y2="-122.187" gradientUnits="userSpaceOnUse">
<stop/>
<stop offset="1" stop-opacity="0"/>
</linearGradient>
<linearGradient id="paint13_linear_1095_9894" x1="22.1156" y1="14.1624" x2="46.8329" y2="-259.79" gradientUnits="userSpaceOnUse">
<stop/>
<stop offset="1" stop-opacity="0"/>
</linearGradient>
<linearGradient id="paint14_linear_1095_9894" x1="53.4467" y1="-58.5896" x2="-80.3055" y2="-56.346" gradientUnits="userSpaceOnUse">
<stop/>
<stop offset="1" stop-color="#B3B2B0" stop-opacity="0"/>
</linearGradient>
</defs>
</svg>
