<svg width="121" height="43" viewBox="0 0 121 43" fill="none" xmlns="http://www.w3.org/2000/svg">
<g clip-path="url(#clip0_1095_8958)">
<path d="M0 0.128906H29.5323V42.7894H0V0.128906ZM25.2604 4.42659H4.25261V38.4949H25.2608V4.42659H25.2604Z" fill="#909090"/>
<path d="M45.205 12.0625H43.744C41.8252 9.33443 39.9258 6.62423 38.026 3.55946H38.0115V12.0625H36.3984V0.203125H37.8594C39.7782 2.91332 41.6748 5.61172 43.5597 8.65536H43.5919V0.203125H45.205V12.0625Z" fill="#909090"/>
<path d="M49.0332 7.37162C49.5043 5.81097 49.9742 4.37272 50.3937 2.538H50.4304C50.9016 4.37272 51.3198 5.81097 51.7583 7.37162H49.0332ZM49.8072 0.203125L45.7422 12.0625H47.4867L48.5121 8.82817H52.0616L52.9833 12.0625H55.2377L51.4901 0.203125H49.8072Z" fill="#909090"/>
<path d="M57.1382 12.0625V1.79671H54.0469V0.203125H62.248V1.79671H59.1562V12.0625H57.1382Z" fill="#909090"/>
<path fill-rule="evenodd" clip-rule="evenodd" d="M64.9074 0.203125V12.0654H62.8906V0.203125H64.9074Z" fill="#909090"/>
<path d="M71.1228 10.5728C69.0221 10.5728 68.2835 8.23184 68.2835 5.96243C68.2835 3.77638 69.1225 1.69158 71.1228 1.69158C73.1254 1.69158 73.9616 3.77638 73.9616 5.96243C73.9616 8.23184 73.2231 10.5728 71.1228 10.5728ZM71.1228 12.2672C74.198 12.2672 76.1123 9.50337 76.1123 5.96243C76.1123 2.63863 73.9971 0 71.1228 0C68.248 0 66.1328 2.63863 66.1328 5.96243C66.1328 9.50378 68.0472 12.2672 71.1228 12.2672Z" fill="#909090"/>
<path d="M86.1535 12.0625H84.6881C82.7738 9.33443 80.8711 6.62423 78.9745 3.55946H78.9628V12.0625H77.3438V0.203125H78.8092C80.7235 2.91332 82.6261 5.61172 84.505 8.65536H84.5433V0.203125H86.1535V12.0625Z" fill="#909090"/>
<path d="M89.9874 7.37162C90.4573 5.81097 90.9268 4.37272 91.3463 2.538H91.3818C91.8517 4.37272 92.274 5.81097 92.7113 7.37162H89.9874ZM90.7614 0.203125L86.6875 12.0625H88.4365L89.4646 8.82817H93.0126L93.9342 12.0625H96.1854L92.4394 0.203125H90.7614Z" fill="#909090"/>
<path d="M96.7734 0.203125H98.7765V10.4722H102.756V12.0625H96.7734V0.203125Z" fill="#909090"/>
<path d="M43.9633 21.9853V26.8843C42.8863 27.3105 41.7609 27.6142 40.6174 27.6142C37.1566 27.6142 34.9688 24.904 34.9688 21.4135C34.9688 18.1731 37.1566 15.3438 40.6839 15.3438C41.7754 15.3438 42.8685 15.7516 43.5393 16.2583L42.8863 17.6668C42.3474 17.3273 41.5068 17.0386 40.7356 17.0386C38.582 17.0386 37.1211 18.7509 37.1211 21.4436C37.1211 24.2583 38.8019 25.9198 40.5363 25.9198C41.0712 25.9198 41.5245 25.8515 41.9456 25.6311V21.9857H43.9633V21.9853Z" fill="#909090"/>
<path d="M51.1753 17.1433H47.8117V20.3955H51.1059V21.9859H47.8117V25.8159H51.7807V27.4124H45.7969V15.5469H51.1753V17.1433Z" fill="#909090"/>
<path d="M57.3974 25.919C55.2983 25.919 54.557 23.5813 54.557 21.309C54.557 19.1258 55.3976 17.0382 57.3974 17.0382C59.4005 17.0382 60.2379 19.1258 60.2379 21.309C60.2383 23.5813 59.4965 25.919 57.3974 25.919ZM57.3974 27.6138C60.4742 27.6138 62.3886 24.85 62.3886 21.309C62.3886 17.9881 60.2722 15.3438 57.3974 15.3438C54.5231 15.3438 52.4062 17.9885 52.4062 21.309C52.4062 24.85 54.3206 27.6138 57.3974 27.6138Z" fill="#909090"/>
<path d="M72.0742 21.9853V26.8843C71.0017 27.3105 69.8731 27.6142 68.7328 27.6142C65.2676 27.6142 63.0781 24.904 63.0781 21.4135C63.0781 18.1731 65.2676 15.3438 68.7978 15.3438C69.8909 15.3438 70.984 15.7516 71.6515 16.2583L71.0017 17.6668C70.458 17.3273 69.619 17.0386 68.8449 17.0386C66.6942 17.0386 65.2288 18.7509 65.2288 21.4436C65.2288 24.2583 66.9129 25.9198 68.6441 25.9198C69.1818 25.9198 69.6367 25.8515 70.0562 25.6311V21.9857H72.0742V21.9853Z" fill="#909090"/>
<path d="M75.9367 17.1433H76.8289C78.0192 17.1433 78.69 17.8342 78.69 19.0581C78.69 20.6456 77.7356 21.3605 76.7756 21.4109C76.5748 21.4316 76.1049 21.4438 75.9367 21.4646V17.1433ZM81.0444 27.4124L78.6783 22.4982C79.9723 21.8013 80.7108 20.3955 80.7108 18.9719C80.7108 16.6667 79.3164 15.5469 77.0592 15.5469H73.9219V27.4124H75.9367V22.9362H76.8111H76.8406L78.7432 27.4124H81.0444Z" fill="#909090"/>
<path d="M84.3752 22.7186C84.8419 21.158 85.3178 19.7165 85.7369 17.8878H85.7696C86.2395 19.7165 86.6618 21.158 87.0991 22.7186H84.3752ZM85.1492 15.5469L81.0781 27.4124H82.8271L83.8524 24.1752H87.4004L88.322 27.4124H90.5792L86.8304 15.5469H85.1492Z" fill="#909090"/>
<path d="M93.2285 27.4124H91.2109V15.5469H94.3571C96.6083 15.5469 98.0059 16.6667 98.0059 18.9719C98.0059 20.9673 96.5433 22.9362 94.1353 22.9362H93.193V21.4646C93.2935 21.4438 93.8517 21.4316 94.0675 21.4109C95.0307 21.3601 95.9851 20.6456 95.9851 19.0581C95.9851 17.8342 95.3143 17.1433 94.1353 17.1433H93.2285V27.4124Z" fill="#909090"/>
<path d="M107.35 27.4124H105.332V21.7H101.145V27.4124H99.1484V15.5469H101.145V20.1097H105.332V15.5827H107.35V27.4124Z" fill="#909090"/>
<path fill-rule="evenodd" clip-rule="evenodd" d="M111.298 15.5469V27.4124H109.281V15.5469H111.298Z" fill="#909090"/>
<path d="M120.358 17.7018C119.868 17.3952 119.064 17.0378 118.29 17.0378C116.24 17.0378 114.742 18.7501 114.742 21.4428C114.742 24.2575 116.391 25.919 118.337 25.919C119.112 25.919 119.838 25.6661 120.358 25.3265L120.914 26.8006C120.305 27.2239 119.236 27.6138 118.258 27.6138C114.792 27.6138 112.609 24.9036 112.609 21.4103C112.609 18.1731 114.775 15.3438 118.29 15.3438C119.336 15.3438 120.305 15.7845 120.996 16.2583L120.358 17.7018Z" fill="#909090"/>
<path d="M42.6518 33.1125C42.1674 32.8088 41.3639 32.4514 40.5915 32.4514C38.5473 32.4514 37.0552 34.1608 37.0552 36.8474C37.0552 39.6528 38.6949 41.309 40.6403 41.309C41.4111 41.309 42.1351 41.0528 42.6518 40.7161L43.2061 42.1877C42.6034 42.6074 41.5293 43.0006 40.5588 43.0006C37.1036 43.0006 34.9219 40.2904 34.9219 36.8117C34.9219 33.5863 37.0891 30.7598 40.5911 30.7598C41.6326 30.7598 42.603 31.2006 43.2871 31.6771L42.6518 33.1125Z" fill="#909090"/>
<path d="M52.0946 42.7935H50.0826V37.1019H45.9083V42.7935H43.9141V30.9609H45.9083V35.5083H50.0826V30.9963H52.0946V42.7935Z" fill="#909090"/>
<path d="M56.1057 38.1144C56.574 36.5598 57.0435 35.124 57.4573 33.2954H57.4944C57.9627 35.124 58.3867 36.5594 58.8223 38.1144H56.1057ZM56.8737 30.9609L52.8203 42.7939H54.5616L55.5853 39.5681H59.1216L60.0433 42.7939H62.2916L58.55 30.9609H56.8737Z" fill="#909090"/>
<path d="M71.7955 42.7939H70.339C68.4279 40.0715 66.5337 37.3703 64.6404 34.3087H64.6226V42.7939H63.0156V30.9609H64.475C66.3833 33.665 68.2742 36.3573 70.1591 39.3985H70.1886V30.9609H71.7955V42.7939Z" fill="#909090"/>
<path d="M82.4702 42.7939H81.0141C79.1026 40.0715 77.2064 37.3703 75.3122 34.3087H75.2973V42.7939H73.6875V30.9609H75.1469C77.0551 33.665 78.9489 36.3573 80.8278 39.3985H80.8604V30.9609H82.4702V42.7939Z" fill="#909090"/>
<path d="M89.4169 32.5541H86.0634V35.7974H89.3488V37.3877H86.0634V41.206H90.0224V42.7935H84.0547V30.9609H89.4169V32.5541Z" fill="#909090"/>
<path d="M91.1406 30.9609H93.1316V41.206H97.1083V42.7935H91.1406V30.9609Z" fill="#909090"/>
</g>
<defs>
<clipPath id="clip0_1095_8958">
<rect width="121" height="43" fill="white"/>
</clipPath>
</defs>
</svg>
