<svg width="80" height="80" viewBox="0 0 80 80" fill="none" xmlns="http://www.w3.org/2000/svg">
<circle r="40" transform="matrix(-1 0 0 1 40 40)" fill="#302E2E"/>
<path d="M23.1161 63.472C27.6165 67.4583 36.2923 68.7298 46.6258 64.7909C56.9592 60.852 68.9062 51.5811 67.0889 38.6853C65.2716 25.7895 60.401 16.637 46.3664 15.2054C32.3317 13.7737 20.3493 18.57 15.4856 30.4039C10.6218 42.2378 18.6157 59.4856 23.1161 63.472Z" fill="#F9B131"/>
<g clip-path="url(#clip0_778_15576)">
<path d="M38.6564 44.6462H36.3693C36.0317 44.6473 35.6973 44.5813 35.3854 44.4521C35.0735 44.3229 34.7903 44.1331 34.5523 43.8936L30.1383 39.4795C30.1134 39.7723 30.0938 40.066 30.0938 40.3649C30.0975 42.9399 31.0673 45.4198 32.8113 47.3144C34.5554 49.2089 36.9468 50.3801 39.5127 50.5964V45.5025C39.5127 45.2754 39.4225 45.0576 39.2619 44.897C39.1013 44.7364 38.8835 44.6462 38.6564 44.6462Z" fill="#212020"/>
<path d="M47.5907 33.0674L46.058 34.6001C45.6558 35.0001 45.1121 35.2253 44.5449 35.2269H43.3641C43.2506 35.2269 43.1417 35.272 43.0614 35.3523C42.9811 35.4326 42.936 35.5415 42.936 35.655V36.5113C42.936 37.079 42.7105 37.6235 42.309 38.025C41.9076 38.4264 41.3631 38.652 40.7953 38.652C40.6818 38.652 40.5729 38.6971 40.4926 38.7774C40.4123 38.8577 40.3672 38.9666 40.3672 39.0801V39.5082C40.3672 39.7353 40.4574 39.9531 40.618 40.1137C40.7786 40.2743 40.9964 40.3645 41.2235 40.3645H43.7923C44.4736 40.3645 45.1269 40.6351 45.6087 41.1169C46.0904 41.5986 46.3611 42.252 46.3611 42.9333V43.757C46.3611 43.8704 46.4061 43.9791 46.4861 44.0593L48.7338 46.3079C50.1508 44.3262 50.8141 41.9039 50.6046 39.4768C50.395 37.0496 49.3263 34.7769 47.5907 33.0674Z" fill="#212020"/>
<path d="M44.648 43.7571V42.9333C44.648 42.7062 44.5578 42.4884 44.3972 42.3279C44.2366 42.1673 44.0188 42.0771 43.7917 42.0771H41.2229C40.5416 42.0771 39.8882 41.8064 39.4065 41.3247C38.9247 40.8429 38.6541 40.1896 38.6541 39.5083V39.0801C38.6541 38.5124 38.8796 37.9679 39.2811 37.5664C39.6825 37.165 40.227 36.9395 40.7948 36.9395C40.9083 36.9395 41.0172 36.8943 41.0975 36.8141C41.1778 36.7338 41.2229 36.6249 41.2229 36.5113V35.6551C41.2229 35.0873 41.4484 34.5428 41.8499 34.1414C42.2513 33.7399 42.7958 33.5144 43.3636 33.5144H44.5444C44.6576 33.5137 44.766 33.4688 44.8466 33.3894L46.2689 31.9671C44.9373 31.0266 43.4007 30.4172 41.7865 30.1894C40.1723 29.9617 38.5271 30.1221 36.9873 30.6574C35.4475 31.1926 34.0575 32.0874 32.9327 33.2673C31.8078 34.4473 30.9806 35.8784 30.5195 37.4421L35.7599 42.6825C35.8396 42.7622 35.9342 42.8254 36.0384 42.8684C36.1426 42.9115 36.2543 42.9335 36.367 42.9333H38.6541C39.3354 42.9333 39.9888 43.204 40.4705 43.6857C40.9523 44.1675 41.2229 44.8209 41.2229 45.5021V50.5961C43.6433 50.3969 45.9142 49.3441 47.6304 47.6257L45.2748 45.2701C44.8748 44.8679 44.6496 44.3243 44.648 43.7571Z" fill="#212020"/>
</g>
<defs>
<clipPath id="clip0_778_15576">
<rect width="20.5505" height="20.5505" fill="white" transform="translate(30.0938 30.0894)"/>
</clipPath>
</defs>
</svg>
