<svg width="415" height="148" viewBox="0 0 415 148" fill="none" xmlns="http://www.w3.org/2000/svg">
<g opacity="0.4">
<path opacity="0.5" d="M34.4786 188.445C-19.8873 135.426 37.1866 68.6604 104.398 62.3137C150.058 57.4324 162.413 10.8193 206.948 3.14339C271.105 -7.90283 249.483 51.7346 317.87 48.6012C390.195 46.4674 437.497 160.527 369.098 200.559C306.522 237.275 338.719 251.995 301.214 316.972C263.708 381.949 152.955 382.03 130.577 307.61C117.452 249.438 100.099 251.902 34.4786 188.445Z" stroke="url(#paint0_linear_902_1976)"/>
<path opacity="0.6" d="M101.969 186.613C73.2056 159.408 99.848 107.659 141.693 105.207C174.715 103.271 189.805 74.8539 215.668 70.4029C266.058 61.739 252.633 91.2665 292.07 94.4474C336.427 98.8777 377.213 166.312 324.346 196.781C278.759 223.104 303.731 235.807 275.743 273.334C247.755 310.861 184.678 313.79 163.635 265.134C154.159 236.787 141.566 223.641 101.969 186.613Z" stroke="url(#paint1_linear_902_1976)"/>
<path opacity="0.65" d="M135.884 185.966C119.921 171.668 131.348 127.428 160.509 126.922C187.213 126.459 203.671 107.14 220.197 104.302C263.704 96.8291 254.378 111.302 279.339 117.64C309.713 125.352 347.241 169.474 302.14 195.161C265.047 216.288 286.406 227.982 263.177 251.785C239.948 275.587 200.709 279.939 180.334 244.165C172.682 230.731 162.47 209.779 135.884 185.966Z" stroke="url(#paint2_linear_902_1976)"/>
</g>
<defs>
<linearGradient id="paint0_linear_902_1976" x1="221.392" y1="97.6609" x2="571.758" y2="179.532" gradientUnits="userSpaceOnUse">
<stop stop-color="white"/>
<stop offset="1" stop-color="white" stop-opacity="0"/>
</linearGradient>
<linearGradient id="paint1_linear_902_1976" x1="226.167" y1="125.378" x2="457.077" y2="180.977" gradientUnits="userSpaceOnUse">
<stop stop-color="white"/>
<stop offset="1" stop-color="white" stop-opacity="0"/>
</linearGradient>
<linearGradient id="paint2_linear_902_1976" x1="228.697" y1="139.291" x2="400.147" y2="181.698" gradientUnits="userSpaceOnUse">
<stop stop-color="white"/>
<stop offset="1" stop-color="white" stop-opacity="0"/>
</linearGradient>
</defs>
</svg>
