<svg width="14" height="14" viewBox="0 0 14 14" fill="none" xmlns="http://www.w3.org/2000/svg">
<path d="M11.9289 11.9295H9.85443V8.68065C9.85443 7.90587 9.84064 6.90894 8.77544 6.90894C7.69507 6.90894 7.52949 7.75271 7.52949 8.62477V11.9295H5.45567V5.2483H7.4474V6.16107H7.47499C7.88134 5.46701 8.63608 5.05237 9.43981 5.08203C11.5426 5.08203 11.9296 6.46532 11.9296 8.26394L11.9289 11.9295ZM3.11487 4.33485C2.44981 4.33485 1.911 3.79603 1.911 3.13094C1.911 2.46586 2.44981 1.92704 3.11487 1.92704C3.77992 1.92704 4.31873 2.46586 4.31873 3.13094C4.31873 3.79603 3.77992 4.33485 3.11487 4.33485ZM4.15178 11.9295H2.0752V5.2483H4.15178V11.9295ZM12.9631 0.000784156H1.03277C0.469127 -0.00542511 0.00689893 0.446472 0 1.01014V12.9899C0.00689893 13.5542 0.469127 14.0061 1.03277 13.9999H12.9631C13.5281 14.0068 13.9924 13.5549 14 12.9899V1.00944C13.9917 0.444402 13.5274 -0.0074949 12.9631 9.42052e-05" fill="white"/>
</svg>
