<svg width="151" height="56" viewBox="0 0 151 56" fill="none" xmlns="http://www.w3.org/2000/svg">
<path d="M8.34244 8.22761V11.0831C10.4828 11.0831 11.7475 11.809 11.7475 12.898C11.7475 13.9869 10.5071 14.7129 8.75592 14.7129C5.59406 14.7129 3.62398 12.3414 3.62398 8.75998C3.62398 5.29955 5.49677 2.95226 8.56134 2.95226C10.726 2.95226 12.2096 4.138 11.9664 6.48529H15.5661C15.9309 2.29889 12.8663 0 8.60998 0C3.30779 0 0 3.55723 0 8.75998C0 14.1079 3.45372 17.6652 8.80456 17.6652C12.7204 17.6652 15.3715 15.8019 15.3715 13.4788C15.3715 12.414 14.8121 11.5913 13.8879 11.0831H16.9767V8.22761H8.34244Z" fill="white"/>
<path d="M22.1957 17.3022V0.362982H18.9122V17.3022H22.1957Z" fill="white"/>
<path d="M30.519 17.6652C34.3618 17.6652 36.9156 15.1001 36.9156 11.2525C36.9156 7.40485 34.3618 4.83977 30.519 4.83977C26.6761 4.83977 24.1223 7.40485 24.1223 11.2525C24.1223 15.1001 26.6761 17.6652 30.519 17.6652ZM30.519 14.8339C28.7435 14.8339 27.5517 13.4062 27.5517 11.2525C27.5517 9.07457 28.7435 7.67104 30.519 7.67104C32.2945 7.67104 33.4862 9.07457 33.4862 11.2525C33.4862 13.4062 32.2945 14.8339 30.519 14.8339Z" fill="white"/>
<path d="M46.161 4.83977C44.3369 4.83977 42.9019 5.63833 42.002 7.04187V0.362982H38.7185V17.3022H42.002V15.4873C42.9019 16.8666 44.3126 17.6652 46.1124 17.6652C49.3715 17.6652 51.7065 15.1001 51.7065 11.2525C51.7065 7.40485 49.3959 4.83977 46.161 4.83977ZM45.1395 14.8339C43.2424 14.8339 42.002 13.4062 42.002 11.2525C42.002 9.09877 43.2424 7.67104 45.1395 7.67104C47.0123 7.67104 48.3014 9.07457 48.3014 11.2525C48.3014 13.4062 47.0366 14.8339 45.1395 14.8339Z" fill="white"/>
<path d="M58.7961 4.83977C55.5856 4.83977 53.0805 6.53369 53.7128 9.31656H57.0206C56.8017 8.22761 57.5314 7.62264 58.7718 7.62264C60.4987 7.62264 61.0824 8.78418 61.1067 10.3813C60.3041 10.2119 59.3798 10.1151 58.4556 10.1151C55.0262 10.1151 52.8616 11.5913 52.8616 14.0353C52.8616 16.1164 54.4182 17.6652 57.0693 17.6652C59.0637 17.6652 60.5473 16.794 61.4472 15.2211V17.3022H64.4145V10.4539C64.4145 7.04187 62.5174 4.83977 58.7961 4.83977ZM57.8232 15.1727C56.8017 15.1727 56.1693 14.7371 56.1693 13.8901C56.1693 12.9706 56.9476 12.3656 58.7718 12.3656C59.5015 12.3656 60.4257 12.4866 61.204 12.7286C60.6446 14.2047 59.3798 15.1727 57.8232 15.1727Z" fill="white"/>
<path d="M69.9846 17.3022V0.362982H66.7011V17.3022H69.9846Z" fill="white"/>
<path d="M77.5862 0.362982V3.21845H83.3505V17.3022H86.8772V3.21845H92.6415V0.362982H77.5862Z" fill="white"/>
<path d="M98.2314 4.83977C96.6504 4.83977 95.4587 5.73513 94.8263 7.25966V5.20275H91.5428V17.3022H94.8263V11.3493C94.8263 9.12297 95.7019 7.69524 96.8937 7.69524C97.6963 7.69524 98.207 8.30021 98.207 9.24396C98.207 9.89733 97.9638 10.5991 97.5017 11.3735H100.931C101.345 10.5507 101.588 9.55855 101.588 8.59059C101.588 6.3401 100.274 4.83977 98.2314 4.83977Z" fill="white"/>
<path d="M111.455 13.382C111.066 14.3257 110.166 14.8339 108.95 14.8339C107.198 14.8339 106.201 13.7933 105.958 12.051H114.495C115.784 8.13082 113.328 4.83977 108.901 4.83977C105.034 4.83977 102.48 7.40485 102.48 11.2525C102.48 15.1001 104.985 17.6652 108.901 17.6652C112.063 17.6652 114.325 15.9954 115.054 13.382H111.455ZM108.877 7.57424C110.603 7.57424 111.455 8.5422 111.309 9.99413H106.007C106.323 8.4212 107.32 7.57424 108.877 7.57424Z" fill="white"/>
<path d="M122.166 4.83977C118.956 4.83977 116.451 6.53369 117.083 9.31656H120.391C120.172 8.22761 120.902 7.62264 122.142 7.62264C123.869 7.62264 124.453 8.78418 124.477 10.3813C123.674 10.2119 122.75 10.1151 121.826 10.1151C118.396 10.1151 116.232 11.5913 116.232 14.0353C116.232 16.1164 117.788 17.6652 120.439 17.6652C122.434 17.6652 123.917 16.794 124.817 15.2211V17.3022H127.785V10.4539C127.785 7.04187 125.888 4.83977 122.166 4.83977ZM121.193 15.1727C120.172 15.1727 119.54 14.7371 119.54 13.8901C119.54 12.9706 120.318 12.3656 122.142 12.3656C122.872 12.3656 123.796 12.4866 124.574 12.7286C124.015 14.2047 122.75 15.1727 121.193 15.1727Z" fill="white"/>
<path d="M137.982 5.20275H134.504V1.91171H131.196V5.20275H128.788V8.00982H131.196V13.3094C131.196 14.8581 131.488 17.6652 135.355 17.6652C136.352 17.6652 137.155 17.4716 137.738 17.157V14.3015C137.13 14.6403 136.668 14.8339 135.987 14.8339C134.747 14.8339 134.504 14.1563 134.504 13.2852V8.00982H137.982V5.20275Z" fill="white"/>
<path d="M144.895 13.9869L142.001 5.20275H138.499L143.436 17.9555C143.047 18.8025 142.366 19.6737 140.979 19.6737C140.493 19.6737 139.934 19.5527 139.301 19.3349V22.1178C139.982 22.3839 140.712 22.4807 141.344 22.4807C144.895 22.4807 146.063 19.6737 146.573 18.1975L151 5.20275H147.546L144.895 13.9869Z" fill="white"/>
<path d="M0.802626 19.6056V36.5448H7.68575C12.6961 36.5448 16.0039 33.1327 16.0039 28.051C16.0039 22.9692 12.6474 19.6056 7.66143 19.6056H0.802626ZM4.30499 33.6893V22.461H7.66143C10.6044 22.461 12.4042 24.6873 12.4042 28.0268C12.4042 31.5356 10.4098 33.6893 7.66143 33.6893H4.30499Z" fill="white"/>
<path d="M19.7586 22.8966C20.8774 22.8966 21.7287 22.0496 21.7287 20.9365C21.7287 19.8233 20.8774 18.9764 19.7586 18.9764C18.6398 18.9764 17.7885 19.8233 17.7885 20.9365C17.7885 22.0496 18.6398 22.8966 19.7586 22.8966ZM21.3881 36.5448V24.4453H18.0804V36.5448H21.3881Z" fill="white"/>
<path d="M29.225 24.0823C26.0145 24.0823 23.5093 25.7763 24.1417 28.5591H27.4495C27.2306 27.4702 27.9602 26.8652 29.2006 26.8652C30.9275 26.8652 31.5112 28.0268 31.5355 29.6239C30.7329 29.4545 29.8087 29.3577 28.8844 29.3577C25.455 29.3577 23.2904 30.8338 23.2904 33.2779C23.2904 35.359 24.847 36.9077 27.4981 36.9077C29.4925 36.9077 30.9761 36.0366 31.8761 34.4636V36.5448H34.8433V29.6965C34.8433 26.2844 32.9462 24.0823 29.225 24.0823ZM28.2521 34.4153C27.2306 34.4153 26.5982 33.9797 26.5982 33.1327C26.5982 32.2132 27.3765 31.6082 29.2006 31.6082C29.9303 31.6082 30.8545 31.7292 31.6328 31.9712C31.0734 33.4473 29.8087 34.4153 28.2521 34.4153Z" fill="white"/>
<path d="M40.4134 36.5448V19.6056H37.13V36.5448H40.4134Z" fill="white"/>
<path d="M48.7367 36.9077C52.5796 36.9077 55.1334 34.3427 55.1334 30.495C55.1334 26.6474 52.5796 24.0823 48.7367 24.0823C44.8938 24.0823 42.34 26.6474 42.34 30.495C42.34 34.3427 44.8938 36.9077 48.7367 36.9077ZM48.7367 34.0765C46.9612 34.0765 45.7694 32.6487 45.7694 30.495C45.7694 28.3171 46.9612 26.9136 48.7367 26.9136C50.5122 26.9136 51.704 28.3171 51.704 30.495C51.704 32.6487 50.5122 34.0765 48.7367 34.0765Z" fill="white"/>
<path d="M64.1599 33.8345C66.4948 32.5277 67.7839 30.5918 67.7839 28.6075C67.7839 28.0026 67.6622 27.446 67.4433 26.9378C68.4405 25.9699 68.9513 24.3485 68.6838 22.945H66.2272C66.4218 23.7678 66.5191 24.6873 66.3002 25.4133C65.3273 24.5663 63.8923 24.0823 62.1412 24.0823C58.7361 24.0823 56.4741 25.9215 56.4741 28.6075C56.4741 31.1484 58.4929 32.7697 61.4601 32.7697C62.0439 32.7697 62.5789 32.6971 63.0654 32.5761C61.9952 33.3263 60.4629 33.8829 58.4199 34.1249V36.2786C59.5387 35.9882 60.8521 35.7946 61.9223 35.7946C63.868 35.7946 64.7922 36.4722 64.7922 37.4159C64.7922 38.3839 63.7464 38.9162 62.3844 38.9162C60.998 38.9162 60.0495 38.3839 59.8306 37.4401H56.1579C56.6687 40.102 59.1739 41.7475 62.4087 41.7475C65.6922 41.7475 68.246 40.0778 68.246 37.5853C68.246 35.5768 66.6407 34.1975 64.1599 33.8345ZM59.9035 28.6559C59.9035 27.6154 60.8034 26.9136 62.1412 26.9136C63.4789 26.9136 64.3545 27.6154 64.3545 28.6559C64.3545 29.6965 63.4789 30.3982 62.1412 30.3982C60.8034 30.3982 59.9035 29.6965 59.9035 28.6559Z" fill="white"/>
<path d="M77.9457 30.5434C77.9457 32.6487 76.9242 34.1007 75.3189 34.1007C73.811 34.1007 73.4461 32.7455 73.4461 31.2452V24.4453H70.1383V31.2452C70.1383 33.3747 70.6491 36.8351 74.0542 36.8351C75.7324 36.8351 77.1187 36.0124 77.9457 34.5604V36.5448H81.2535V24.4453H77.9457V30.5434Z" fill="white"/>
<path d="M92.0257 32.6245C91.6365 33.5683 90.7366 34.0765 89.5205 34.0765C87.7693 34.0765 86.7721 33.0359 86.5289 31.2936H95.0659C96.355 27.3734 93.8984 24.0823 89.4718 24.0823C85.6046 24.0823 83.0508 26.6474 83.0508 30.495C83.0508 34.3427 85.556 36.9077 89.4718 36.9077C92.6337 36.9077 94.8956 35.238 95.6253 32.6245H92.0257ZM89.4475 26.8168C91.1744 26.8168 92.0257 27.7848 91.8797 29.2367H86.5775C86.8937 27.6638 87.8909 26.8168 89.4475 26.8168Z" fill="white"/>
<path d="M102.541 36.9077C105.824 36.9077 108.135 35.4316 108.135 32.9149C108.135 28.2929 100.425 30.0353 100.425 27.9058C100.425 27.2282 101.155 26.6716 102.395 26.6716C103.879 26.6716 104.803 27.4702 104.511 28.6559H107.722C108.208 25.8005 105.727 24.0823 102.395 24.0823C99.3061 24.0823 97.0198 25.5827 97.0198 28.0752C97.0198 32.6729 104.73 31.0516 104.73 33.1085C104.73 33.8345 103.83 34.3185 102.541 34.3185C100.936 34.3185 99.9871 33.5683 100.06 32.3583H96.8739C96.7766 35.1654 99.0142 36.9077 102.541 36.9077Z" fill="white"/>
<path d="M7.11737 49.9457L6.7896 51.5479H8.58521V52.9799H6.51883L5.97729 55.7873H4.45245L4.99398 52.9799H3.64015L3.11287 55.7873H1.61652L2.12956 52.9799H0.476454V51.5479H2.40032L2.72809 49.9457H0.975235V48.4995H2.98461L3.52614 45.6779H5.05099L4.50945 48.4995H5.89179L6.43332 45.6779H7.92967L7.38813 48.4995H9.05549V49.9457H7.11737ZM3.91092 51.5479H5.279L5.60677 49.9457H4.23869L3.91092 51.5479Z" fill="white"/>
<path d="M17.5274 45.8622H10.459V55.7873H12.5111V51.7889H16.7721V50.1158H12.5111V47.5353H17.5274V45.8622Z" fill="white"/>
<path d="M21.6915 56C23.9431 56 25.4394 54.4971 25.4394 52.2426C25.4394 49.9882 23.9431 48.4853 21.6915 48.4853C19.4398 48.4853 17.9435 49.9882 17.9435 52.2426C17.9435 54.4971 19.4398 56 21.6915 56ZM21.6915 54.3411C20.6511 54.3411 19.9528 53.5045 19.9528 52.2426C19.9528 50.9665 20.6511 50.1442 21.6915 50.1442C22.7318 50.1442 23.4301 50.9665 23.4301 52.2426C23.4301 53.5045 22.7318 54.3411 21.6915 54.3411Z" fill="white"/>
<path d="M30.4148 48.4853C29.4885 48.4853 28.7902 49.0099 28.4197 49.9031V48.698H26.4958V55.7873H28.4197V52.2994C28.4197 50.9949 28.9327 50.1584 29.631 50.1584C30.1013 50.1584 30.4005 50.5128 30.4005 51.0658C30.4005 51.4486 30.258 51.8598 29.9872 52.3135H31.9966C32.2389 51.8314 32.3814 51.2501 32.3814 50.683C32.3814 49.3643 31.6118 48.4853 30.4148 48.4853Z" fill="white"/>
<path d="M37.0541 45.8622V55.7873H39.1063V52.115H41.6287C43.866 52.115 45.1629 50.924 45.1629 48.9532C45.1629 46.9681 43.866 45.8622 41.6287 45.8622H37.0541ZM39.1063 50.4419V47.5353H41.6287C42.5407 47.5353 43.0395 48.0315 43.0395 48.9673C43.0395 49.9173 42.5407 50.4419 41.6287 50.4419H39.1063Z" fill="white"/>
<path d="M48.1694 55.7873V45.8622H46.2455V55.7873H48.1694Z" fill="white"/>
<path d="M52.7612 48.4853C50.88 48.4853 49.4122 49.4778 49.7827 51.1083H51.7208C51.5926 50.4703 52.0201 50.1158 52.7469 50.1158C53.7587 50.1158 54.1007 50.7964 54.115 51.7322C53.6447 51.6329 53.1032 51.5762 52.5616 51.5762C50.5523 51.5762 49.2839 52.4411 49.2839 53.8732C49.2839 55.0926 50.196 56 51.7493 56C52.9179 56 53.7872 55.4896 54.3145 54.5679V55.7873H56.0531V51.7747C56.0531 49.7755 54.9415 48.4853 52.7612 48.4853ZM52.1911 54.5396C51.5926 54.5396 51.2221 54.2844 51.2221 53.7881C51.2221 53.2493 51.6781 52.8949 52.7469 52.8949C53.1744 52.8949 53.716 52.9657 54.172 53.1075C53.8442 53.9724 53.1032 54.5396 52.1911 54.5396Z" fill="white"/>
<path d="M60.3143 56C62.2382 56 63.5921 55.1351 63.5921 53.6605C63.5921 50.9524 59.0745 51.9732 59.0745 50.7255C59.0745 50.3285 59.502 50.0024 60.2288 50.0024C61.0981 50.0024 61.6397 50.4703 61.4687 51.1651H63.3498C63.6348 49.492 62.1812 48.4853 60.2288 48.4853C58.419 48.4853 57.0794 49.3643 57.0794 50.8248C57.0794 53.5187 61.5969 52.5687 61.5969 53.7739C61.5969 54.1993 61.0696 54.4829 60.3143 54.4829C59.3738 54.4829 58.818 54.0433 58.8608 53.3344H56.9939C56.9369 54.9791 58.248 56 60.3143 56Z" fill="white"/>
<path d="M69.4177 48.698H67.3798V46.7696H65.4417V48.698H64.0308V50.3427H65.4417V53.4478C65.4417 54.3553 65.6127 56 67.8786 56C68.4629 56 68.9331 55.8866 69.2751 55.7022V54.0292C68.9189 54.2277 68.6481 54.3411 68.2491 54.3411C67.5223 54.3411 67.3798 53.9441 67.3798 53.4337V50.3427H69.4177V48.698Z" fill="white"/>
<path d="M71.4021 47.7905C72.0576 47.7905 72.5564 47.2943 72.5564 46.642C72.5564 45.9898 72.0576 45.4936 71.4021 45.4936C70.7466 45.4936 70.2478 45.9898 70.2478 46.642C70.2478 47.2943 70.7466 47.7905 71.4021 47.7905ZM72.3569 55.7873V48.698H70.4188V55.7873H72.3569Z" fill="white"/>
<path d="M77.2337 56C79.2288 56 80.4972 54.8373 80.8819 53.2777H78.7728C78.502 53.9299 77.989 54.3411 77.2622 54.3411C76.2076 54.3411 75.4951 53.5187 75.4951 52.2285C75.4951 50.9524 76.1791 50.1442 77.2765 50.1442C78.3453 50.1442 78.8868 50.9098 78.6161 52.2426H80.5257C81.1527 49.9882 79.5851 48.4853 77.2765 48.4853C74.9678 48.4853 73.4857 49.974 73.4857 52.2426C73.4857 54.4971 74.9821 56 77.2337 56Z" fill="white"/>
<path d="M84.8915 56C86.8154 56 88.1693 55.1351 88.1693 53.6605C88.1693 50.9524 83.6517 51.9732 83.6517 50.7255C83.6517 50.3285 84.0793 50.0024 84.806 50.0024C85.6753 50.0024 86.2169 50.4703 86.0459 51.1651H87.927C88.212 49.492 86.7584 48.4853 84.806 48.4853C82.9962 48.4853 81.6566 49.3643 81.6566 50.8248C81.6566 53.5187 86.1741 52.5687 86.1741 53.7739C86.1741 54.1993 85.6468 54.4829 84.8915 54.4829C83.951 54.4829 83.3952 54.0433 83.438 53.3344H81.5711C81.5141 54.9791 82.8252 56 84.8915 56Z" fill="white"/>
</svg>
