<svg width="91" height="50" viewBox="0 0 91 50" fill="none" xmlns="http://www.w3.org/2000/svg">
<path d="M5.32947 0.695312H5.74183C6.89365 0.721521 8.03433 1.11193 8.92926 1.82721C10.1067 2.75053 10.7938 4.17182 10.9944 5.61822C11.2184 7.25464 10.9086 9.00409 9.93508 10.3735C9.16219 11.4759 7.92176 12.2507 6.57435 12.4664C5.51559 12.6313 4.39999 12.563 3.40141 12.1634C2.27689 11.7173 1.33961 10.8622 0.776796 9.81165C0.275835 8.89762 0.0345491 7.86291 0 6.83039V6.42033C0.0456939 4.89366 0.579532 3.33805 1.68176 2.23072C2.62796 1.27136 3.9698 0.718791 5.32947 0.695312ZM4.82517 2.37378C4.00992 2.51192 3.27714 3.00989 2.82634 3.68477C2.25015 4.53984 2.03728 5.58273 2.02391 6.59451C2.02836 7.59973 2.23009 8.63662 2.78454 9.4966C3.23758 10.2113 4.00212 10.7399 4.85358 10.8764C5.70561 11.0118 6.63788 10.9152 7.36229 10.4243C8.07055 9.97164 8.52414 9.22304 8.76933 8.44497C9.12987 7.26884 9.13042 5.98952 8.77323 4.81285C8.53139 4.04023 8.08726 3.29546 7.39015 2.83898C6.65348 2.32791 5.69614 2.22799 4.82517 2.37378Z" fill="white"/>
<path d="M17.2694 0.695312H17.6428C18.9217 0.721521 20.2429 1.11575 21.1763 2.00357C21.8918 2.67026 22.3125 3.6045 22.4028 4.56331C21.7279 4.56331 21.0537 4.56441 20.3794 4.56277C20.2011 3.89717 19.8707 3.23376 19.2839 2.82588C18.5901 2.32463 17.6746 2.23673 16.8443 2.36504C15.9872 2.49554 15.2149 3.02299 14.758 3.74046C14.2007 4.60099 13.9973 5.63952 13.9929 6.64692C14.0046 7.67508 14.2247 8.73709 14.822 9.59925C15.2712 10.2501 15.9861 10.7301 16.7796 10.8682C17.6094 11.0194 18.5327 10.9239 19.2148 10.4008C19.9916 9.83459 20.3482 8.88233 20.4446 7.96775C21.1022 7.96775 21.7603 7.9672 22.4184 7.96775C22.3626 8.87359 22.0941 9.77616 21.5758 10.5335C21.0888 11.2564 20.3777 11.8292 19.5619 12.1623C18.6174 12.5559 17.5575 12.6242 16.5489 12.4806C15.1904 12.2873 13.9293 11.5278 13.1375 10.4292C12.164 9.09637 11.8324 7.38678 12.018 5.77548C12.1857 4.32798 12.831 2.89522 13.9717 1.93423C14.8805 1.15888 16.0675 0.726982 17.2694 0.695312Z" fill="white"/>
<path d="M23.9298 0.965086C26.701 0.965086 29.4722 0.96454 32.2428 0.965086C32.2428 1.53622 32.2433 2.10736 32.2428 2.67795C30.1459 2.6785 28.0495 2.6774 25.9532 2.67849C25.9532 3.66515 25.9532 4.65181 25.9532 5.63792C27.8935 5.63901 29.8344 5.63792 31.7747 5.63847C31.7747 6.17848 31.7747 6.71795 31.7747 7.25741C29.8344 7.25796 27.8935 7.25741 25.9532 7.25796C25.9532 8.36092 25.9532 9.46333 25.9532 10.5663C28.0874 10.5668 30.2217 10.5657 32.3565 10.5663C32.3565 11.1374 32.3565 11.7086 32.3559 12.2792C29.5474 12.2797 26.7389 12.2792 23.9304 12.2797C23.9293 8.5078 23.9298 4.73644 23.9298 0.965086Z" fill="white"/>
<path d="M37.5289 0.967463C38.2471 0.95818 38.966 0.96637 39.6843 0.96364C41.1677 4.735 42.6499 8.5069 44.1322 12.2783C43.4089 12.2777 42.6861 12.2783 41.9634 12.2783C41.6017 11.2801 41.2407 10.282 40.8801 9.28388C39.3444 9.28334 37.8086 9.28388 36.2734 9.28334C35.9112 10.2815 35.5512 11.2801 35.189 12.2783C34.493 12.2777 33.7976 12.2783 33.1016 12.2777C34.576 8.50744 36.0572 4.73936 37.5289 0.967463ZM38.2171 3.89522C37.7523 5.18928 37.2876 6.4828 36.8234 7.77687C37.9975 7.77687 39.1711 7.77632 40.3452 7.77687C39.7634 6.14755 39.1911 4.51495 38.6021 2.8889C38.4338 3.20669 38.3508 3.56215 38.2171 3.89522Z" fill="white"/>
<path d="M45.4688 0.963437C46.1803 0.962891 46.8919 0.963437 47.6035 0.962891C49.3694 3.74813 51.1248 6.54048 52.8962 9.3219C52.9196 6.53666 52.899 3.74977 52.9063 0.963437C53.5482 0.963437 54.1902 0.963437 54.8321 0.963437C54.8321 4.73479 54.8321 8.50615 54.8321 12.2775C54.1199 12.278 53.4083 12.2775 52.6967 12.278C51.02 9.62658 49.346 6.97402 47.6699 4.322C47.5857 4.1915 47.5099 4.055 47.4107 3.93433C47.374 4.71022 47.4046 5.48939 47.3946 6.26638C47.3946 8.27027 47.3951 10.2742 47.3946 12.278C46.7526 12.2775 46.1107 12.278 45.4688 12.2775C45.4688 8.50615 45.4688 4.73479 45.4688 0.963437Z" fill="white"/>
<path d="M31.0861 14.1198C32.0836 13.7939 33.173 13.7704 34.1949 13.9975C35.0057 14.1766 35.7781 14.62 36.2434 15.3069C36.6351 15.8627 36.7939 16.5431 36.8157 17.2109C36.3598 17.2114 35.9046 17.2109 35.4487 17.2109C35.3852 16.6097 35.1668 15.979 34.6625 15.5963C34.0049 15.0945 33.1256 14.9858 32.3182 15.0617C31.7386 15.1163 31.1206 15.2818 30.7244 15.7273C30.3934 16.0855 30.2915 16.5955 30.3489 17.0645C30.3817 17.3179 30.511 17.5559 30.7077 17.7236C31.129 18.1014 31.6946 18.2598 32.2346 18.3995C33.2526 18.6234 34.2841 18.8107 35.2682 19.1602C35.9402 19.4097 36.5855 19.8214 36.9461 20.4482C37.2732 21.0002 37.3138 21.6697 37.2358 22.2905C37.1288 23.1133 36.5649 23.8237 35.8611 24.2556C34.9929 24.788 33.9453 24.9611 32.935 24.9589C31.7486 24.9403 30.4965 24.6433 29.6077 23.8308C28.8811 23.1696 28.5339 22.1851 28.5556 21.2263C29.0109 21.2252 29.4662 21.2263 29.922 21.2252C29.9047 21.9132 30.1956 22.6017 30.7317 23.0505C31.4238 23.6359 32.3811 23.8035 33.2705 23.7795C34.0021 23.7445 34.8012 23.6162 35.3457 23.0931C35.7926 22.6765 35.9062 22.0147 35.7786 21.4425C35.6839 21.0308 35.3457 20.7267 34.9862 20.523C34.3839 20.1938 33.699 20.0665 33.0325 19.924C32.1064 19.7116 31.1502 19.5506 30.2898 19.1345C29.6434 18.8309 29.0867 18.268 28.9491 17.5603C28.8192 16.868 28.8917 16.1128 29.2633 15.4991C29.6568 14.8253 30.3466 14.3645 31.0861 14.1198Z" fill="white"/>
<path d="M54.9447 13.9873C55.7861 13.8038 56.6705 13.8005 57.513 13.9812C58.447 14.1816 59.3419 14.6594 59.9292 15.4118C60.3672 15.954 60.6252 16.6196 60.72 17.301C60.2391 17.3016 59.7582 17.3016 59.2773 17.301C59.1608 16.7681 58.9245 16.2467 58.5211 15.8623C58.0001 15.367 57.2823 15.1028 56.5652 15.052C55.7962 14.9985 54.9848 15.1153 54.3306 15.5385C53.5744 15.9999 53.0685 16.778 52.8183 17.6035C52.4884 18.7049 52.4956 19.8908 52.7675 21.0031C52.9838 21.8892 53.4803 22.7443 54.2754 23.2467C54.9726 23.714 55.8524 23.8407 56.6799 23.761C57.454 23.6878 58.1945 23.2996 58.671 22.6952C59.119 22.1339 59.3296 21.4219 59.3831 20.7191C59.8635 20.7191 60.3444 20.7186 60.8258 20.7191C60.7356 21.5671 60.4993 22.4172 60.0173 23.1353C59.5938 23.7725 58.978 24.2885 58.2597 24.5806C57.3576 24.9508 56.3528 25.0163 55.3883 24.9197C54.4499 24.8241 53.5371 24.4534 52.8294 23.8374C52.1964 23.2871 51.7489 22.5516 51.4859 21.768C51.1632 20.8054 51.0707 19.7767 51.1538 18.7693C51.2518 17.6674 51.5996 16.5634 52.2855 15.6728C52.9291 14.8238 53.8954 14.2237 54.9447 13.9873Z" fill="white"/>
<path d="M64.8197 14.0298C65.7581 13.7873 66.76 13.7912 67.7017 14.0161C68.5092 14.2094 69.2704 14.673 69.7162 15.3724C70.0784 15.9157 70.2227 16.5693 70.245 17.2109C69.7892 17.2109 69.3333 17.2109 68.8775 17.2109C68.8156 16.6217 68.6061 16.0064 68.1224 15.6209C67.4788 15.1098 66.6062 14.9902 65.8032 15.0568C65.2164 15.106 64.5901 15.2605 64.1783 15.7006C63.8222 16.0686 63.7113 16.6075 63.7832 17.0984C63.8216 17.3392 63.9492 17.5636 64.137 17.7241C64.5488 18.0932 65.1 18.2516 65.6271 18.3908C66.7126 18.6354 67.821 18.8216 68.8613 19.2246C69.6599 19.5435 70.3965 20.1594 70.6061 21.0079C70.7877 21.7882 70.7276 22.6705 70.2533 23.3449C69.7741 24.0585 68.9828 24.5177 68.1548 24.7399C67.0464 25.0304 65.8578 25.0364 64.75 24.7389C63.8679 24.5024 63.0248 24.0039 62.5327 23.2318C62.136 22.6416 61.9816 21.9258 61.9844 21.2263C62.4397 21.2252 62.8955 21.2263 63.3508 21.2258C63.3469 21.757 63.4984 22.2965 63.8411 22.7153C64.2708 23.2744 64.9562 23.5868 65.6461 23.7047C66.3081 23.8265 66.9946 23.8019 67.651 23.6599C68.1497 23.5442 68.6485 23.3094 68.9516 22.8895C69.2503 22.4909 69.3049 21.9591 69.218 21.4846C69.1322 21.0407 68.7672 20.7141 68.381 20.5039C67.9124 20.2593 67.3952 20.1206 66.8787 20.0141C66.0227 19.8263 65.159 19.6603 64.3259 19.3879C63.7319 19.1798 63.1346 18.8817 62.7528 18.3723C62.399 17.9322 62.2953 17.3528 62.3221 16.8052C62.3383 16.2695 62.501 15.7334 62.8247 15.2976C63.2906 14.6408 64.0429 14.2307 64.8197 14.0298Z" fill="white"/>
<path d="M1.07031 14.1022C2.7008 14.1017 4.3313 14.1006 5.96235 14.1033C6.84335 14.1148 7.79066 14.3518 8.39471 15.0207C9.07009 15.7463 9.21553 16.7925 9.1208 17.736C9.05003 18.5141 8.70231 19.2954 8.05535 19.7754C7.4318 20.2439 6.62156 20.3831 5.85368 20.3793C4.74031 20.3793 3.6275 20.3793 2.51469 20.3793C2.51413 21.8268 2.51469 23.2743 2.51413 24.7218C2.03323 24.7218 1.55177 24.7218 1.07087 24.7218C1.07031 21.1819 1.07143 17.6421 1.07031 14.1022ZM2.51469 15.2926C2.51413 16.5905 2.51413 17.8889 2.51469 19.1868C3.53555 19.1851 4.55642 19.189 5.57729 19.1851C6.15682 19.1655 6.79041 19.0503 7.21001 18.6244C7.65748 18.1755 7.75165 17.5023 7.68255 16.9028C7.63296 16.4288 7.40338 15.9576 6.99492 15.6841C6.53241 15.3745 5.95399 15.3029 5.40677 15.2937C4.44275 15.292 3.47872 15.2937 2.51469 15.2926Z" fill="white"/>
<path d="M10.6017 24.7218C10.6017 21.1814 10.6011 17.6416 10.6023 14.1017C11.0832 14.1023 11.5641 14.1012 12.045 14.1017C12.0455 17.2446 12.045 20.3869 12.0455 23.5293C13.9574 23.5293 15.8693 23.5287 17.7812 23.5293C17.7812 23.9268 17.7812 24.3243 17.7812 24.7218C15.3879 24.7218 12.9951 24.7218 10.6017 24.7218Z" fill="white"/>
<path d="M22.2825 14.1021C22.8141 14.1016 23.3452 14.1027 23.8768 14.1016C25.2899 17.6414 26.7009 21.1818 28.1129 24.7222C27.5808 24.7227 27.0492 24.7222 26.5175 24.7222C26.1219 23.6569 25.7279 22.5911 25.3334 21.5252C23.8054 21.5247 22.278 21.5242 20.7501 21.5252C20.3472 22.5916 19.941 23.6564 19.537 24.7222C19.0455 24.7227 18.554 24.7222 18.0625 24.7222C19.469 21.1818 20.8755 17.642 22.2825 14.1021ZM21.207 20.3338C22.4307 20.3338 23.6539 20.3338 24.877 20.3333C24.2707 18.6772 23.6734 17.0173 23.0604 15.3634C22.4246 17.0129 21.8278 18.6778 21.207 20.3338Z" fill="white"/>
<path d="M37.8598 15.293C37.8592 14.8955 37.8592 14.4985 37.8598 14.1016C40.7491 14.1016 43.6384 14.1016 46.5283 14.1016C46.5283 14.4985 46.5283 14.8955 46.5277 15.2924C45.3235 15.2924 44.1193 15.293 42.9151 15.2924C42.914 18.4353 42.9151 21.5788 42.9145 24.7216C42.4342 24.7216 41.9533 24.7216 41.473 24.7216C41.473 21.5788 41.473 18.4359 41.473 15.293C40.2688 15.2924 39.0646 15.293 37.8598 15.293Z" fill="white"/>
<path d="M47.7815 24.7216C47.7815 21.1818 47.7809 17.6414 47.7815 14.1016C48.263 14.1016 48.7439 14.1016 49.2248 14.1016C49.2253 17.642 49.2253 21.1818 49.2248 24.7216C48.7439 24.7216 48.2624 24.7216 47.7815 24.7216Z" fill="white"/>
<path d="M57.7848 27.4441C58.3955 26.8287 59.257 26.4858 60.1241 26.423C61.3038 26.3209 62.5782 26.4984 63.5422 27.2175C64.324 27.7925 64.786 28.742 64.7587 29.6997C64.4137 29.6997 64.0694 29.6997 63.725 29.6997C63.7049 28.9882 63.3578 28.291 62.7721 27.8645C61.9975 27.2912 60.9639 27.1705 60.0271 27.3169C59.4281 27.4048 58.8135 27.6445 58.439 28.1321C58.0968 28.5509 58.0038 29.1155 58.0667 29.6369C58.1136 30.0011 58.3214 30.3391 58.6223 30.5564C58.9778 30.8223 59.4214 30.9315 59.8494 31.0309C60.678 31.2318 61.5072 31.4317 62.3363 31.6337C63.1438 31.8521 63.9863 32.1453 64.5609 32.7732C65.0145 33.2668 65.1783 33.9554 65.1292 34.6057C65.0919 35.5405 64.5291 36.4447 63.6832 36.8848C62.6529 37.4291 61.4403 37.5034 60.2946 37.4171C59.262 37.3254 58.1737 37.018 57.4588 36.2394C56.833 35.5705 56.6079 34.6319 56.6647 33.7441C57.0091 33.743 57.354 33.7435 57.6984 33.7441C57.6862 34.3234 57.7898 34.9278 58.1336 35.4122C58.5254 36.0008 59.2097 36.3333 59.8962 36.4692C60.8998 36.668 62.0014 36.6789 62.9265 36.194C63.443 35.9249 63.9089 35.4799 64.0499 34.9071C64.1479 34.4774 64.1245 33.993 63.8654 33.6196C63.6314 33.2625 63.2602 33.0179 62.8719 32.8459C62.3085 32.6023 61.7011 32.4893 61.1082 32.3419C60.5047 32.1945 59.8995 32.0558 59.2977 31.9029C58.8057 31.7576 58.2997 31.6009 57.8918 31.2826C57.4092 30.9146 57.0877 30.3489 57.0342 29.751C56.9495 28.9287 57.1874 28.0463 57.7848 27.4441Z" fill="white"/>
<path d="M0.976562 26.6215C1.3215 26.621 1.66643 26.621 2.01081 26.6215C2.01136 29.873 2.0108 33.1246 2.01136 36.3761C4.03471 36.3761 6.05806 36.3756 8.08141 36.3761C8.08141 36.6644 8.08141 36.9527 8.08141 37.241C5.71313 37.241 3.34484 37.241 0.976562 37.241C0.976562 33.7012 0.976562 30.1613 0.976562 26.6215Z" fill="white"/>
<path d="M9.125 26.6215C11.6198 26.621 14.1146 26.621 16.6093 26.6215C16.6099 26.9087 16.6099 27.1965 16.6093 27.4842C14.4595 27.4848 12.3096 27.4848 10.1598 27.4842C10.1587 28.763 10.1598 30.0412 10.1592 31.32C12.1731 31.3205 14.1864 31.32 16.2003 31.3205C16.2003 31.6078 16.2003 31.8955 16.2003 32.1838C14.187 32.1838 12.1731 32.1838 10.1598 32.1838C10.1592 33.5811 10.1592 34.9783 10.1598 36.3761C12.3353 36.3761 14.5108 36.3756 16.6862 36.3761C16.6862 36.6644 16.6862 36.9527 16.6862 37.241C14.1658 37.241 11.6454 37.241 9.125 37.241C9.125 33.7012 9.125 30.1613 9.125 26.6215Z" fill="white"/>
<path d="M21.3018 26.6211C21.6869 26.6211 22.0719 26.6211 22.457 26.6211C23.8735 30.1609 25.2906 33.7008 26.7071 37.2412C26.3371 37.2412 25.9671 37.2412 25.5971 37.2412C25.1568 36.1404 24.7166 35.0402 24.277 33.9399C22.6331 33.9394 20.9898 33.9399 19.3459 33.9394C18.9074 35.0402 18.4794 36.1453 18.0353 37.2439C17.672 37.2379 17.3086 37.2428 16.9453 37.2412C18.3975 33.7013 19.8491 30.1615 21.3018 26.6211ZM21.834 27.6367C21.1107 29.4489 20.388 31.2617 19.6658 33.0745C21.0856 33.0745 22.506 33.0745 23.9265 33.0739C23.2288 31.2617 22.5317 29.4489 21.834 27.6367Z" fill="white"/>
<path d="M27.6879 26.6206C28.6001 26.6201 29.5118 26.6201 30.424 26.6201C31.0748 26.6239 31.7302 26.596 32.3766 26.6932C33.3584 26.8237 34.3431 27.1825 35.058 27.8754C35.7601 28.5421 36.1324 29.4725 36.2929 30.4029C36.4545 31.3775 36.4572 32.3784 36.3096 33.3552C36.1602 34.3058 35.7986 35.2619 35.0914 35.9521C34.3882 36.651 33.4108 37.0212 32.4328 37.1588C31.7307 37.2691 31.0186 37.2352 30.3109 37.2401C29.4365 37.2401 28.5622 37.2407 27.6879 37.2401C27.6874 33.7003 27.6874 30.1605 27.6879 26.6206ZM28.7205 36.3753C29.1953 36.3747 29.6695 36.3753 30.1437 36.3753C31.2576 36.3834 32.4234 36.4009 33.4576 35.9352C34.1909 35.6141 34.7582 34.9829 35.0279 34.2452C35.3918 33.2608 35.4197 32.1911 35.3517 31.1569C35.2737 30.179 35.0101 29.1361 34.2511 28.4454C33.4961 27.7498 32.4245 27.5478 31.4242 27.4964C30.5237 27.4691 29.6221 27.4904 28.721 27.4833C28.7199 30.4477 28.7205 33.4115 28.7205 36.3753Z" fill="white"/>
<path d="M38.0863 37.2412C38.0857 33.7013 38.0857 30.1615 38.0869 26.6211C40.5811 26.6216 43.0759 26.6211 45.5706 26.6216C45.5706 26.9088 45.5706 27.1966 45.5706 27.4849C43.4197 27.4844 41.2693 27.4844 39.1189 27.4849C39.1189 28.7631 39.1189 30.0419 39.1189 31.3207C41.1328 31.3201 43.1461 31.3201 45.1594 31.3207C45.1599 31.6079 45.1594 31.8956 45.1599 32.1834C43.1461 32.1845 41.1328 32.1834 39.1189 32.1839C39.1189 33.5812 39.1189 34.9785 39.1189 36.3763C41.2944 36.3763 43.4698 36.3757 45.6453 36.3763C45.6453 36.6646 45.6459 36.9529 45.6453 37.2412C43.126 37.2417 40.6062 37.2412 38.0863 37.2412Z" fill="white"/>
<path d="M47.0859 26.6217C48.7772 26.6217 50.4678 26.62 52.1591 26.6222C53.0156 26.6419 53.9205 26.8559 54.5602 27.4456C55.0478 27.8977 55.3181 28.5464 55.3393 29.2C55.3889 30.0168 55.1398 30.8845 54.5313 31.4671C54.1713 31.816 53.687 32 53.2022 32.1114C53.6759 32.1851 54.1607 32.3385 54.4978 32.6901C54.9436 33.1302 55.0645 33.7696 55.1197 34.3637C55.1788 35.1603 55.1487 35.9755 55.3822 36.7498C55.4329 36.9273 55.5181 37.0927 55.6279 37.2423C55.2479 37.2401 54.8684 37.2412 54.4889 37.2418C54.2387 36.7651 54.266 36.2131 54.2131 35.6943C54.1484 34.9834 54.1618 34.2414 53.8665 33.5752C53.662 33.0997 53.2429 32.688 52.7169 32.5788C52.3892 32.5001 52.0504 32.5307 51.7177 32.5269C50.5186 32.5269 49.3194 32.5263 48.1207 32.5269C48.1196 34.0983 48.1207 35.6698 48.1202 37.2412C47.7753 37.2412 47.4303 37.2412 47.0859 37.2412C47.0859 33.7014 47.0859 30.1615 47.0859 26.6217ZM48.1202 27.4849C48.1202 28.8767 48.1202 30.2691 48.1207 31.6614C49.4286 31.6614 50.7364 31.6625 52.0448 31.6609C52.8021 31.6522 53.5895 31.3185 54.0008 30.6742C54.3373 30.1823 54.3674 29.5516 54.246 28.9876C54.1412 28.5065 53.847 28.0561 53.4095 27.8044C52.9832 27.5576 52.4773 27.4882 51.9902 27.4849C50.7002 27.4844 49.4102 27.4849 48.1202 27.4849Z" fill="white"/>
<path d="M66.7656 26.6215C67.11 26.621 67.4549 26.621 67.7999 26.6215C67.7999 28.158 67.7993 29.6945 67.7999 31.2315C69.9441 31.2315 72.0884 31.2315 74.2327 31.2315C74.2327 29.6945 74.2321 28.158 74.2327 26.6215C74.5771 26.621 74.922 26.621 75.2669 26.6215C75.2669 30.1613 75.2669 33.7012 75.2669 37.241C74.922 37.241 74.5771 37.241 74.2327 37.241C74.2321 35.5254 74.2327 33.8104 74.2327 32.0953C72.0884 32.0948 69.9441 32.0948 67.7999 32.0953C67.7993 33.8104 67.801 35.526 67.7993 37.2416C67.4544 37.2405 67.11 37.2416 66.7656 37.241C66.7656 33.7012 66.7656 30.1613 66.7656 26.6215Z" fill="white"/>
<path d="M77.5312 26.6218C77.8756 26.6207 78.2206 26.6212 78.5655 26.6212C78.566 30.1616 78.566 33.7015 78.5655 37.2413C78.2206 37.2413 77.8762 37.2413 77.5318 37.2419C77.5307 33.7015 77.5318 30.1616 77.5312 26.6218Z" fill="white"/>
<path d="M80.8285 37.2412C80.828 33.7013 80.828 30.1615 80.8285 26.6211C82.4367 26.6211 84.0444 26.6211 85.6526 26.6211C86.2745 26.6211 86.9097 26.7369 87.4558 27.0393C88.1724 27.4237 88.655 28.1538 88.7932 28.9351C89.0094 29.9567 88.7765 31.1323 87.9952 31.8787C87.3784 32.4679 86.4918 32.6939 85.6504 32.6906C84.3871 32.6906 83.1238 32.6901 81.8611 32.6906C81.8606 34.2075 81.8611 35.7243 81.8611 37.2412C81.5167 37.2412 81.1724 37.2412 80.8285 37.2412ZM81.8611 27.4849C81.8606 28.9318 81.8611 30.3783 81.8611 31.8252C83.0687 31.8252 84.2768 31.8263 85.4843 31.8252C86.1196 31.8197 86.7827 31.6428 87.2541 31.2066C87.6152 30.8735 87.7818 30.3859 87.8147 29.9109C87.8487 29.4129 87.7963 28.886 87.5327 28.4481C87.2597 27.9954 86.7649 27.7115 86.2555 27.5826C85.7496 27.4494 85.2218 27.4914 84.7047 27.4844C83.7569 27.4849 82.809 27.4844 81.8611 27.4849Z" fill="white"/>
<path d="M44.8543 38.919C45.6417 38.8191 46.4542 38.8529 47.2198 39.0675C48.1688 39.34 49.0303 39.9084 49.6316 40.6793C50.3014 41.5284 50.6653 42.5806 50.7817 43.6404C50.9066 44.8285 50.7594 46.0604 50.2557 47.1551C49.8634 48.0135 49.2253 48.7724 48.4045 49.2677C47.6099 49.7651 46.6637 49.9852 45.7275 50.0004H45.5732C44.4091 49.9791 43.2372 49.604 42.3534 48.8472C41.1721 47.8508 40.5987 46.3126 40.5262 44.816C40.441 43.2303 40.8645 41.5481 41.984 40.3594C42.7296 39.5693 43.7672 39.0571 44.8543 38.919ZM44.8332 39.5021C43.7482 39.6845 42.7624 40.3266 42.1372 41.2101C41.614 41.9417 41.3259 42.817 41.2256 43.6999C41.1225 44.6533 41.2144 45.6345 41.5521 46.5376C41.7962 47.1966 42.1824 47.8093 42.7028 48.293C43.3253 48.8696 44.1271 49.2671 44.9792 49.378C45.7649 49.4795 46.5857 49.4233 47.3246 49.1295C47.8696 48.9073 48.3678 48.5753 48.7762 48.1576C49.4622 47.4582 49.8751 46.5354 50.0501 45.5886C50.2646 44.3824 50.1571 43.1042 49.6472 41.98C49.2632 41.1298 48.6085 40.3921 47.7748 39.9417C46.8922 39.4443 45.8251 39.341 44.8332 39.5021Z" fill="white"/>
<path d="M0.844168 39.1176C1.12279 39.1171 1.40141 39.1176 1.68003 39.1176C2.96893 40.9506 4.25672 42.7841 5.54507 44.6171C6.54922 46.034 7.53108 47.4668 8.54916 48.8739C8.55864 45.6218 8.54972 42.3697 8.55306 39.1176C8.77652 39.1171 8.99997 39.1171 9.22343 39.1176C9.22343 42.6569 9.22343 46.1962 9.22343 49.7355C8.95929 49.736 8.69572 49.7355 8.43214 49.736C6.12404 46.4577 3.83266 43.1685 1.5162 39.8973C1.50784 43.1767 1.51509 46.4561 1.5123 49.7355C1.2894 49.7355 1.06707 49.7355 0.844168 49.7355C0.843611 46.1962 0.843611 42.6569 0.844168 39.1176Z" fill="white"/>
<path d="M11.1328 39.1177C16.4706 39.1172 21.8085 39.1177 27.1463 39.1177C28.0942 42.4315 29.0259 45.7502 29.9827 49.0618C30.959 45.7513 31.9024 42.4315 32.867 39.1177C33.1456 39.1177 33.4242 39.1172 33.7034 39.1177C34.6819 42.4315 35.642 45.7502 36.6317 49.0607C37.5757 45.7502 38.4895 42.431 39.4235 39.1172C39.6614 39.1177 39.8999 39.1172 40.1384 39.1177C39.1014 42.6576 38.0649 46.1969 37.0268 49.7362C36.7732 49.7356 36.5197 49.7356 36.2667 49.7362C35.267 46.3787 34.2879 43.0147 33.2771 39.661C32.2818 43.0147 31.3178 46.3787 30.3337 49.7362C30.0852 49.7356 29.8367 49.7362 29.5881 49.7362C28.6013 46.3858 27.6149 43.0349 26.6286 39.6845C25.3598 39.684 24.0915 39.684 22.8227 39.6845C22.8227 43.0349 22.8232 46.3853 22.8227 49.7362C22.5998 49.7356 22.3769 49.7356 22.154 49.7356C22.154 46.3852 22.154 43.0349 22.154 39.6845C18.7041 39.684 15.2536 39.684 11.8032 39.6845C11.8032 41.1009 11.8032 42.5178 11.8032 43.9342C13.8772 43.9347 15.9513 43.9342 18.0253 43.9347C18.0253 44.1236 18.0253 44.3131 18.0248 44.5026C15.9513 44.5031 13.8772 44.5026 11.8032 44.5031C11.8032 46.0582 11.8032 47.6138 11.8032 49.1694C14.0338 49.1699 16.2645 49.1694 18.4951 49.1694C18.4951 49.3583 18.4951 49.5467 18.4951 49.7362C16.041 49.7362 13.5869 49.7362 11.1328 49.7356C11.1328 46.1963 11.1328 42.657 11.1328 39.1177Z" fill="white"/>
<path d="M52.2426 39.1175C53.7906 39.1175 55.3386 39.1165 56.8872 39.1181C57.4857 39.1317 58.0948 39.2065 58.6526 39.4299C59.1101 39.6144 59.5286 39.9142 59.7955 40.3275C60.1733 40.8888 60.2379 41.5932 60.1744 42.2468C60.0969 43.0249 59.6595 43.7718 58.9758 44.1852C58.6331 44.4008 58.2369 44.5078 57.8435 44.5925C58.3255 44.6651 58.8287 44.7809 59.2042 45.1068C59.6077 45.4257 59.8272 45.9128 59.9259 46.4014C60.0557 47.1004 60.0228 47.814 60.0329 48.5216C60.054 48.9383 60.0936 49.3827 60.3421 49.7371C60.0942 49.7349 59.8467 49.7354 59.5999 49.7365C59.367 49.3352 59.3569 48.8634 59.3514 48.4152C59.338 47.8151 59.3558 47.2123 59.2806 46.6155C59.2109 46.129 58.9886 45.6376 58.569 45.3482C58.0903 44.9927 57.4701 44.9152 56.8872 44.9048C55.5621 44.9021 54.2364 44.9043 52.9113 44.9037C52.9102 46.5145 52.9119 48.1252 52.9107 49.736C52.6873 49.7354 52.4649 49.736 52.2426 49.7354C52.242 46.1961 52.242 42.6568 52.2426 39.1175ZM52.9107 39.6843C52.9113 41.235 52.9107 42.7863 52.9113 44.3369C54.1066 44.3375 55.3024 44.3369 56.4983 44.3369C56.9474 44.3451 57.4021 44.3233 57.8368 44.2026C58.3489 44.071 58.8275 43.7762 59.1218 43.3383C59.489 42.8146 59.577 42.1485 59.5024 41.5293C59.4377 40.9882 59.1251 40.4848 58.6698 40.1735C58.1533 39.817 57.5069 39.7056 56.8872 39.6854C55.5615 39.6821 54.2364 39.6849 52.9107 39.6843Z" fill="white"/>
<path d="M61.8129 39.1176C62.0358 39.1171 62.2593 39.1171 62.4827 39.1176C62.4833 41.1542 62.4827 43.1904 62.4833 45.227C64.7524 43.1909 67.0237 41.157 69.2911 39.1192C69.5814 39.116 69.8723 39.1181 70.1632 39.1176C68.5143 40.5902 66.8643 42.0623 65.2154 43.5349C66.9657 45.6016 68.7166 47.6683 70.4663 49.7355C70.1866 49.7355 69.9074 49.736 69.6282 49.7355C67.9955 47.8173 66.3617 45.9008 64.7284 43.9826C63.9795 44.6493 63.2339 45.3204 62.4844 45.9865C62.4816 47.2364 62.4838 48.4862 62.4827 49.7355C62.2593 49.7355 62.0358 49.7355 61.8129 49.736C61.8124 46.1962 61.8124 42.6569 61.8129 39.1176Z" fill="white"/>
</svg>
