<svg width="128" height="49" viewBox="0 0 128 49" fill="none" xmlns="http://www.w3.org/2000/svg">
<path d="M7.76674 7.45459V9.82888C9.5374 9.82888 10.5837 10.4325 10.5837 11.338C10.5837 12.2434 9.55752 12.847 8.1088 12.847C5.49306 12.847 3.86325 10.8752 3.86325 7.89725C3.86325 5.01993 5.41258 3.06819 7.94783 3.06819C9.73861 3.06819 10.966 4.05412 10.7648 6.00587H13.7427C14.0445 2.52492 11.5093 0.613413 7.98808 0.613413C3.60168 0.613413 0.865207 3.57122 0.865207 7.89725C0.865207 12.344 3.7224 15.3018 8.14905 15.3018C11.3885 15.3018 13.5817 13.7525 13.5817 11.8209C13.5817 10.9355 13.119 10.2514 12.3544 9.82888H14.9097V7.45459H7.76674ZM19.2273 15V0.915229H16.5109V15H19.2273ZM26.1129 15.3018C29.2921 15.3018 31.4048 13.169 31.4048 9.96973C31.4048 6.77047 29.2921 4.63763 26.1129 4.63763C22.9338 4.63763 20.8211 6.77047 20.8211 9.96973C20.8211 13.169 22.9338 15.3018 26.1129 15.3018ZM26.1129 12.9476C24.6441 12.9476 23.6582 11.7605 23.6582 9.96973C23.6582 8.15883 24.6441 6.9918 26.1129 6.9918C27.5818 6.9918 28.5677 8.15883 28.5677 9.96973C28.5677 11.7605 27.5818 12.9476 26.1129 12.9476ZM39.0533 4.63763C37.5442 4.63763 36.3571 5.30163 35.6126 6.46865V0.915229H32.8963V15H35.6126V13.4909C36.3571 14.6378 37.5241 15.3018 39.0131 15.3018C41.7093 15.3018 43.6409 13.169 43.6409 9.96973C43.6409 6.77047 41.7294 4.63763 39.0533 4.63763ZM38.2082 12.9476C36.6388 12.9476 35.6126 11.7605 35.6126 9.96973C35.6126 8.17895 36.6388 6.9918 38.2082 6.9918C39.7576 6.9918 40.824 8.15883 40.824 9.96973C40.824 11.7605 39.7777 12.9476 38.2082 12.9476ZM49.5061 4.63763C46.8501 4.63763 44.7776 6.04611 45.3008 8.36004H48.0372C47.8561 7.45459 48.4598 6.95156 49.486 6.95156C50.9146 6.95156 51.3975 7.91737 51.4176 9.24537C50.7536 9.10452 49.989 9.02403 49.2244 9.02403C46.3873 9.02403 44.5965 10.2514 44.5965 12.2837C44.5965 14.0141 45.8843 15.3018 48.0775 15.3018C49.7274 15.3018 50.9548 14.5775 51.6993 13.2696V15H54.1541V9.30573C54.1541 6.46865 52.5846 4.63763 49.5061 4.63763ZM48.7012 13.2293C47.8561 13.2293 47.333 12.8672 47.333 12.1629C47.333 11.3983 47.9769 10.8953 49.486 10.8953C50.0896 10.8953 50.8542 10.9959 51.4981 11.1971C51.0353 12.4245 49.989 13.2293 48.7012 13.2293ZM58.7621 15V0.915229H56.0458V15H58.7621ZM65.0507 0.915229V3.28952H69.8194V15H72.737V3.28952H77.5057V0.915229H65.0507ZM82.1301 4.63763C80.8222 4.63763 79.8363 5.38211 79.3131 6.64974V4.93945H76.5968V15H79.3131V10.0502C79.3131 8.19907 80.0375 7.01192 81.0234 7.01192C81.6874 7.01192 82.11 7.51495 82.11 8.29967C82.11 8.84294 81.9087 9.42646 81.5264 10.0703H84.3635C84.7056 9.38621 84.9068 8.56125 84.9068 7.7564C84.9068 5.88514 83.8203 4.63763 82.1301 4.63763ZM93.0695 11.7404C92.7476 12.5251 92.0031 12.9476 90.997 12.9476C89.5483 12.9476 88.7234 12.0824 88.5221 10.6337H95.5847C96.6511 7.3741 94.6188 4.63763 90.9568 4.63763C87.7575 4.63763 85.6448 6.77047 85.6448 9.96973C85.6448 13.169 87.7173 15.3018 90.9568 15.3018C93.5725 15.3018 95.4438 13.9135 96.0474 11.7404H93.0695ZM90.9367 6.91132C92.3653 6.91132 93.0695 7.71616 92.9488 8.92343H88.5624C88.824 7.61556 89.6489 6.91132 90.9367 6.91132ZM101.931 4.63763C99.275 4.63763 97.2025 6.04611 97.7257 8.36004H100.462C100.281 7.45459 100.885 6.95156 101.911 6.95156C103.339 6.95156 103.822 7.91737 103.842 9.24537C103.178 9.10452 102.414 9.02403 101.649 9.02403C98.8122 9.02403 97.0214 10.2514 97.0214 12.2837C97.0214 14.0141 98.3092 15.3018 100.502 15.3018C102.152 15.3018 103.38 14.5775 104.124 13.2696V15H106.579V9.30573C106.579 6.46865 105.01 4.63763 101.931 4.63763ZM101.126 13.2293C100.281 13.2293 99.7579 12.8672 99.7579 12.1629C99.7579 11.3983 100.402 10.8953 101.911 10.8953C102.514 10.8953 103.279 10.9959 103.923 11.1971C103.46 12.4245 102.414 13.2293 101.126 13.2293ZM115.015 4.93945H112.137V2.20298H109.401V4.93945H107.409V7.2735H109.401V11.68C109.401 12.9678 109.642 15.3018 112.842 15.3018C113.667 15.3018 114.331 15.1408 114.814 14.8793V12.505C114.31 12.7867 113.928 12.9476 113.365 12.9476C112.339 12.9476 112.137 12.3843 112.137 11.6599V7.2735H115.015V4.93945ZM120.734 12.2434L118.34 4.93945H115.442L119.527 15.5433C119.205 16.2475 118.642 16.9719 117.495 16.9719C117.092 16.9719 116.629 16.8713 116.106 16.6902V19.0041C116.67 19.2254 117.273 19.3059 117.796 19.3059C120.734 19.3059 121.7 16.9719 122.122 15.7445L125.785 4.93945H122.927L120.734 12.2434ZM1.5292 16.9152V31H7.22348C11.3684 31 14.1049 28.1629 14.1049 23.9375C14.1049 19.7121 11.3282 16.9152 7.20335 16.9152H1.5292ZM4.42664 28.6257V19.2895H7.20335C9.63801 19.2895 11.127 21.1407 11.127 23.9174C11.127 26.8349 9.47704 28.6257 7.20335 28.6257H4.42664ZM17.2111 19.6517C18.1367 19.6517 18.8409 18.9475 18.8409 18.0219C18.8409 17.0963 18.1367 16.3921 17.2111 16.3921C16.2855 16.3921 15.5813 17.0963 15.5813 18.0219C15.5813 18.9475 16.2855 19.6517 17.2111 19.6517ZM18.5592 31V20.9395H15.8227V31H18.5592ZM25.0424 20.6376C22.3865 20.6376 20.314 22.0461 20.8371 24.36H23.5736C23.3925 23.4546 23.9961 22.9516 25.0223 22.9516C26.4509 22.9516 26.9338 23.9174 26.9539 25.2454C26.2899 25.1045 25.5253 25.024 24.7607 25.024C21.9237 25.024 20.1329 26.2514 20.1329 28.2837C20.1329 30.0141 21.4206 31.3018 23.6138 31.3018C25.2638 31.3018 26.4912 30.5775 27.2356 29.2696V31H29.6904V25.3057C29.6904 22.4687 28.121 20.6376 25.0424 20.6376ZM24.2376 29.2293C23.3925 29.2293 22.8694 28.8672 22.8694 28.1629C22.8694 27.3983 23.5132 26.8953 25.0223 26.8953C25.6259 26.8953 26.3906 26.9959 27.0344 27.1971C26.5716 28.4245 25.5253 29.2293 24.2376 29.2293ZM34.2985 31V16.9152H31.5821V31H34.2985ZM41.1841 31.3018C44.3632 31.3018 46.476 29.169 46.476 25.9697C46.476 22.7705 44.3632 20.6376 41.1841 20.6376C38.005 20.6376 35.8923 22.7705 35.8923 25.9697C35.8923 29.169 38.005 31.3018 41.1841 31.3018ZM41.1841 28.9476C39.7153 28.9476 38.7293 27.7605 38.7293 25.9697C38.7293 24.1588 39.7153 22.9918 41.1841 22.9918C42.653 22.9918 43.6389 24.1588 43.6389 25.9697C43.6389 27.7605 42.653 28.9476 41.1841 28.9476ZM53.9434 28.7464C55.875 27.6599 56.9415 26.0502 56.9415 24.4003C56.9415 23.8973 56.8408 23.4345 56.6598 23.0119C57.4847 22.2071 57.9073 20.859 57.6859 19.6919H55.6537C55.8147 20.3761 55.8952 21.1407 55.7141 21.7443C54.9092 21.0401 53.7221 20.6376 52.2734 20.6376C49.4564 20.6376 47.5851 22.1668 47.5851 24.4003C47.5851 26.513 49.2552 27.8611 51.71 27.8611C52.1929 27.8611 52.6355 27.8007 53.038 27.7001C52.1526 28.3239 50.885 28.7867 49.1948 28.9879V30.7787C50.1204 30.5372 51.2069 30.3762 52.0923 30.3762C53.702 30.3762 54.4666 30.9396 54.4666 31.7244C54.4666 32.5292 53.6013 32.9719 52.4746 32.9719C51.3277 32.9719 50.5429 32.5292 50.3619 31.7445H47.3236C47.7461 33.9578 49.8186 35.326 52.4947 35.326C55.211 35.326 57.3238 33.9377 57.3238 31.8652C57.3238 30.1952 55.9958 29.0483 53.9434 28.7464ZM50.4222 24.4405C50.4222 23.5753 51.1667 22.9918 52.2734 22.9918C53.38 22.9918 54.1044 23.5753 54.1044 24.4405C54.1044 25.3057 53.38 25.8892 52.2734 25.8892C51.1667 25.8892 50.4222 25.3057 50.4222 24.4405ZM65.3481 26.01C65.3481 27.7605 64.5031 28.9678 63.1751 28.9678C61.9276 28.9678 61.6257 27.841 61.6257 26.5935V20.9395H58.8893V26.5935C58.8893 28.3641 59.3118 31.2415 62.1288 31.2415C63.5171 31.2415 64.664 30.5573 65.3481 29.3501V31H68.0846V20.9395H65.3481V26.01ZM76.9962 27.7404C76.6743 28.5251 75.9298 28.9476 74.9237 28.9476C73.475 28.9476 72.6501 28.0824 72.4488 26.6337H79.5114C80.5778 23.3741 78.5455 20.6376 74.8835 20.6376C71.6842 20.6376 69.5715 22.7705 69.5715 25.9697C69.5715 29.169 71.644 31.3018 74.8835 31.3018C77.4992 31.3018 79.3705 29.9135 79.9741 27.7404H76.9962ZM74.8634 22.9113C76.292 22.9113 76.9962 23.7162 76.8755 24.9234H72.4891C72.7507 23.6156 73.5756 22.9113 74.8634 22.9113ZM85.6953 31.3018C88.4116 31.3018 90.3231 30.0744 90.3231 27.9818C90.3231 24.1387 83.9448 25.5874 83.9448 23.8168C83.9448 23.2534 84.5484 22.7906 85.5746 22.7906C86.8019 22.7906 87.5665 23.4546 87.3251 24.4405H89.9811C90.3835 22.0662 88.3312 20.6376 85.5746 20.6376C83.0192 20.6376 81.1278 21.8851 81.1278 23.9576C81.1278 27.7806 87.5062 26.4325 87.5062 28.1428C87.5062 28.7464 86.7617 29.1489 85.6953 29.1489C84.3673 29.1489 83.5826 28.5251 83.6429 27.519H81.0071C80.9266 29.8531 82.7777 31.3018 85.6953 31.3018Z" fill="#212020"/>
<path d="M6.75326 42.1427L6.48211 43.4749H7.96758V44.6657H6.25811L5.81011 47H4.54863L4.99663 44.6657H3.87663L3.44042 47H2.20253L2.62695 44.6657H1.25937V43.4749H2.85095L3.12211 42.1427H1.672V40.9402H3.33432L3.78232 38.5941H5.04379L4.59579 40.9402H5.73937L6.18737 38.5941H7.42526L6.97726 40.9402H8.35663V42.1427H6.75326ZM4.10063 43.4749H5.23242L5.50358 42.1427H4.37179L4.10063 43.4749ZM15.3653 38.7474H9.51771V47H11.2154V43.6754H14.7404V42.2842H11.2154V40.1385H15.3653V38.7474ZM18.8101 47.1768C20.6729 47.1768 21.9107 45.9272 21.9107 44.0526C21.9107 42.1781 20.6729 40.9284 18.8101 40.9284C16.9474 40.9284 15.7095 42.1781 15.7095 44.0526C15.7095 45.9272 16.9474 47.1768 18.8101 47.1768ZM18.8101 45.7975C17.9495 45.7975 17.3718 45.1019 17.3718 44.0526C17.3718 42.9916 17.9495 42.3078 18.8101 42.3078C19.6707 42.3078 20.2484 42.9916 20.2484 44.0526C20.2484 45.1019 19.6707 45.7975 18.8101 45.7975ZM26.0268 40.9284C25.2604 40.9284 24.6828 41.3646 24.3762 42.1074V41.1053H22.7846V47H24.3762V44.0998C24.3762 43.0152 24.8006 42.3196 25.3783 42.3196C25.7674 42.3196 26.015 42.6143 26.015 43.0741C26.015 43.3924 25.8971 43.7343 25.6731 44.1116H27.3354C27.5358 43.7107 27.6537 43.2274 27.6537 42.7558C27.6537 41.6594 27.0171 40.9284 26.0268 40.9284ZM31.5194 38.7474V47H33.217V43.9465H35.3038C37.1547 43.9465 38.2276 42.9562 38.2276 41.3175C38.2276 39.6669 37.1547 38.7474 35.3038 38.7474H31.5194ZM33.217 42.5554V40.1385H35.3038C36.0583 40.1385 36.4709 40.5512 36.4709 41.3293C36.4709 42.1192 36.0583 42.5554 35.3038 42.5554H33.217ZM40.7148 47V38.7474H39.1232V47H40.7148ZM44.5135 40.9284C42.9573 40.9284 41.7429 41.7537 42.0495 43.1095H43.6528C43.5467 42.5789 43.9004 42.2842 44.5017 42.2842C45.3387 42.2842 45.6217 42.8501 45.6335 43.6282C45.2444 43.5457 44.7964 43.4985 44.3484 43.4985C42.6861 43.4985 41.6368 44.2177 41.6368 45.4084C41.6368 46.4223 42.3914 47.1768 43.6764 47.1768C44.6432 47.1768 45.3623 46.7524 45.7985 45.9861V47H47.2368V43.6636C47.2368 42.0013 46.3173 40.9284 44.5135 40.9284ZM44.0419 45.9625C43.5467 45.9625 43.2402 45.7503 43.2402 45.3377C43.2402 44.8897 43.6175 44.5949 44.5017 44.5949C44.8554 44.5949 45.3034 44.6539 45.6806 44.7718C45.4095 45.4909 44.7964 45.9625 44.0419 45.9625ZM50.7621 47.1768C52.3537 47.1768 53.4737 46.4577 53.4737 45.2316C53.4737 42.9798 49.7364 43.8286 49.7364 42.7912C49.7364 42.4611 50.0901 42.1899 50.6913 42.1899C51.4105 42.1899 51.8585 42.5789 51.717 43.1566H53.2732C53.509 41.7655 52.3065 40.9284 50.6913 40.9284C49.1941 40.9284 48.0859 41.6594 48.0859 42.8737C48.0859 45.1137 51.8231 44.3238 51.8231 45.3259C51.8231 45.6796 51.3869 45.9154 50.7621 45.9154C49.984 45.9154 49.5242 45.5499 49.5596 44.9604H48.0151C47.968 46.328 49.0526 47.1768 50.7621 47.1768ZM58.2931 41.1053H56.6072V39.5019H55.0038V41.1053H53.8366V42.4728H55.0038V45.0547C55.0038 45.8093 55.1453 47.1768 57.0198 47.1768C57.5032 47.1768 57.8922 47.0825 58.1752 46.9293V45.5381C57.8804 45.7032 57.6564 45.7975 57.3263 45.7975C56.7251 45.7975 56.6072 45.4674 56.6072 45.0429V42.4728H58.2931V41.1053ZM59.9348 40.3507C60.4771 40.3507 60.8897 39.9381 60.8897 39.3958C60.8897 38.8535 60.4771 38.4408 59.9348 38.4408C59.3924 38.4408 58.9798 38.8535 58.9798 39.3958C58.9798 39.9381 59.3924 40.3507 59.9348 40.3507ZM60.7246 47V41.1053H59.1213V47H60.7246ZM64.7591 47.1768C66.4097 47.1768 67.4589 46.2101 67.7772 44.9133H66.0324C65.8084 45.4556 65.384 45.7975 64.7827 45.7975C63.9103 45.7975 63.3208 45.1137 63.3208 44.0408C63.3208 42.9798 63.8867 42.3078 64.7945 42.3078C65.6787 42.3078 66.1267 42.9444 65.9027 44.0526H67.4825C68.0012 42.1781 66.7044 40.9284 64.7945 40.9284C62.8846 40.9284 61.6585 42.1663 61.6585 44.0526C61.6585 45.9272 62.8964 47.1768 64.7591 47.1768ZM71.0943 47.1768C72.6859 47.1768 73.8059 46.4577 73.8059 45.2316C73.8059 42.9798 70.0686 43.8286 70.0686 42.7912C70.0686 42.4611 70.4223 42.1899 71.0236 42.1899C71.7427 42.1899 72.1907 42.5789 72.0493 43.1566H73.6055C73.8413 41.7655 72.6387 40.9284 71.0236 40.9284C69.5263 40.9284 68.4181 41.6594 68.4181 42.8737C68.4181 45.1137 72.1554 44.3238 72.1554 45.3259C72.1554 45.6796 71.7192 45.9154 71.0943 45.9154C70.3162 45.9154 69.8564 45.5499 69.8918 44.9604H68.3474C68.3002 46.328 69.3848 47.1768 71.0943 47.1768Z" fill="#212020"/>
</svg>
