<svg width="46" height="44" viewBox="0 0 46 44" fill="none" xmlns="http://www.w3.org/2000/svg">
<path d="M3.12476 37.4602C6.00666 41.7913 13.0052 44.7911 22.5679 43.8151C32.1306 42.8391 44.2476 37.7759 45.6231 26.6127C46.9986 15.4495 44.9681 6.72625 33.506 2.39515C22.0439 -1.93595 10.9038 -0.613303 4.15755 8.17089C-2.58872 16.9551 0.242871 33.1291 3.12476 37.4602Z" fill="#F9B131"/>
<path d="M13.3332 16.4095C13 17.6495 13 19.3601 13 22C13 25.7497 13 27.6246 13.9549 28.9389C14.2633 29.3634 14.6366 29.7367 15.0611 30.0451C16.3754 31 18.2503 31 22 31H24C27.7497 31 29.6246 31 30.9389 30.0451C31.3634 29.7367 31.7367 29.3634 32.0451 28.9389C33 27.6246 33 25.7497 33 22C33 19.3513 33 17.6381 32.6634 16.3971L30.5607 18.4999C28.9284 20.1321 27.6492 21.4113 26.517 22.2752C25.3581 23.1594 24.2653 23.6789 22.9999 23.6789C21.7344 23.6789 20.6417 23.1594 19.4827 22.2752C18.3505 21.4113 17.0713 20.1321 15.439 18.4998L13.4839 16.5447L13.3332 16.4095Z" fill="#212020"/>
<path d="M14 15L14.1088 15.0901L14.5159 15.4554L16.4591 17.3986C18.1408 19.0803 19.3498 20.287 20.3926 21.0827C21.4181 21.8651 22.1942 22.1789 22.9999 22.1789C23.8055 22.1789 24.5816 21.8651 25.6071 21.0827C26.6499 20.287 27.8589 19.0803 29.5406 17.3986L31.8485 15.0907L31.9741 14.9658C31.6657 14.5413 31.3634 14.2633 30.9389 13.9549C29.6246 13 27.7497 13 24 13H22C18.2503 13 16.3754 13 15.0611 13.9549C14.6366 14.2633 14.3084 14.5755 14 15Z" fill="#212020"/>
</svg>
