<svg width="38" height="36" viewBox="0 0 38 36" fill="none" xmlns="http://www.w3.org/2000/svg">
<path d="M2.7547 30.3161C5.08699 33.8212 10.7508 36.2489 18.4898 35.459C26.2288 34.6691 36.035 30.5716 37.1481 21.5373C38.2612 12.503 36.618 5.44343 27.3419 1.93832C18.0658 -1.56678 9.05019 -0.496382 3.59052 6.61256C-1.86915 13.7215 0.422417 26.811 2.7547 30.3161Z" fill="#212020"/>
<g clip-path="url(#clip0_889_36073)">
<path d="M24.3203 22.6667V10.6667C24.3203 10.4899 24.2501 10.3203 24.1251 10.1953C24 10.0702 23.8305 10 23.6536 10C23.4768 10 23.3073 10.0702 23.1822 10.1953C23.0572 10.3203 22.987 10.4899 22.987 10.6667C22.987 12.6327 21.265 13.3333 19.6536 13.3333H14.987C14.2797 13.3333 13.6015 13.6143 13.1014 14.1144C12.6013 14.6145 12.3203 15.2928 12.3203 16V17.3333C12.3203 18.0406 12.6013 18.7189 13.1014 19.219C13.6015 19.719 14.2797 20 14.987 20H19.6536C21.265 20 22.987 20.7007 22.987 22.6667C22.987 22.8435 23.0572 23.013 23.1822 23.1381C23.3073 23.2631 23.4768 23.3333 23.6536 23.3333C23.8305 23.3333 24 23.2631 24.1251 23.1381C24.2501 23.013 24.3203 22.8435 24.3203 22.6667ZM17.7776 21.3333H14.987C14.6766 21.3321 14.3674 21.2947 14.0656 21.222L15.7323 24.9433C15.8723 25.2579 16.1004 25.5251 16.3891 25.7126C16.6778 25.9001 17.0147 26 17.359 26C17.6329 25.9996 17.9023 25.9307 18.1428 25.7996C18.3832 25.6684 18.587 25.4791 18.7356 25.249C18.8842 25.0189 18.9728 24.7553 18.9935 24.4822C19.0141 24.2091 18.966 23.9351 18.8536 23.6853L17.7776 21.3333Z" fill="white"/>
</g>
<defs>
<clipPath id="clip0_889_36073">
<rect width="16" height="16" fill="white" transform="translate(10.3203 10)"/>
</clipPath>
</defs>
</svg>
