<svg width="1440" height="600" viewBox="0 0 1440 600" fill="none" xmlns="http://www.w3.org/2000/svg">
<g opacity="0.2">
<path opacity="0.1" d="M1662.61 -1755.96C2639.33 -2025.5 2738.75 -1027.03 2443.83 -306.467C2292.15 113.95 2763.85 390.044 2575.6 910.859C2387.35 1431.67 1794.38 807.325 1490.05 1604.23C1185.71 2401.14 -175.933 2012.1 -191.62 1315.59C-207.307 619.077 -436.341 810.461 -960.293 113.95C-1484.25 -582.562 -756.359 -1755.96 12.3135 -1464.18C780.986 -1172.4 605.289 -1464.18 1662.61 -1755.96Z" stroke="url(#paint0_linear_1039_82758)"/>
<path opacity="0.15" d="M1598.25 -1619.74C2494.64 -1867.61 2598.66 -946.662 2324.73 -280.955C2181.52 110.993 2613.92 371.917 2440.41 851.946C2263.02 1342.68 1720.64 768.741 1436.54 1500.92C1150.83 2234.78 -110.708 1885.59 -124.969 1230.8C-139.231 579.844 -356.07 759.144 -836.213 112.651C-1316.36 -533.842 -648.134 -1615.66 67.7905 -1350.4C773.017 -1085.14 622.971 -1349.78 1598.25 -1619.74Z" stroke="url(#paint1_linear_1039_82758)"/>
<path opacity="0.2" d="M1533.89 -1483.41C2349.94 -1709.59 2458.57 -866.179 2205.63 -255.329C2070.87 108.15 2463.99 353.904 2305.21 793.146C2138.68 1253.81 1646.89 730.271 1383.03 1397.73C1115.94 2068.53 -45.4955 1759.19 -58.3304 1146.12C-71.1656 540.724 -275.811 707.941 -712.145 111.466C-1148.48 -485.009 -539.921 -1475.23 123.255 -1236.5C765.036 -997.773 640.642 -1235.26 1533.89 -1483.41Z" stroke="url(#paint2_linear_1039_82758)"/>
<path opacity="0.25" d="M1469.52 -1347.18C2205.24 -1551.69 2318.47 -785.8 2086.52 -229.808C1960.21 105.202 2314.05 335.786 2170.01 734.241C2014.33 1164.83 1573.14 691.696 1329.51 1294.43C1081.05 1902.18 19.7147 1632.69 8.3058 1061.34C-3.10311 501.5 -195.555 656.633 -588.079 110.176C-980.603 -436.281 -431.71 -1334.92 178.718 -1122.71C757.052 -910.507 658.31 -1120.85 1469.52 -1347.18Z" stroke="url(#paint3_linear_1039_82758)"/>
<path opacity="0.3" d="M1405.16 -1210.95C2060.54 -1393.79 2178.38 -705.427 1967.41 -204.293C1849.56 102.248 2164.12 317.662 2034.82 675.33C1889.99 1075.84 1499.39 653.116 1276 1191.12C1046.16 1735.82 84.9276 1506.18 74.9448 976.556C64.9622 462.269 -115.296 605.319 -464.011 108.88C-812.725 -387.559 -323.497 -1194.61 234.183 -1008.93C749.072 -823.248 675.98 -1006.44 1405.16 -1210.95Z" stroke="url(#paint4_linear_1039_82758)"/>
<path opacity="0.35" d="M1337.53 -1074.69C1912.57 -1235.84 2035.01 -625.011 1845.04 -178.734C1735.65 99.3381 2010.91 299.582 1896.35 616.463C1762.38 986.895 1422.38 614.579 1219.22 1087.86C1008 1569.51 146.872 1379.72 138.315 891.813C129.758 423.083 -38.3054 554.048 -343.211 107.628C-648.116 -338.793 -218.553 -1054.25 286.38 -895.098C737.822 -735.945 690.382 -891.99 1337.53 -1074.69Z" stroke="url(#paint5_linear_1039_82758)"/>
<path opacity="0.4" d="M1266.04 -938.389C1760.75 -1077.87 1887.8 -544.565 1718.81 -153.146C1617.87 96.4573 1853.85 281.531 1754.03 557.626C1630.91 897.981 1341.5 576.071 1158.58 984.624C965.982 1403.22 204.959 1253.28 197.829 807.099C190.698 383.925 34.8281 502.807 -226.268 106.405C-487.364 -289.998 -117.465 -913.868 334.72 -781.24C722.716 -648.612 700.927 -777.509 1266.04 -938.389Z" stroke="url(#paint6_linear_1039_82758)"/>
<path opacity="0.45" d="M1194.33 -802.131C1608.7 -919.935 1740.36 -464.158 1592.36 -127.597C1499.88 93.5378 1696.58 263.442 1611.49 498.75C1499.23 809.028 1260.41 537.524 1097.72 881.351C923.75 1236.9 262.831 1126.81 257.127 722.347C251.422 344.73 107.746 451.528 -109.541 105.143C-326.827 -241.241 -16.5927 -773.523 382.844 -667.42C707.394 -561.318 711.257 -663.067 1194.33 -802.131Z" stroke="url(#paint7_linear_1039_82758)"/>
<path opacity="0.5" d="M1122.33 -665.875C1456.36 -762.004 1592.62 -383.754 1465.61 -102.05C1381.59 90.6159 1539 245.35 1468.65 439.871C1367.24 720.073 1179.02 498.976 1036.57 778.076C881.217 1070.57 320.403 1000.33 316.124 637.593C311.846 305.531 180.364 400.246 6.8862 103.879C-166.591 -192.487 83.9788 -633.18 430.667 -553.604C691.772 -474.027 721.286 -548.628 1122.33 -665.875Z" stroke="url(#paint8_linear_1039_82758)"/>
<path opacity="0.55" d="M1049.86 -529.578C1303.56 -604.031 1444.43 -303.308 1338.4 -76.4623C1262.84 87.7346 1380.96 227.298 1325.34 381.033C1234.8 631.159 1097.17 460.467 974.949 674.842C838.221 904.285 377.511 873.895 374.659 552.879C371.807 266.373 252.518 349.004 122.85 102.656C-6.81801 -143.692 184.088 -492.797 478.028 -439.746C675.687 -386.695 730.852 -434.148 1049.86 -529.578Z" stroke="url(#paint9_linear_1039_82758)"/>
<path opacity="0.6" d="M976.701 -393.269C1150.06 -446.045 1295.54 -222.851 1210.5 -50.8623C1143.39 84.8656 1222.23 209.259 1181.35 322.207C1101.66 542.256 1014.63 421.971 912.64 571.62C794.534 738.011 433.928 747.472 432.502 468.177C431.076 227.228 323.982 297.775 238.123 101.445C152.264 -94.8849 283.505 -352.401 524.698 -325.876C658.91 -299.35 739.727 -319.655 976.701 -393.269Z" stroke="url(#paint10_linear_1039_82758)"/>
<path opacity="0.65" d="M902.477 -256.93C995.504 -288.03 1145.58 -142.363 1081.53 -25.2323C1022.88 82.0268 1062.44 191.25 1036.29 263.412C967.456 453.384 931.019 383.506 849.266 468.428C749.783 571.768 489.281 621.079 489.281 383.506C489.281 188.113 394.38 246.577 352.331 100.264C310.281 -46.0476 381.858 -211.976 570.303 -211.976C641.069 -211.976 747.538 -205.133 902.477 -256.93Z" stroke="url(#paint11_linear_1039_82758)"/>
<path opacity="0.7" d="M855.268 -153.231C924.383 -176.336 1035.88 -68.1129 988.297 18.9095C944.723 98.5977 974.111 179.745 954.685 233.358C903.544 374.498 876.473 322.582 815.735 385.675C741.824 462.451 548.284 499.087 548.284 322.582C548.284 177.414 477.777 220.85 446.537 112.147C415.296 3.4448 468.474 -119.832 608.479 -119.832C661.055 -119.832 740.156 -114.748 855.268 -153.231Z" stroke="url(#paint12_linear_1039_82758)"/>
<path opacity="0.75" d="M814.127 -62.8406C862.402 -78.9792 940.281 -3.38805 907.044 57.3949C876.609 113.055 897.136 169.735 883.567 207.181C847.846 305.764 828.938 269.502 786.514 313.571C734.889 367.198 599.706 392.787 599.706 269.502C599.706 168.106 550.459 198.445 528.638 122.519C506.817 46.5932 543.961 -39.5122 641.751 -39.5122C678.474 -39.5122 733.724 -35.9612 814.127 -62.8406Z" stroke="url(#paint13_linear_1039_82758)"/>
<path opacity="0.8" d="M771.25 31.3367C797.804 22.4597 840.641 64.0387 822.36 97.4724C805.619 128.088 816.909 159.265 809.446 179.863C789.797 234.088 779.397 214.142 756.061 238.383C727.665 267.88 653.308 281.955 653.308 214.142C653.308 158.369 626.219 175.057 614.217 133.294C602.214 91.5309 622.645 44.1685 676.434 44.1685C696.634 44.1685 727.024 46.1217 771.25 31.3367Z" stroke="url(#paint14_linear_1039_82758)"/>
<path opacity="0.85" d="M740.856 98.0881C752.016 94.3573 770.019 111.832 762.336 125.883C755.3 138.75 760.045 151.853 756.908 160.51C748.651 183.299 744.28 174.916 734.472 185.104C722.538 197.501 691.288 203.416 691.288 174.916C691.288 151.477 679.903 158.49 674.859 140.938C669.814 123.386 678.401 103.481 701.007 103.481C709.497 103.481 722.269 104.302 740.856 98.0881Z" stroke="url(#paint15_linear_1039_82758)"/>
</g>
<defs>
<linearGradient id="paint0_linear_1039_82758" x1="1392.08" y1="524.571" x2="-1382.17" y2="-1643.03" gradientUnits="userSpaceOnUse">
<stop/>
<stop offset="1" stop-opacity="0"/>
</linearGradient>
<linearGradient id="paint1_linear_1039_82758" x1="-924.935" y1="-659.188" x2="281.317" y2="3429.32" gradientUnits="userSpaceOnUse">
<stop/>
<stop offset="1" stop-opacity="0"/>
</linearGradient>
<linearGradient id="paint2_linear_1039_82758" x1="2059.7" y1="222.618" x2="937.04" y2="-2250.14" gradientUnits="userSpaceOnUse">
<stop/>
<stop offset="1" stop-opacity="0"/>
</linearGradient>
<linearGradient id="paint3_linear_1039_82758" x1="643.889" y1="-2302.31" x2="-1021.4" y2="1222.2" gradientUnits="userSpaceOnUse">
<stop/>
<stop offset="1" stop-opacity="0"/>
</linearGradient>
<linearGradient id="paint4_linear_1039_82758" x1="-2226.6" y1="-500.573" x2="2698.2" y2="1572.48" gradientUnits="userSpaceOnUse">
<stop/>
<stop offset="1" stop-opacity="0"/>
</linearGradient>
<linearGradient id="paint5_linear_1039_82758" x1="1695.51" y1="1568.46" x2="-1078.89" y2="-298.405" gradientUnits="userSpaceOnUse">
<stop/>
<stop offset="1" stop-opacity="0"/>
</linearGradient>
<linearGradient id="paint6_linear_1039_82758" x1="1424.39" y1="-1225.46" x2="1789.51" y2="1910.91" gradientUnits="userSpaceOnUse">
<stop/>
<stop offset="1" stop-opacity="0"/>
</linearGradient>
<linearGradient id="paint7_linear_1039_82758" x1="522.476" y1="733.672" x2="-97.7067" y2="-873.273" gradientUnits="userSpaceOnUse">
<stop/>
<stop offset="1" stop-opacity="0"/>
</linearGradient>
<linearGradient id="paint8_linear_1039_82758" x1="935.884" y1="-77.0565" x2="1101.09" y2="1171.12" gradientUnits="userSpaceOnUse">
<stop/>
<stop offset="1" stop-opacity="0"/>
</linearGradient>
<linearGradient id="paint9_linear_1039_82758" x1="42.7468" y1="-30.9413" x2="1384.7" y2="710.856" gradientUnits="userSpaceOnUse">
<stop/>
<stop offset="1" stop-opacity="0"/>
</linearGradient>
<linearGradient id="paint10_linear_1039_82758" x1="1280.38" y1="342.992" x2="1.93182" y2="-227.84" gradientUnits="userSpaceOnUse">
<stop/>
<stop offset="1" stop-opacity="0"/>
</linearGradient>
<linearGradient id="paint11_linear_1039_82758" x1="877.87" y1="217.96" x2="320.812" y2="803.816" gradientUnits="userSpaceOnUse">
<stop/>
<stop offset="1" stop-opacity="0"/>
</linearGradient>
<linearGradient id="paint12_linear_1039_82758" x1="1569.1" y1="-477.132" x2="381.391" y2="482.441" gradientUnits="userSpaceOnUse">
<stop/>
<stop offset="1" stop-opacity="0"/>
</linearGradient>
<linearGradient id="paint13_linear_1039_82758" x1="870.54" y1="158.275" x2="478.863" y2="-138.058" gradientUnits="userSpaceOnUse">
<stop/>
<stop offset="1" stop-opacity="0"/>
</linearGradient>
<linearGradient id="paint14_linear_1039_82758" x1="789.929" y1="42.0611" x2="666.931" y2="246.815" gradientUnits="userSpaceOnUse">
<stop/>
<stop offset="1" stop-color="#B3B2B0" stop-opacity="0"/>
</linearGradient>
<linearGradient id="paint15_linear_1039_82758" x1="1416.81" y1="275.667" x2="462.262" y2="-6.80974" gradientUnits="userSpaceOnUse">
<stop/>
<stop offset="1" stop-opacity="0"/>
</linearGradient>
</defs>
</svg>
