<svg width="1352" height="800" viewBox="0 0 1352 800" fill="none" xmlns="http://www.w3.org/2000/svg">
<g opacity="0.2">
<path opacity="0.1" d="M-117.1 80.4012C-242.643 -269.477 119.883 -333.385 391.62 -245.369C549.604 -201.478 637.597 -381.651 833.318 -327.149C1029.04 -272.648 816.988 -38.5008 1116.91 50.8532C1416.84 140.207 1312.07 649.066 1057.7 674.015C803.329 698.963 879.659 777.472 639.307 988.358C398.954 1199.24 -50.3839 965.326 35.1576 676.077C120.699 386.828 18.802 459.15 -117.1 80.4012Z" stroke="url(#paint0_linear_1095_9798)"/>
<path opacity="0.15" d="M-65.4933 100.187C-180.891 -220.899 153.147 -284.354 404.237 -202.503C551.572 -160.92 635.1 -326.303 815.493 -276.068C999.911 -224.708 804.906 -10.4602 1080.59 73.2766C1356.94 157.557 1263.99 628.695 1024.84 651.972C787.098 675.142 858.671 749.523 635.408 943.003C412.146 1136.48 -2.04166 921.866 75.251 652.645C152.839 387.338 60.1654 449.527 -65.4933 100.187Z" stroke="url(#paint1_linear_1095_9798)"/>
<path opacity="0.5" d="M-13.8391 119.973C-119.091 -172.323 186.458 -235.324 416.9 -159.638C553.588 -120.364 632.649 -270.957 797.715 -224.987C970.831 -176.769 792.87 17.5795 1044.32 95.6992C1297.09 174.906 1215.95 608.324 992.031 629.928C770.913 651.321 837.73 721.574 631.557 897.648C425.384 1073.72 46.3478 878.406 115.391 629.213C185.025 387.847 101.576 439.904 -13.8391 119.973Z" stroke="url(#paint2_linear_1095_9798)"/>
<path opacity="0.7" d="M37.7686 139.761C-57.338 -123.743 219.722 -186.291 429.517 -116.77C555.557 -79.8041 630.152 -215.607 779.89 -173.904C941.704 -128.827 780.788 45.6224 1008 118.125C1237.19 192.258 1167.87 587.956 959.174 607.888C754.682 627.502 816.742 693.628 627.659 852.296C438.576 1010.96 94.6908 834.948 155.485 605.783C217.165 388.36 142.94 430.284 37.7686 139.761Z" stroke="url(#paint3_linear_1095_9798)"/>
<path opacity="0.3" d="M89.3769 159.55C4.41574 -75.1632 252.987 -137.257 442.135 -73.9016C557.526 -39.2446 627.655 -160.257 762.066 -122.82C912.578 -80.8855 768.707 73.665 971.685 140.55C1177.29 209.61 1119.79 567.588 926.317 585.847C738.452 603.684 795.755 665.682 623.762 806.943C451.768 948.205 143.034 791.49 195.58 582.354C249.306 388.872 184.305 420.664 89.3769 159.55Z" stroke="url(#paint4_linear_1095_9798)"/>
<path opacity="0.35" d="M141.091 180.533C66.2756 -25.3887 286.358 -87.0294 454.858 -29.8387C559.602 2.50983 625.265 -103.713 744.349 -70.5417C883.558 -31.7489 756.732 102.903 935.473 164.171C1117.5 228.156 1071.82 548.415 893.567 565.002C722.328 581.06 774.874 638.93 619.97 762.786C465.066 886.641 191.484 749.227 235.781 560.119C281.553 390.579 225.775 412.238 141.091 180.533Z" stroke="url(#paint5_linear_1095_9798)"/>
<path opacity="0.2" d="M192.928 202.927C128.258 25.7963 319.852 -35.3909 467.705 15.6347C561.801 45.6747 622.997 -45.7582 726.754 -16.8529C854.661 18.7983 744.879 133.551 899.384 189.202C1057.83 248.114 1023.97 530.652 860.939 545.567C706.326 559.847 754.116 613.589 616.302 720.039C478.488 826.488 240.057 708.375 276.104 539.295C313.922 393.697 267.369 405.223 192.928 202.927Z" stroke="url(#paint6_linear_1095_9798)"/>
<path opacity="0.1" d="M244.757 225.402C190.232 77.0623 353.337 16.3286 480.543 61.1891C563.991 88.9207 620.721 12.2777 709.15 36.917C825.755 69.4264 733.018 164.28 863.286 214.314C998.154 268.152 976.108 512.971 828.302 526.213C690.317 538.714 733.349 588.329 612.625 677.372C491.9 766.415 288.621 667.603 316.419 518.552C346.283 396.896 308.954 398.289 244.757 225.402Z" stroke="url(#paint7_linear_1095_9798)"/>
<path opacity="0.5" d="M296.581 247.985C252.202 128.437 386.818 68.157 493.376 106.852C566.176 132.275 618.44 70.4225 691.542 90.7958C796.845 120.163 721.152 195.118 827.184 239.534C938.472 288.299 928.243 495.398 795.661 506.967C674.302 517.691 712.577 563.178 608.943 634.815C505.308 706.452 337.18 626.941 356.729 497.918C378.639 400.204 350.534 391.464 296.581 247.985Z" stroke="url(#paint8_linear_1095_9798)"/>
<path opacity="0.55" d="M348.444 270.737C314.21 179.98 420.338 120.153 506.249 152.684C568.4 175.798 616.199 128.735 673.973 144.843C767.973 171.069 709.326 226.124 791.121 264.923C878.828 308.614 880.418 477.993 763.059 487.89C658.326 496.835 691.845 538.195 605.3 592.426C518.756 646.657 385.778 586.446 397.079 477.451C411.035 403.679 392.154 384.807 348.444 270.737Z" stroke="url(#paint9_linear_1095_9798)"/>
<path opacity="0.6" d="M400.334 293.741C376.245 231.775 453.884 172.402 519.147 198.767C570.651 219.573 613.984 187.3 656.431 199.142C739.129 222.226 697.525 257.382 755.084 290.564C819.212 329.181 832.619 460.84 730.484 469.065C642.377 476.232 671.139 513.465 601.684 550.289C532.229 587.113 434.403 546.204 437.455 457.238C443.457 407.407 433.8 378.402 400.334 293.741Z" stroke="url(#paint10_linear_1095_9798)"/>
<path opacity="0.1" d="M452.257 317.134C438.314 283.959 487.464 225.04 532.08 245.24C572.936 263.737 611.802 246.254 638.922 253.83C710.318 273.772 685.759 289.029 719.081 316.594C759.629 350.138 784.853 444.077 697.942 450.629C626.462 456.018 650.467 489.123 598.102 508.541C545.737 527.959 483.061 506.351 477.864 437.412C475.912 411.524 475.479 372.386 452.257 317.134Z" stroke="url(#paint11_linear_1095_9798)"/>
<path opacity="0.2" d="M491.493 331.545C481.135 306.898 517.65 263.123 550.798 278.131C581.152 291.874 610.028 278.885 630.176 284.513C683.22 299.329 664.974 310.664 689.73 331.144C719.856 356.065 738.596 425.857 674.026 430.725C620.919 434.729 638.754 459.324 599.849 473.751C560.944 488.178 514.38 472.124 510.518 420.906C509.068 401.672 508.746 372.595 491.493 331.545Z" stroke="url(#paint12_linear_1095_9798)"/>
<path opacity="0.2" d="M525.693 344.105C518.458 326.889 543.963 296.314 567.116 306.796C588.317 316.395 608.486 307.323 622.559 311.254C659.609 321.603 646.865 329.52 664.157 343.825C685.198 361.231 698.288 409.979 653.187 413.38C616.094 416.176 628.551 433.355 601.377 443.432C574.203 453.509 541.678 442.295 538.981 406.521C537.969 393.087 537.744 372.777 525.693 344.105Z" stroke="url(#paint13_linear_1095_9798)"/>
<path opacity="0.8" d="M561.327 357.191C557.347 347.721 571.377 330.903 584.112 336.669C595.774 341.949 606.868 336.959 614.609 339.121C634.988 344.814 627.978 349.168 637.489 357.037C649.063 366.611 656.263 393.425 631.455 395.296C611.052 396.834 617.904 406.283 602.957 411.826C588.01 417.369 570.12 411.201 568.636 391.523C568.079 384.133 567.956 372.962 561.327 357.191Z" stroke="url(#paint14_linear_1095_9798)"/>
<path d="M586.588 366.468C584.915 362.488 590.812 355.42 596.164 357.843C601.065 360.062 605.728 357.965 608.981 358.873C617.546 361.266 614.6 363.096 618.597 366.403C623.461 370.427 626.487 381.696 616.061 382.482C607.486 383.129 610.366 387.1 604.084 389.429C597.802 391.759 590.283 389.167 589.66 380.897C589.426 377.791 589.374 373.096 586.588 366.468Z" stroke="url(#paint15_linear_1095_9798)"/>
</g>
<defs>
<linearGradient id="paint0_linear_1095_9798" x1="724.645" y1="116.471" x2="8.19143" y2="1191.15" gradientUnits="userSpaceOnUse">
<stop stop-color="#B3B2B0"/>
<stop offset="1" stop-color="#B3B2B0" stop-opacity="0"/>
</linearGradient>
<linearGradient id="paint1_linear_1095_9798" x1="355.495" y1="996.748" x2="1817.92" y2="442.705" gradientUnits="userSpaceOnUse">
<stop stop-color="#B3B2B0"/>
<stop offset="1" stop-color="#B3B2B0" stop-opacity="0"/>
</linearGradient>
<linearGradient id="paint2_linear_1095_9798" x1="595.771" y1="-119.435" x2="-277.869" y2="359.464" gradientUnits="userSpaceOnUse">
<stop stop-color="#B3B2B0"/>
<stop offset="1" stop-color="#B3B2B0" stop-opacity="0"/>
</linearGradient>
<linearGradient id="paint3_linear_1095_9798" x1="-288.875" y1="468.145" x2="1046.42" y2="980.148" gradientUnits="userSpaceOnUse">
<stop stop-color="#B3B2B0"/>
<stop offset="1" stop-color="#B3B2B0" stop-opacity="0"/>
</linearGradient>
<linearGradient id="paint4_linear_1095_9798" x1="449.42" y1="1468.56" x2="1071.97" y2="-390.25" gradientUnits="userSpaceOnUse">
<stop stop-color="#B3B2B0"/>
<stop offset="1" stop-color="#B3B2B0" stop-opacity="0"/>
</linearGradient>
<linearGradient id="paint5_linear_1095_9798" x1="1098.16" y1="-23.3251" x2="491.722" y2="1043.12" gradientUnits="userSpaceOnUse">
<stop stop-color="#B3B2B0"/>
<stop offset="1" stop-color="#B3B2B0" stop-opacity="0"/>
</linearGradient>
<linearGradient id="paint6_linear_1095_9798" x1="83.5428" y1="152.916" x2="1220.84" y2="-67.1582" gradientUnits="userSpaceOnUse">
<stop stop-color="#B3B2B0"/>
<stop offset="1" stop-color="#B3B2B0" stop-opacity="0"/>
</linearGradient>
<linearGradient id="paint7_linear_1095_9798" x1="825.127" y1="428.828" x2="254.366" y2="700.028" gradientUnits="userSpaceOnUse">
<stop stop-color="#B3B2B0"/>
<stop offset="1" stop-color="#B3B2B0" stop-opacity="0"/>
</linearGradient>
<linearGradient id="paint8_linear_1095_9798" x1="517.129" y1="299.952" x2="969.192" y2="205.09" gradientUnits="userSpaceOnUse">
<stop stop-color="#B3B2B0"/>
<stop offset="1" stop-color="#B3B2B0" stop-opacity="0"/>
</linearGradient>
<linearGradient id="paint9_linear_1095_9798" x1="558.636" y1="625.415" x2="792.995" y2="114.032" gradientUnits="userSpaceOnUse">
<stop stop-color="#B3B2B0"/>
<stop offset="1" stop-color="#B3B2B0" stop-opacity="0"/>
</linearGradient>
<linearGradient id="paint10_linear_1095_9798" x1="661.303" y1="162.342" x2="487.737" y2="645.776" gradientUnits="userSpaceOnUse">
<stop stop-color="#B3B2B0"/>
<stop offset="1" stop-color="#B3B2B0" stop-opacity="0"/>
</linearGradient>
<linearGradient id="paint11_linear_1095_9798" x1="626.664" y1="313.038" x2="856.35" y2="500.667" gradientUnits="userSpaceOnUse">
<stop stop-color="#B3B2B0"/>
<stop offset="1" stop-color="#B3B2B0" stop-opacity="0"/>
</linearGradient>
<linearGradient id="paint12_linear_1095_9798" x1="353.314" y1="79.3383" x2="737.11" y2="487.37" gradientUnits="userSpaceOnUse">
<stop stop-color="#B3B2B0"/>
<stop offset="1" stop-color="#B3B2B0" stop-opacity="0"/>
</linearGradient>
<linearGradient id="paint13_linear_1095_9798" x1="605.027" y1="317.369" x2="507.423" y2="468.828" gradientUnits="userSpaceOnUse">
<stop stop-color="#B3B2B0"/>
<stop offset="1" stop-color="#B3B2B0" stop-opacity="0"/>
</linearGradient>
<linearGradient id="paint14_linear_1095_9798" x1="564.735" y1="350.062" x2="643.032" y2="389.411" gradientUnits="userSpaceOnUse">
<stop stop-color="#B3B2B0"/>
<stop offset="1" stop-color="#B3B2B0" stop-opacity="0"/>
</linearGradient>
<linearGradient id="paint15_linear_1095_9798" x1="632.908" y1="114.287" x2="479.808" y2="856.706" gradientUnits="userSpaceOnUse">
<stop stop-color="#B3B2B0"/>
<stop offset="1" stop-color="#B3B2B0" stop-opacity="0"/>
</linearGradient>
</defs>
</svg>
