<svg width="80" height="80" viewBox="0 0 80 80" fill="none" xmlns="http://www.w3.org/2000/svg">
<circle r="40" transform="matrix(-1 0 0 1 40 40)" fill="#302E2E"/>
<path d="M65.7014 54.464C69.1199 49.5185 69.343 40.7529 64.1946 30.9657C59.0461 21.1785 48.4108 10.4282 35.8256 13.7772C23.2404 17.1262 14.7372 23.0581 14.9971 37.1632C15.2571 51.2683 21.4542 62.5898 33.7855 66.0009C46.1169 69.412 62.2829 59.4095 65.7014 54.464Z" fill="#F9B131"/>
<g clip-path="url(#clip0_778_15585)">
<path d="M40.3651 43.4464C39.6877 43.4464 39.0255 43.2455 38.4622 42.8692C37.899 42.4928 37.46 41.9579 37.2007 41.332C36.9415 40.7062 36.8737 40.0175 37.0058 39.3531C37.138 38.6887 37.4642 38.0784 37.9432 37.5994C38.4222 37.1204 39.0325 36.7942 39.6969 36.6621C40.3613 36.5299 41.0499 36.5977 41.6758 36.857C42.3016 37.1162 42.8366 37.5552 43.2129 38.1185C43.5893 38.6817 43.7901 39.3439 43.7901 40.0213C43.7901 40.9297 43.4293 41.8009 42.787 42.4432C42.1446 43.0855 41.2735 43.4464 40.3651 43.4464ZM34.956 43.4464H30.9461C30.719 43.4464 30.5012 43.3562 30.3406 43.1956C30.1801 43.035 30.0898 42.8172 30.0898 42.5901C30.098 41.3606 30.5451 40.1745 31.3507 39.2456C32.1564 38.3168 33.2673 37.7063 34.4834 37.5244C34.6247 37.5046 34.7687 37.5205 34.9023 37.5705C35.0359 37.6205 35.1549 37.7031 35.2485 37.8108C35.3421 37.9185 35.4073 38.0479 35.4382 38.1872C35.469 38.3265 35.4646 38.4713 35.4253 38.6085C35.294 39.068 35.2275 39.5435 35.2275 40.0213C35.2277 40.7832 35.3992 41.5353 35.7292 42.2219C35.7913 42.3523 35.8194 42.4962 35.811 42.6403C35.8025 42.7844 35.7578 42.9241 35.6809 43.0462C35.604 43.1684 35.4974 43.2692 35.3711 43.3391C35.2449 43.4091 35.103 43.446 34.9586 43.4464H34.956ZM44.6464 50.2966H36.0837C35.8566 50.2966 35.6388 50.2063 35.4783 50.0458C35.3177 49.8852 35.2275 49.6674 35.2275 49.4403C35.2275 48.0777 35.7687 46.7709 36.7322 45.8074C37.6957 44.844 39.0025 44.3027 40.3651 44.3027C41.7277 44.3027 43.0344 44.844 43.9979 45.8074C44.9614 46.7709 45.5027 48.0777 45.5027 49.4403C45.5027 49.6674 45.4125 49.8852 45.2519 50.0458C45.0913 50.2063 44.8735 50.2966 44.6464 50.2966ZM45.5027 36.5962C44.8253 36.5962 44.1631 36.3954 43.5998 36.019C43.0366 35.6427 42.5976 35.1077 42.3383 34.4819C42.0791 33.856 42.0113 33.1674 42.1434 32.503C42.2756 31.8386 42.6018 31.2283 43.0808 30.7493C43.5598 30.2703 44.1701 29.9441 44.8345 29.8119C45.4989 29.6797 46.1876 29.7476 46.8134 30.0068C47.4393 30.266 47.9742 30.7051 48.3505 31.2683C48.7269 31.8316 48.9278 32.4938 48.9278 33.1712C48.9278 34.0796 48.5669 34.9507 47.9246 35.5931C47.2823 36.2354 46.4111 36.5962 45.5027 36.5962ZM35.2275 36.5962C34.55 36.5962 33.8878 36.3954 33.3246 36.019C32.7613 35.6427 32.3223 35.1077 32.0631 34.4819C31.8039 33.856 31.736 33.1674 31.8682 32.503C32.0004 31.8386 32.3266 31.2283 32.8056 30.7493C33.2846 30.2703 33.8949 29.9441 34.5593 29.8119C35.2237 29.6797 35.9123 29.7476 36.5382 30.0068C37.164 30.266 37.699 30.7051 38.0753 31.2683C38.4517 31.8316 38.6525 32.4938 38.6525 33.1712C38.6525 34.0796 38.2917 34.9507 37.6494 35.5931C37.007 36.2354 36.1358 36.5962 35.2275 36.5962ZM49.784 43.4464H45.7741C45.6298 43.446 45.4878 43.4091 45.3616 43.3391C45.2353 43.2692 45.1288 43.1684 45.0519 43.0462C44.975 42.9241 44.9302 42.7844 44.9217 42.6403C44.9133 42.4962 44.9414 42.3523 45.0035 42.2219C45.3326 41.5351 45.5032 40.783 45.5027 40.0213C45.5013 39.5433 45.4333 39.0678 45.3006 38.6085C45.261 38.4709 45.2566 38.3257 45.2877 38.186C45.3187 38.0463 45.3843 37.9166 45.4784 37.8087C45.5725 37.7009 45.6922 37.6184 45.8264 37.5687C45.9606 37.5191 46.1052 37.5038 46.2468 37.5244C47.4628 37.7063 48.5738 38.3168 49.3794 39.2456C50.185 40.1745 50.6322 41.3606 50.6403 42.5901C50.6403 42.8172 50.5501 43.035 50.3895 43.1956C50.2289 43.3562 50.0111 43.4464 49.784 43.4464Z" fill="#212020"/>
</g>
<defs>
<clipPath id="clip0_778_15585">
<rect width="20.5505" height="20.5505" fill="white" transform="translate(30.0898 29.7461)"/>
</clipPath>
</defs>
</svg>
