<svg width="16" height="16" viewBox="0 0 16 16" fill="none" xmlns="http://www.w3.org/2000/svg">
<path fill-rule="evenodd" clip-rule="evenodd" d="M8.39263 13.1326C9.52113 12.5237 12.6615 10.5414 12.6615 7.33335C12.6615 4.75602 10.5721 2.66669 7.99479 2.66669C5.41746 2.66669 3.32812 4.75602 3.32812 7.33335C3.32812 10.5414 6.46846 12.5237 7.59695 13.1326C7.84765 13.2678 8.14193 13.2678 8.39263 13.1326ZM7.99609 9.33337C9.10066 9.33337 9.99609 8.43794 9.99609 7.33337C9.99609 6.2288 9.10066 5.33337 7.99609 5.33337C6.89152 5.33337 5.99609 6.2288 5.99609 7.33337C5.99609 8.43794 6.89152 9.33337 7.99609 9.33337Z" fill="#F9B131"/>
</svg>
