<svg width="24" height="16" viewBox="0 0 24 16" fill="none" xmlns="http://www.w3.org/2000/svg">
<path d="M21.2793 14.7833C20.2593 15.6003 18.9289 16.0147 17.6253 15.9256C16.5168 15.8581 15.4429 15.3987 14.6113 14.6651C13.6288 13.8083 12.9744 12.59 12.7878 11.3009C12.6861 10.6358 12.7335 9.9603 12.7883 9.29327C12.951 7.48764 13.4933 5.6928 14.5114 4.18155C15.853 2.16171 17.99 0.747019 20.3052 0.0879571C20.6713 0.010145 21.0777 0.123583 21.3346 0.400145C21.7339 0.793426 21.7508 1.48811 21.373 1.90155C20.4172 2.99421 19.5922 4.21624 19.0508 5.56811C20.3118 5.80624 21.4668 6.53936 22.2252 7.5739C22.971 8.57561 23.338 9.85202 23.2321 11.097C23.1229 12.5239 22.4024 13.8941 21.2793 14.7833Z" fill="#F9B131"/>
<path d="M9.73278 14.4006C8.72403 15.4126 7.28871 15.9779 5.86137 15.9352C4.77621 15.9123 3.70746 15.5181 2.85621 14.8468C1.76168 13.9923 1.02293 12.7051 0.817619 11.3335C0.708868 10.6492 0.756681 9.95353 0.814807 9.26681C0.98965 7.35478 1.59715 5.45353 2.73715 3.89353C4.03699 2.08978 5.98418 0.808687 8.09637 0.157593C8.30965 0.0774371 8.54168 0.0385311 8.76762 0.083062C9.2434 0.159938 9.6259 0.588374 9.66715 1.06509C9.70184 1.38431 9.58043 1.70728 9.36434 1.94119C8.42074 3.02212 7.61074 4.23291 7.07496 5.56837C8.2384 5.79056 9.31606 6.429 10.0689 7.344C10.8704 8.30353 11.3087 9.55931 11.2712 10.8095C11.2422 12.1445 10.6797 13.4588 9.73278 14.4006Z" fill="#F9B131"/>
</svg>
