<svg width="1440" height="675" viewBox="0 0 1440 675" fill="none" xmlns="http://www.w3.org/2000/svg">
<g opacity="0.3">
<path opacity="0.1" d="M166.241 -337.62C233.476 -754.973 629.709 -619.292 852.013 -382.271C985.257 -251.719 1171.93 -382.719 1336.93 -220.857C1501.93 -58.9945 1162.03 57.539 1411.67 311.389C1661.32 565.238 1277.3 1014.25 1010.21 899.243C743.125 784.236 776.01 904.362 420.697 982.177C65.3836 1059.99 -253.642 580.074 -9.4684 339.131C234.706 98.1881 93.4591 114.171 166.241 -337.62Z" stroke="url(#paint0_linear_1095_9981)"/>
<path opacity="0.15" d="M206.771 -289.55C268.288 -672.661 635.895 -552.191 841.019 -332.659C964.926 -210.259 1139.02 -328.991 1291.1 -179.802C1446.57 -27.2811 1134.58 78.8119 1363.17 313.745C1592.12 549.58 1240.6 967.535 989.596 859.232C740.046 751.595 770.462 864.997 441.738 934.878C113.013 1004.76 -181.606 563.382 43.3439 337.844C266.437 116.364 139.947 127.33 206.771 -289.55Z" stroke="url(#paint1_linear_1095_9981)"/>
<path opacity="0.5" d="M247.346 -241.453C303.146 -590.322 642.126 -485.062 830.073 -283.02C944.642 -168.773 1106.16 -275.235 1245.31 -138.72C1391.25 4.45979 1107.18 100.112 1314.72 316.128C1522.96 533.948 1203.95 920.847 969.025 819.249C737.014 718.983 764.96 825.659 462.825 887.607C160.69 949.555 -109.523 546.718 96.2027 336.585C298.215 134.568 186.482 140.517 247.346 -241.453Z" stroke="url(#paint2_linear_1095_9981)"/>
<path opacity="0.7" d="M287.883 -193.381C337.965 -508.009 648.319 -417.96 819.087 -233.407C924.318 -127.312 1073.26 -221.504 1199.49 -97.663C1335.9 36.1749 1079.74 121.387 1266.22 318.486C1453.77 518.291 1167.25 874.134 948.415 779.24C733.943 686.344 759.419 786.296 483.873 840.31C208.327 894.324 -37.4797 530.028 149.022 335.299C329.953 152.746 232.977 153.678 287.883 -193.381Z" stroke="url(#paint3_linear_1095_9981)"/>
<path opacity="0.3" d="M328.411 -145.304C372.776 -425.689 654.503 -350.852 808.092 -183.788C903.986 -85.8446 1040.35 -167.768 1153.66 -56.6005C1280.54 67.8959 1052.29 142.667 1217.72 320.849C1384.57 502.64 1130.55 827.426 927.797 739.237C730.863 653.711 753.869 746.939 504.912 793.019C255.956 839.099 34.5556 513.344 201.834 334.02C361.684 170.93 279.465 166.845 328.411 -145.304Z" stroke="url(#paint4_linear_1095_9981)"/>
<path opacity="0.35" d="M368.397 -95.9813C407.045 -342.125 660.145 -282.498 796.556 -132.923C883.112 -43.1325 1006.9 -112.787 1107.29 -14.2928C1224.63 100.862 1024.3 165.193 1168.67 324.458C1314.82 488.234 1093.31 781.964 906.636 700.479C727.241 622.324 747.778 708.827 525.41 746.973C303.043 785.12 106.049 497.905 254.103 333.986C392.872 190.359 325.41 181.257 368.397 -95.9813Z" stroke="url(#paint5_linear_1095_9981)"/>
<path opacity="0.2" d="M407.723 -45.1886C440.653 -257.09 665.126 -212.674 784.359 -80.5889C861.578 1.04963 972.785 -56.3351 1060.25 29.4849C1168.06 135.298 995.646 189.189 1118.96 329.537C1244.41 475.298 1055.4 737.971 884.815 663.191C722.959 592.406 741.025 672.185 545.247 702.397C349.469 732.61 176.881 483.936 305.712 335.421C423.4 211.258 370.694 197.139 407.723 -45.1886Z" stroke="url(#paint6_linear_1095_9981)"/>
<path opacity="0.1" d="M446.989 5.67408C474.202 -171.986 670.048 -142.781 772.102 -28.1845C839.983 45.3018 938.614 0.186335 1013.16 73.3326C1111.44 169.804 966.934 213.254 1069.2 334.685C1173.95 462.432 1017.44 694.049 862.934 625.973C718.617 562.559 734.214 635.613 565.024 657.891C395.835 680.17 247.654 470.037 357.261 336.927C453.868 232.227 415.919 213.091 446.989 5.67408Z" stroke="url(#paint7_linear_1095_9981)"/>
<path opacity="0.5" d="M486.211 56.6548C507.707 -86.7636 674.926 -72.7692 759.802 24.338C818.345 89.672 904.399 56.8259 966.018 117.298C1054.77 204.429 938.179 237.438 1019.39 339.952C1103.44 449.684 979.433 650.244 841.01 588.873C714.231 532.829 727.358 599.159 584.758 613.504C442.158 627.849 318.384 456.256 408.766 338.551C484.292 253.314 461.1 229.162 486.211 56.6548Z" stroke="url(#paint8_linear_1095_9981)"/>
<path opacity="0.55" d="M525.358 107.818C541.136 -1.35904 679.729 -2.57551 747.426 77.0424C796.632 134.224 870.109 113.647 918.805 161.446C998.025 239.235 909.349 261.804 969.501 345.401C1032.85 437.118 941.35 606.622 819.011 551.955C709.77 503.282 720.427 562.887 604.416 569.298C488.405 575.709 389.038 442.657 460.196 340.357C514.641 274.583 506.206 245.414 525.358 107.818Z" stroke="url(#paint9_linear_1095_9981)"/>
<path opacity="0.6" d="M564.401 159.243C574.462 84.3082 684.427 67.8809 734.946 130.01C774.814 179.039 835.714 170.732 871.487 205.857C941.176 274.304 880.414 286.432 919.511 351.112C962.165 424.815 903.162 563.263 796.906 515.3C705.205 473.997 713.392 526.878 623.97 525.355C534.548 523.832 459.587 429.321 511.521 342.426C544.886 296.115 551.207 261.929 564.401 159.243Z" stroke="url(#paint10_linear_1095_9981)"/>
<path opacity="0.2" d="M603.277 211.083C607.621 170.39 688.96 138.752 722.3 183.391C752.831 224.268 801.153 228.23 824.004 250.682C884.161 309.787 851.313 311.475 869.356 357.238C891.311 412.926 864.809 520.317 774.636 479.059C700.474 445.127 706.191 491.283 643.358 481.826C580.526 472.369 529.971 416.399 562.681 344.908C574.965 318.061 596.043 278.858 603.277 211.083Z" stroke="url(#paint11_linear_1095_9981)"/>
<path opacity="0.4" d="M634.431 247C637.658 216.767 698.089 193.261 722.859 226.426C745.541 256.796 781.443 259.739 798.42 276.42C843.113 320.332 818.709 321.586 832.114 355.586C848.425 396.959 828.736 476.745 761.742 446.093C706.643 420.883 710.89 455.174 664.209 448.148C617.527 441.123 579.968 399.54 604.27 346.425C613.396 326.479 629.056 297.353 634.431 247Z" stroke="url(#paint12_linear_1095_9981)"/>
<path opacity="0.3" d="M661.6 278.307C663.854 257.19 706.064 240.772 723.365 263.937C739.208 285.149 764.285 287.205 776.143 298.856C807.36 329.528 790.314 330.404 799.677 354.152C811.07 383.05 797.318 438.778 750.524 417.368C712.039 399.76 715.006 423.711 682.4 418.804C649.794 413.897 623.559 384.852 640.534 347.753C646.908 333.821 657.846 313.478 661.6 278.307Z" stroke="url(#paint13_linear_1095_9981)"/>
</g>
<defs>
<linearGradient id="paint0_linear_1095_9981" x1="984.875" y1="161.058" x2="-319.089" y2="837.711" gradientUnits="userSpaceOnUse">
<stop stop-color="#B3B2B0"/>
<stop offset="1" stop-color="#B3B2B0" stop-opacity="0"/>
</linearGradient>
<linearGradient id="paint1_linear_1095_9981" x1="133.38" y1="834.497" x2="1894.65" y2="1086.44" gradientUnits="userSpaceOnUse">
<stop stop-color="#B3B2B0"/>
<stop offset="1" stop-color="#B3B2B0" stop-opacity="0"/>
</linearGradient>
<linearGradient id="paint2_linear_1095_9981" x1="986.15" y1="-144.656" x2="-147.273" y2="-147.766" gradientUnits="userSpaceOnUse">
<stop stop-color="#B3B2B0"/>
<stop offset="1" stop-color="#B3B2B0" stop-opacity="0"/>
</linearGradient>
<linearGradient id="paint3_linear_1095_9981" x1="-217.959" y1="-46.0283" x2="830.272" y2="1198.21" gradientUnits="userSpaceOnUse">
<stop stop-color="#B3B2B0"/>
<stop offset="1" stop-color="#B3B2B0" stop-opacity="0"/>
</linearGradient>
<linearGradient id="paint4_linear_1095_9981" x1="-32.3595" y1="1355.86" x2="1608.81" y2="-153.033" gradientUnits="userSpaceOnUse">
<stop stop-color="#B3B2B0"/>
<stop offset="1" stop-color="#B3B2B0" stop-opacity="0"/>
</linearGradient>
<linearGradient id="paint5_linear_1095_9981" x1="1433.76" y1="227.228" x2="243.922" y2="956.088" gradientUnits="userSpaceOnUse">
<stop stop-color="#B3B2B0"/>
<stop offset="1" stop-color="#B3B2B0" stop-opacity="0"/>
</linearGradient>
<linearGradient id="paint6_linear_1095_9981" x1="326.25" y1="-155.116" x2="1580.1" y2="250.9" gradientUnits="userSpaceOnUse">
<stop stop-color="#B3B2B0"/>
<stop offset="1" stop-color="#B3B2B0" stop-opacity="0"/>
</linearGradient>
<linearGradient id="paint7_linear_1095_9981" x1="913.292" y1="527.273" x2="195.7" y2="483.718" gradientUnits="userSpaceOnUse">
<stop stop-color="#B3B2B0"/>
<stop offset="1" stop-color="#B3B2B0" stop-opacity="0"/>
</linearGradient>
<linearGradient id="paint8_linear_1095_9981" x1="677.338" y1="229.644" x2="1179.79" y2="383.669" gradientUnits="userSpaceOnUse">
<stop stop-color="#B3B2B0"/>
<stop offset="1" stop-color="#B3B2B0" stop-opacity="0"/>
</linearGradient>
<linearGradient id="paint9_linear_1095_9981" x1="539.804" y1="576.486" x2="1054.14" y2="195.998" gradientUnits="userSpaceOnUse">
<stop stop-color="#B3B2B0"/>
<stop offset="1" stop-color="#B3B2B0" stop-opacity="0"/>
</linearGradient>
<linearGradient id="paint10_linear_1095_9981" x1="896.565" y1="171.898" x2="458.128" y2="557.932" gradientUnits="userSpaceOnUse">
<stop stop-color="#B3B2B0"/>
<stop offset="1" stop-color="#B3B2B0" stop-opacity="0"/>
</linearGradient>
<linearGradient id="paint11_linear_1095_9981" x1="779.254" y1="302.889" x2="904.775" y2="616.025" gradientUnits="userSpaceOnUse">
<stop stop-color="#B3B2B0"/>
<stop offset="1" stop-color="#B3B2B0" stop-opacity="0"/>
</linearGradient>
<linearGradient id="paint12_linear_1095_9981" x1="635.399" y1="-80.0598" x2="793.159" y2="537.243" gradientUnits="userSpaceOnUse">
<stop stop-color="#B3B2B0"/>
<stop offset="1" stop-color="#B3B2B0" stop-opacity="0"/>
</linearGradient>
<linearGradient id="paint13_linear_1095_9981" x1="755.318" y1="295.305" x2="574.901" y2="392.518" gradientUnits="userSpaceOnUse">
<stop stop-color="#B3B2B0"/>
<stop offset="1" stop-color="#B3B2B0" stop-opacity="0"/>
</linearGradient>
</defs>
</svg>
