<svg width="1049" height="802" viewBox="0 0 1049 802" fill="none" xmlns="http://www.w3.org/2000/svg">
<g opacity="0.2">
<path opacity="0.1" d="M-1095.38 -527.27C-1278.63 -1037.97 -749.465 -1131.26 -352.821 -1002.78C-122.218 -938.718 6.22272 -1201.71 291.908 -1122.16C577.594 -1042.6 268.073 -700.827 705.863 -570.4C1143.65 -439.973 990.726 302.788 619.431 339.205C248.135 375.622 359.552 490.218 8.71834 798.041C-342.115 1105.86 -997.998 764.422 -873.136 342.215C-748.274 -79.9909 -897.009 25.5753 -1095.38 -527.27Z" stroke="url(#paint0_linear_958_9415)"/>
<path opacity="0.15" d="M-1020.05 -498.391C-1188.49 -967.069 -700.911 -1059.69 -334.405 -940.217C-119.345 -879.52 2.57741 -1120.92 265.89 -1047.6C535.079 -972.629 250.437 -659.899 652.849 -537.672C1056.22 -414.651 920.544 273.052 571.47 307.028C224.443 340.849 328.917 449.42 3.02818 731.836C-322.86 1014.25 -927.434 700.983 -814.613 308.011C-701.361 -79.2483 -836.632 11.5275 -1020.05 -498.391Z" stroke="url(#paint1_linear_958_9415)"/>
<path opacity="0.2" d="M-944.659 -469.509C-1098.29 -896.162 -652.293 -988.123 -315.926 -877.647C-116.408 -820.32 -1.00523 -1040.13 239.935 -973.035C492.626 -902.653 232.864 -618.969 599.899 -504.941C968.852 -389.326 850.424 243.319 523.571 274.854C200.814 306.08 298.344 408.626 -2.59919 665.634C-303.542 922.643 -856.807 637.547 -756.026 273.809C-654.385 -78.5029 -776.192 -2.51747 -944.659 -469.509Z" stroke="url(#paint2_linear_958_9415)"/>
<path opacity="0.25" d="M-869.321 -440.624C-1008.14 -825.251 -603.73 -916.55 -297.501 -815.073C-113.526 -761.116 -4.64187 -959.342 213.926 -898.469C450.119 -832.673 215.236 -578.035 546.894 -472.206C881.428 -363.997 780.25 213.589 475.619 242.683C177.131 271.313 267.717 367.834 -8.28079 599.436C-284.279 831.037 -786.234 574.114 -697.495 239.611C-607.463 -77.7542 -715.807 -16.5591 -869.321 -440.624Z" stroke="url(#paint3_linear_958_9415)"/>
<path opacity="0.3" d="M-793.99 -411.738C-918.005 -754.34 -555.174 -844.976 -279.083 -752.498C-110.65 -701.911 -8.28527 -878.549 187.91 -823.903C407.606 -762.692 197.602 -537.101 493.883 -439.471C793.999 -338.668 710.07 183.86 427.66 210.512C153.441 236.547 237.084 327.043 -13.969 533.238C-265.022 739.432 -715.668 510.681 -638.97 205.413C-560.548 -77.0048 -655.428 -30.6001 -793.99 -411.738Z" stroke="url(#paint4_linear_958_9415)"/>
<path opacity="0.5" d="M-718.504 -381.11C-827.709 -681.686 -506.463 -771.661 -260.51 -688.182C-107.619 -640.964 -11.7733 -796.013 162.049 -747.594C365.247 -690.97 180.123 -494.424 441.026 -404.993C706.724 -311.596 640.045 155.874 379.856 180.085C129.906 203.524 206.605 287.995 -19.502 468.782C-245.609 649.569 -644.947 448.992 -580.289 172.958C-513.478 -74.513 -594.893 -42.8987 -718.504 -381.11Z" stroke="url(#paint5_linear_958_9415)"/>
<path opacity="0.4" d="M-642.837 -348.422C-737.234 -606.973 -457.571 -696.285 -241.756 -621.805C-104.408 -577.957 -15.0816 -711.418 136.368 -669.226C323.069 -617.187 162.824 -449.688 388.35 -368.456C619.629 -282.464 570.2 129.947 332.232 151.717C106.551 172.56 176.307 251.007 -24.855 406.387C-226.017 561.767 -574.046 389.362 -521.429 142.562C-466.227 -69.9613 -534.179 -53.1375 -642.837 -348.422Z" stroke="url(#paint6_linear_958_9415)"/>
<path opacity="0.5" d="M-567.199 -315.62C-646.787 -532.146 -408.709 -620.796 -223.032 -555.315C-101.226 -514.836 -18.4184 -626.709 110.658 -590.744C280.862 -543.292 145.497 -404.838 335.645 -331.805C532.505 -253.219 500.326 104.133 284.58 123.462C83.1672 141.71 145.98 214.132 -30.2366 344.104C-206.453 474.077 -503.173 329.845 -462.597 112.28C-419.006 -65.2964 -473.494 -63.2628 -567.199 -315.62Z" stroke="url(#paint7_linear_958_9415)"/>
<path opacity="0.5" d="M-491.538 -282.652C-556.317 -457.152 -359.823 -545.141 -204.284 -488.659C-98.0204 -451.55 -21.7318 -541.834 84.972 -512.096C238.678 -469.229 128.193 -359.821 282.963 -294.988C445.406 -223.808 430.476 78.4862 236.951 95.3739C59.807 111.027 115.676 177.423 -35.595 281.989C-186.866 386.554 -432.278 270.495 -403.742 82.1646C-371.761 -60.4649 -412.785 -73.2217 -491.538 -282.652Z" stroke="url(#paint8_linear_958_9415)"/>
<path opacity="0.55" d="M-415.838 -249.444C-465.808 -381.918 -310.897 -469.245 -185.497 -421.762C-94.7758 -388.022 -25.0063 -456.718 59.3247 -433.207C196.534 -394.926 110.927 -314.564 230.321 -257.93C358.344 -194.156 360.664 53.0797 189.361 67.5263C36.4858 80.5834 85.4119 140.955 -40.9143 220.113C-167.24 299.272 -361.343 211.385 -344.848 52.2896C-324.477 -55.3929 -352.037 -82.9401 -415.838 -249.444Z" stroke="url(#paint9_linear_958_9415)"/>
<path opacity="0.5" d="M-340.107 -215.868C-375.268 -306.317 -261.941 -392.982 -166.679 -354.497C-91.5005 -324.128 -28.25 -371.235 33.7083 -353.951C154.42 -320.256 93.6929 -268.94 177.709 -220.505C271.314 -164.137 290.883 28.0406 141.801 40.046C13.1953 50.5076 55.1781 104.854 -46.2029 158.606C-147.584 212.357 -290.377 152.643 -285.923 22.7818C-277.162 -49.9536 -291.258 -92.2912 -340.107 -215.868Z" stroke="url(#paint10_linear_958_9415)"/>
<path opacity="0.65" d="M-264.312 -181.721C-284.664 -230.144 -212.922 -316.147 -147.797 -286.662C-88.1611 -259.661 -31.4297 -285.181 8.15589 -274.124C112.37 -245.014 76.5225 -222.745 125.161 -182.508C184.348 -133.546 221.167 3.57292 94.306 13.1371C-10.0311 21.0033 25.0082 69.3251 -51.4274 97.6691C-127.863 126.013 -219.348 94.4723 -226.934 -6.15452C-229.783 -43.9428 -230.415 -101.071 -264.312 -181.721Z" stroke="url(#paint11_linear_958_9415)"/>
<path opacity="0.7" d="M-207.041 -160.687C-222.162 -196.663 -168.861 -260.559 -120.477 -238.653C-76.1702 -218.593 -34.0215 -237.553 -4.61142 -229.338C72.8143 -207.711 46.1816 -191.166 82.3177 -161.272C126.291 -124.896 153.645 -23.0232 59.3938 -15.9174C-18.1234 -10.0733 7.90906 25.8274 -48.8789 46.8857C-105.667 67.9439 -173.635 44.5106 -179.272 -30.2502C-181.388 -58.325 -181.858 -100.768 -207.041 -160.687Z" stroke="url(#paint12_linear_958_9415)"/>
<path opacity="0.75" d="M-157.117 -142.355C-167.678 -167.483 -130.449 -212.113 -96.6537 -196.812C-65.7068 -182.801 -36.267 -196.044 -15.7248 -190.306C38.3552 -175.2 19.7529 -163.643 44.993 -142.764C75.707 -117.356 94.8134 -46.2 28.9813 -41.2369C-25.1625 -37.1549 -6.97953 -12.0791 -46.6444 2.6295C-86.3094 17.3381 -133.784 0.970543 -137.721 -51.2479C-139.199 -70.8575 -139.527 -100.503 -157.117 -142.355Z" stroke="url(#paint13_linear_958_9415)"/>
</g>
<defs>
<linearGradient id="paint0_linear_958_9415" x1="133.282" y1="-474.62" x2="-912.497" y2="1094.05" gradientUnits="userSpaceOnUse">
<stop/>
<stop offset="1" stop-opacity="0"/>
</linearGradient>
<linearGradient id="paint1_linear_958_9415" x1="-405.551" y1="810.285" x2="1729.09" y2="1.56902" gradientUnits="userSpaceOnUse">
<stop/>
<stop offset="1" stop-opacity="0"/>
</linearGradient>
<linearGradient id="paint2_linear_958_9415" x1="-54.834" y1="-818.963" x2="-1330.05" y2="-119.933" gradientUnits="userSpaceOnUse">
<stop/>
<stop offset="1" stop-opacity="0"/>
</linearGradient>
<linearGradient id="paint3_linear_958_9415" x1="-1346.11" y1="38.7048" x2="602.969" y2="786.056" gradientUnits="userSpaceOnUse">
<stop/>
<stop offset="1" stop-opacity="0"/>
</linearGradient>
<linearGradient id="paint4_linear_958_9415" x1="-268.449" y1="1498.97" x2="640.27" y2="-1214.26" gradientUnits="userSpaceOnUse">
<stop/>
<stop offset="1" stop-opacity="0"/>
</linearGradient>
<linearGradient id="paint5_linear_958_9415" x1="678.488" y1="-678.674" x2="-206.701" y2="877.971" gradientUnits="userSpaceOnUse">
<stop/>
<stop offset="1" stop-opacity="0"/>
</linearGradient>
<linearGradient id="paint6_linear_958_9415" x1="-802.503" y1="-421.421" x2="857.57" y2="-742.655" gradientUnits="userSpaceOnUse">
<stop/>
<stop offset="1" stop-opacity="0"/>
</linearGradient>
<linearGradient id="paint7_linear_958_9415" x1="279.945" y1="-18.6862" x2="-553.173" y2="377.174" gradientUnits="userSpaceOnUse">
<stop/>
<stop offset="1" stop-opacity="0"/>
</linearGradient>
<linearGradient id="paint8_linear_958_9415" x1="-169.612" y1="-206.798" x2="490.247" y2="-345.265" gradientUnits="userSpaceOnUse">
<stop/>
<stop offset="1" stop-opacity="0"/>
</linearGradient>
<linearGradient id="paint9_linear_958_9415" x1="-109.029" y1="268.266" x2="233.056" y2="-478.18" gradientUnits="userSpaceOnUse">
<stop/>
<stop offset="1" stop-opacity="0"/>
</linearGradient>
<linearGradient id="paint10_linear_958_9415" x1="40.8205" y1="-407.666" x2="-212.528" y2="297.985" gradientUnits="userSpaceOnUse">
<stop/>
<stop offset="1" stop-opacity="0"/>
</linearGradient>
<linearGradient id="paint11_linear_958_9415" x1="-9.73701" y1="-187.699" x2="325.528" y2="86.1762" gradientUnits="userSpaceOnUse">
<stop/>
<stop offset="1" stop-opacity="0"/>
</linearGradient>
<linearGradient id="paint12_linear_958_9415" x1="-408.737" y1="-528.823" x2="151.475" y2="66.7649" gradientUnits="userSpaceOnUse">
<stop/>
<stop offset="1" stop-opacity="0"/>
</linearGradient>
<linearGradient id="paint13_linear_958_9415" x1="-41.3159" y1="-181.381" x2="-183.785" y2="39.6992" gradientUnits="userSpaceOnUse">
<stop/>
<stop offset="1" stop-opacity="0"/>
</linearGradient>
</defs>
</svg>
