<svg width="4653" height="970" viewBox="0 0 4653 970" fill="none" xmlns="http://www.w3.org/2000/svg">
<path opacity="0.5" d="M1 451.515C359.318 215.14 1055 670.014 1486.5 401.014C1654.5 287.264 1896.6 402.664 2061 474.264C2088.5 486.598 2192 506.765 2286 451.765" stroke="white"/>
<path opacity="0.5" d="M2286 451.765C2403.5 385.264 2493.5 550.265 2746.5 401.013C2914.5 287.264 3156.6 402.663 3321 474.263C3348.5 486.597 3438 485.765 3498 451.765" stroke="white"/>
<path opacity="0.5" d="M3498 451.765C3615.5 385.265 3705.5 550.265 3958.5 401.013C4126.5 287.264 4368.6 402.664 4533 474.264C4560.5 486.597 4622.8 513.364 4652 521.764" stroke="white"/>
<path d="M1269 479.713C1269 476.785 1265.5 472.809 1261.02 473.308C1258.53 473.308 1255.54 477.425 1255.04 481.086C1254.54 484.746 1258.53 485.661 1262.02 487.034C1265.51 488.406 1269 483.373 1269 479.713Z" fill="white"/>
<path d="M2350 434.713C2350 431.785 2346.5 427.809 2342.02 428.308C2339.53 428.308 2336.54 432.425 2336.04 436.086C2335.54 439.746 2339.53 440.661 2343.02 442.034C2346.51 443.406 2350 438.373 2350 434.713Z" fill="white"/>
<path d="M2767 391.448C2767 388.52 2763.5 384.544 2759.02 385.043C2756.53 385.043 2753.54 389.16 2753.04 392.821C2752.54 396.481 2756.53 397.396 2760.02 398.769C2763.51 400.141 2767 395.108 2767 391.448Z" fill="white"/>
<path d="M3204 420.448C3204 417.52 3200.5 413.544 3196.02 414.043C3193.53 414.043 3190.54 418.16 3190.04 421.821C3189.54 425.481 3193.53 426.396 3197.02 427.769C3200.51 429.141 3204 424.108 3204 420.448Z" fill="white"/>
<path d="M3769 465.713C3769 462.785 3765.5 458.809 3761.02 459.308C3758.53 459.308 3755.54 463.425 3755.04 467.086C3754.54 470.746 3758.53 471.661 3762.02 473.034C3765.51 474.406 3769 469.373 3769 465.713Z" fill="white"/>
<path d="M1845 384.713C1845 381.785 1841.5 377.809 1837.02 378.308C1834.53 378.308 1831.54 382.425 1831.04 386.086C1830.54 389.746 1834.53 390.661 1838.02 392.034C1841.51 393.406 1845 388.373 1845 384.713Z" fill="white"/>
</svg>
