<svg width="4653" height="970" viewBox="0 0 4653 970" fill="none" xmlns="http://www.w3.org/2000/svg">
<path opacity="0.15" d="M1.00075 484.158C423.768 201.631 1133.5 634.252 1484.16 386.652C1578.83 333.358 1778.73 325.958 2058.33 514.358C2082.83 531.358 2163 558.765 2286 484.265" stroke="white"/>
<path opacity="0.15" d="M2286 484.265C2478.5 377.265 2393.5 634.252 2744.16 386.652C2838.83 333.357 3038.73 325.958 3318.33 514.358C3342.83 531.358 3401 537.765 3498 484.265" stroke="white"/>
<path opacity="0.15" d="M3498 484.265C3690.5 377.265 3605.5 634.252 3956.16 386.652C4050.83 333.358 4250.73 325.958 4530.33 514.358C4554.83 531.358 4613.53 569.758 4652.33 587.358" stroke="white"/>
</svg>
