<svg width="110" height="110" viewBox="0 0 110 110" fill="none" xmlns="http://www.w3.org/2000/svg">
<circle r="54.5" transform="matrix(-1 0 0 1 55.498 54.6035)" fill="#F9B131" fill-opacity="0.25"/>
<path d="M90.5144 74.3107C95.1721 67.5725 95.476 55.6293 88.4613 42.2942C81.4466 28.9592 66.956 14.3119 49.8086 18.8749C32.6612 23.4379 21.0757 31.5202 21.4298 50.7383C21.784 69.9565 30.2276 85.3821 47.029 90.0297C63.8305 94.6774 85.8567 81.049 90.5144 74.3107Z" fill="#F9B131"/>
<g clip-path="url(#clip0_2020_694)">
<path d="M55.998 59.2995C55.0751 59.2995 54.1728 59.0258 53.4054 58.513C52.638 58.0002 52.0398 57.2714 51.6866 56.4187C51.3334 55.566 51.241 54.6276 51.421 53.7224C51.6011 52.8171 52.0456 51.9856 52.6982 51.333C53.3509 50.6803 54.1824 50.2359 55.0876 50.0558C55.9929 49.8758 56.9312 49.9682 57.7839 50.3214C58.6366 50.6746 59.3655 51.2727 59.8782 52.0402C60.391 52.8076 60.6647 53.7098 60.6647 54.6328C60.6647 55.8705 60.173 57.0575 59.2979 57.9326C58.4227 58.8078 57.2357 59.2995 55.998 59.2995ZM48.6282 59.2995H43.1647C42.8553 59.2995 42.5585 59.1766 42.3398 58.9578C42.121 58.739 41.998 58.4422 41.998 58.1328C42.0091 56.4576 42.6184 54.8415 43.716 53.5759C44.8137 52.3103 46.3274 51.4786 47.9842 51.2308C48.1767 51.2038 48.373 51.2254 48.555 51.2935C48.7371 51.3617 48.8993 51.4743 49.0268 51.621C49.1543 51.7677 49.2431 51.944 49.2851 52.1338C49.3272 52.3236 49.3211 52.5209 49.2675 52.7078C49.0888 53.3339 48.9981 53.9817 48.998 54.6328C48.9984 55.6709 49.232 56.6956 49.6817 57.6311C49.7663 57.8087 49.8046 58.0048 49.7931 58.2012C49.7816 58.3975 49.7206 58.5878 49.6158 58.7543C49.511 58.9207 49.3659 59.058 49.1938 59.1533C49.0218 59.2486 48.8284 59.2989 48.6317 59.2995H48.6282ZM61.8314 68.6328H50.1647C49.8553 68.6328 49.5585 68.5099 49.3398 68.2911C49.121 68.0723 48.998 67.7756 48.998 67.4662C48.998 65.6096 49.7355 63.8292 51.0483 62.5164C52.3611 61.2036 54.1415 60.4662 55.998 60.4662C57.8546 60.4662 59.635 61.2036 60.9478 62.5164C62.2605 63.8292 62.998 65.6096 62.998 67.4662C62.998 67.7756 62.8751 68.0723 62.6563 68.2911C62.4375 68.5099 62.1408 68.6328 61.8314 68.6328ZM62.998 49.9661C62.0751 49.9661 61.1728 49.6925 60.4054 49.1797C59.638 48.6669 59.0398 47.9381 58.6866 47.0853C58.3334 46.2326 58.241 45.2943 58.421 44.3891C58.6011 43.4838 59.0456 42.6523 59.6982 41.9996C60.3509 41.347 61.1824 40.9025 62.0876 40.7225C62.9929 40.5424 63.9312 40.6348 64.7839 40.988C65.6366 41.3413 66.3655 41.9394 66.8782 42.7068C67.391 43.4742 67.6647 44.3765 67.6647 45.2995C67.6647 46.5372 67.173 47.7241 66.2979 48.5993C65.4227 49.4745 64.2357 49.9661 62.998 49.9661ZM48.998 49.9661C48.0751 49.9661 47.1728 49.6925 46.4054 49.1797C45.638 48.6669 45.0398 47.9381 44.6866 47.0853C44.3334 46.2326 44.241 45.2943 44.421 44.3891C44.6011 43.4838 45.0456 42.6523 45.6982 41.9996C46.3509 41.347 47.1824 40.9025 48.0876 40.7225C48.9929 40.5424 49.9312 40.6348 50.7839 40.988C51.6366 41.3413 52.3655 41.9394 52.8782 42.7068C53.391 43.4742 53.6647 44.3765 53.6647 45.2995C53.6647 46.5372 53.173 47.7241 52.2979 48.5993C51.4227 49.4745 50.2357 49.9661 48.998 49.9661ZM68.8314 59.2995H63.3679C63.1712 59.2989 62.9778 59.2486 62.8058 59.1533C62.6337 59.058 62.4886 58.9207 62.3838 58.7543C62.279 58.5878 62.218 58.3975 62.2065 58.2012C62.195 58.0048 62.2333 57.8087 62.3179 57.6311C62.7664 56.6953 62.9988 55.6706 62.998 54.6328C62.9961 53.9815 62.9035 53.3336 62.7227 52.7078C62.6688 52.5204 62.6627 52.3225 62.7051 52.1321C62.7474 51.9418 62.8367 51.7651 62.965 51.6182C63.0932 51.4712 63.2562 51.3588 63.4391 51.2912C63.622 51.2235 63.8189 51.2027 64.0119 51.2308C65.6687 51.4786 67.1824 52.3103 68.2801 53.5759C69.3777 54.8415 69.987 56.4576 69.998 58.1328C69.998 58.4422 69.8751 58.739 69.6563 58.9578C69.4375 59.1766 69.1408 59.2995 68.8314 59.2995Z" fill="#212020"/>
</g>
<defs>
<clipPath id="clip0_2020_694">
<rect width="28" height="28" fill="white" transform="translate(41.998 40.6328)"/>
</clipPath>
</defs>
</svg>
