<svg width="110" height="110" viewBox="0 0 110 110" fill="none" xmlns="http://www.w3.org/2000/svg">
<circle r="54.5" transform="matrix(-1 0 0 1 55.498 54.6035)" fill="#F9B131" fill-opacity="0.25"/>
<path d="M52.3007 15.7566C44.111 15.9234 34.249 22.6668 27.5416 36.159C20.8342 49.6512 17.438 69.9734 31.1735 81.2068C44.909 92.4403 58.2429 97.1043 73.6187 85.5697C88.9946 74.0351 96.5608 58.1607 90.4963 41.8172C84.4318 25.4737 60.4903 15.5897 52.3007 15.7566Z" fill="#F9B131"/>
<g clip-path="url(#clip0_2020_695)">
<path d="M61.3064 55.2627C63.9956 53.0666 65.8173 49.9867 66.4467 46.5722C66.5427 45.9185 66.4967 45.2517 66.3119 44.6174C66.1271 43.983 65.8078 43.3959 65.3757 42.896C64.9369 42.385 64.393 41.9745 63.7811 41.6926C63.1693 41.4108 62.5039 41.2641 61.8302 41.2627H50.1694C49.4947 41.2631 48.8281 41.4092 48.2152 41.6911C47.6022 41.973 47.0574 42.384 46.6181 42.896C46.1849 43.3969 45.865 43.9853 45.6804 44.6212C45.4957 45.2571 45.4507 45.9254 45.5482 46.5804C46.1746 49.9923 47.9947 53.07 50.6827 55.2627C47.9946 57.4562 46.175 60.5348 45.5494 63.9474C45.452 64.6018 45.4971 65.2696 45.6815 65.9051C45.866 66.5406 46.1854 67.1287 46.6181 67.6294C47.0574 68.1414 47.6022 68.5524 48.2152 68.8343C48.8281 69.1162 49.4947 69.2623 50.1694 69.2627H61.8302C62.5048 69.2621 63.1714 69.1159 63.7843 68.834C64.3972 68.5521 64.942 68.1412 65.3816 67.6294C65.8143 67.1287 66.1341 66.5407 66.3189 65.9052C66.5037 65.2698 66.5493 64.602 66.4526 63.9474C65.8202 60.5342 63.9965 57.4565 61.3064 55.2627ZM62.7962 65.2482C62.6896 65.4064 62.5457 65.5361 62.3773 65.6258C62.2089 65.7155 62.021 65.7625 61.8302 65.7627H50.1636C49.9726 65.7628 49.7845 65.716 49.6158 65.6265C49.4471 65.5369 49.303 65.4073 49.1961 65.249C49.0892 65.0907 49.0228 64.9086 49.0027 64.7187C48.9826 64.5288 49.0095 64.3368 49.0809 64.1597C50.2939 61.5485 52.1384 59.2807 54.4476 57.561L55.2642 56.9089C55.4707 56.7447 55.7267 56.6553 55.9905 56.6553C56.2543 56.6553 56.5103 56.7447 56.7167 56.9089L57.5217 57.5517C59.8308 59.2774 61.6782 61.5464 62.9001 64.1574C62.9734 64.3338 63.0023 64.5255 62.9842 64.7157C62.9661 64.9059 62.9015 65.0888 62.7962 65.2482ZM59.9041 63.4294H52.0874C53.1356 61.8879 54.424 60.5243 55.9036 59.3904L55.9969 59.3134L56.0797 59.3775C57.5587 60.5196 58.8492 61.8869 59.9041 63.4294Z" fill="#212020"/>
</g>
<defs>
<clipPath id="clip0_2020_695">
<rect width="28" height="28" fill="white" transform="translate(41.998 41.2627)"/>
</clipPath>
</defs>
</svg>
