<svg width="110" height="110" viewBox="0 0 110 110" fill="none" xmlns="http://www.w3.org/2000/svg">
<circle r="54.5" transform="matrix(-1 0 0 1 55.498 54.6035)" fill="#F9B131" fill-opacity="0.25"/>
<path d="M32.4926 86.5842C38.6244 92.0156 50.4452 93.748 64.5245 88.3812C78.6038 83.0145 94.8815 70.3828 92.4055 52.8123C89.9294 35.2418 83.2932 22.7715 64.171 20.8209C45.0488 18.8703 28.7228 25.4053 22.096 41.5289C15.4692 57.6526 26.3608 81.1528 32.4926 86.5842Z" fill="#F9B131"/>
<g clip-path="url(#clip0_2020_693)">
<path d="M53.6647 60.9342H50.5485C50.0886 60.9357 49.6328 60.8458 49.2079 60.6697C48.7829 60.4937 48.3971 60.235 48.0729 59.9087L42.0587 53.8945C42.0249 54.2935 41.998 54.6937 41.998 55.1009C42.0032 58.6094 43.3245 61.9883 45.7007 64.5695C48.077 67.1508 51.3353 68.7466 54.8314 69.0414V62.1009C54.8314 61.7914 54.7085 61.4947 54.4897 61.2759C54.2709 61.0571 53.9741 60.9342 53.6647 60.9342Z" fill="#212020"/>
<path d="M65.84 45.1582L63.7517 47.2465C63.2038 47.7915 62.463 48.0983 61.6902 48.1005H60.0814C59.9267 48.1005 59.7783 48.162 59.6689 48.2714C59.5595 48.3808 59.498 48.5292 59.498 48.6839V49.8505C59.498 50.6241 59.1908 51.366 58.6438 51.9129C58.0968 52.4599 57.3549 52.7672 56.5814 52.7672C56.4267 52.7672 56.2783 52.8287 56.1689 52.9381C56.0595 53.0475 55.998 53.1958 55.998 53.3505V53.9339C55.998 54.2433 56.121 54.54 56.3398 54.7588C56.5585 54.9776 56.8553 55.1005 57.1647 55.1005H60.6647C61.593 55.1005 62.4832 55.4693 63.1396 56.1257C63.796 56.782 64.1647 57.6723 64.1647 58.6005V59.7229C64.1647 59.8773 64.226 60.0254 64.335 60.1347L67.3975 63.1984C69.3282 60.4983 70.232 57.198 69.9465 53.891C69.661 50.584 68.2049 47.4874 65.84 45.1582V45.1582Z" fill="#212020"/>
<path d="M61.8262 59.7225V58.6002C61.8262 58.2908 61.7033 57.994 61.4845 57.7752C61.2657 57.5565 60.9689 57.4335 60.6595 57.4335H57.1595C56.2312 57.4335 55.341 57.0648 54.6846 56.4084C54.0283 55.752 53.6595 54.8618 53.6595 53.9335V53.3502C53.6595 52.5767 53.9668 51.8348 54.5138 51.2878C55.0608 50.7408 55.8026 50.4335 56.5762 50.4335C56.7309 50.4335 56.8793 50.3721 56.9887 50.2627C57.098 50.1533 57.1595 50.0049 57.1595 49.8502V48.6835C57.1595 47.91 57.4668 47.1681 58.0138 46.6211C58.5608 46.0742 59.3026 45.7669 60.0762 45.7669H61.685C61.8392 45.766 61.987 45.7048 62.0968 45.5965L64.0347 43.6587C62.2204 42.3773 60.1268 41.547 57.9274 41.2367C55.7281 40.9263 53.4864 41.1449 51.3885 41.8742C49.2905 42.6035 47.3966 43.8226 45.8641 45.4303C44.3315 47.038 43.2044 48.9879 42.5762 51.1184L49.7162 58.2584C49.8248 58.367 49.9537 58.4531 50.0957 58.5118C50.2376 58.5704 50.3897 58.6005 50.5433 58.6002H53.6595C54.5878 58.6002 55.478 58.9689 56.1344 59.6253C56.7908 60.2817 57.1595 61.1719 57.1595 62.1002V69.0407C60.4573 68.7693 63.5514 67.3349 65.8897 64.9935L62.6802 61.784C62.1352 61.2361 61.8284 60.4953 61.8262 59.7225V59.7225Z" fill="#212020"/>
</g>
<defs>
<clipPath id="clip0_2020_693">
<rect width="28" height="28" fill="white" transform="translate(41.998 41.1006)"/>
</clipPath>
</defs>
</svg>
