<svg
   width="1198"
   height="4374"
   viewBox="0 0 1198 4374"
   fill="none"
   xmlns="http://www.w3.org/2000/svg">


  <path stroke="#777"
     id="path61"
     d="m 993.015,3696.5 c 85.005,0 135.535,-12.83 144.005,58 10.97,91.82 -61.67,151.65 -197.505,190 -136.664,38.58 -236.985,-71.39 -407.004,-71 -170.019,0.39 -267.511,164 -166.008,215.5 101.503,51.5 249.723,146.2 249.723,285 M 929.002,2666 c 0,0 -130.129,44.09 -288.274,56 -158.145,11.91 -404.455,16.61 -440.726,27 -36.271,10.39 -120.415,72.55 -25.6,119.99 118.519,59.31 246.848,92.37 410.6,138.01 174.052,48.51 405,-65 351.5,36 -53.5,101 -68.303,224.65 -236.776,235 -168.474,10.35 -462.812,-88.77 -576.433,30.65 -42.6083,53.21 -274.9,432.17 39.713,481.85 60.565,4.51 406.774,-41.6 539.496,-61.5 81.002,-12.15 290.51,-32.5 290.51,-32.5 M 1162.5,2460 c -48.5,97 -45,136.5 -233.498,206 M 726.557,1462.81 C 530.99,1451.67 295.411,1393.58 185.37,1404.32 75.3304,1415.06 -36.4988,1601.5 148.5,1608.5 c 185,7 200.002,126.5 351.502,131.5 151.5,5 217.985,-22.27 359,-16 75.282,3.35 109.463,-10.44 183.888,-16.8 93.03,-7.96 209.37,110.59 124.11,168.3 -80.52,54.51 -238.913,88.91 -423.498,83 -155.818,-4.99 -329.752,-81.9 -433.5,-83 -68.926,-0.73 -183.5,79.5 -183.5,141 0,61.5 107.583,129.61 164.5,189.5 42.254,44.46 79.926,55.26 138,75 102.084,34.7 155.339,32.56 276,7 128.773,-27.28 412.998,-23 465.998,39 53,62 9.5,94.5 -8.5,133 M 482.002,1068.12 c 63.427,-3.97 305.208,-90.837 384.185,-76.53 98.72,17.88 127.218,108.4 108.315,129.91 -110.351,157.06 95.998,332 -248,341.5 m 46,-1060.5 c 27,166 -204.698,65.191 -349.145,233.847 C 328.572,747.018 68.411,764.561 177.071,925.745 259.329,1047.77 342.983,1081.23 487.43,1068.45 M 208.002,1 c -49.052,43.7838 -69.125,136.815 141.501,223 263.282,107.731 369.999,5 423,178.5" />
</svg>
