<svg width="1198" height="4374" viewBox="0 0 1198 4374" fill="none" xmlns="http://www.w3.org/2000/svg">
<path opacity="0.2" d="M208.002 1C158.95 44.7838 138.877 137.815 349.503 224C612.785 331.731 719.502 229 772.503 402.5" stroke="white"/>
<path opacity="0.2" d="M772.502 402.5C799.502 568.5 567.804 467.691 423.357 636.347C328.572 747.018 68.411 764.561 177.071 925.745C259.329 1047.77 342.983 1081.23 487.43 1068.45" stroke="white"/>
<path opacity="0.2" d="M482.002 1068.12C545.429 1064.15 787.21 977.283 866.187 991.59C964.907 1009.47 993.405 1099.99 974.502 1121.5C864.151 1278.56 1070.5 1453.5 726.502 1463" stroke="white"/>
<path d="M726.557 1462.81C530.99 1451.67 295.411 1393.58 185.37 1404.32C75.3304 1415.06 -36.4988 1601.5 148.5 1608.5C333.5 1615.5 348.502 1735 500.002 1740C651.502 1745 717.987 1717.73 859.002 1724C934.284 1727.35 968.465 1713.56 1042.89 1707.2C1135.92 1699.24 1252.26 1817.79 1167 1875.5C1086.48 1930.01 928.087 1964.41 743.502 1958.5C587.684 1953.51 413.75 1876.6 310.002 1875.5C241.076 1874.77 126.502 1955 126.502 2016.5C126.502 2078 234.085 2146.11 291.002 2206C333.256 2250.46 370.928 2261.26 429.002 2281C531.086 2315.7 584.341 2313.56 705.002 2288C833.775 2260.72 1118 2265 1171 2327C1224 2389 1180.5 2421.5 1162.5 2460" stroke="#4D4D4D"/>
<path opacity="0.14" d="M1162.5 2460C1114 2557 1117.5 2596.5 929.002 2666" stroke="#212020"/>
<path opacity="0.15" d="M929.002 2666C929.002 2666 798.873 2710.09 640.728 2722C482.583 2733.91 236.273 2738.61 200.002 2749C163.731 2759.39 79.587 2821.55 174.402 2868.99C292.921 2928.3 421.25 2961.36 585.002 3007C759.054 3055.51 990.002 2942 936.502 3043C883.002 3144 868.199 3267.65 699.726 3278C531.252 3288.35 236.914 3189.23 123.293 3308.65C80.6847 3361.86 -151.607 3740.82 163.006 3790.5C223.571 3795.01 569.78 3748.9 702.502 3729C783.504 3716.85 993.012 3696.5 993.012 3696.5" stroke="#212020"/>
<path opacity="0.15" d="M993.015 3696.5C1078.02 3696.5 1128.55 3683.67 1137.02 3754.5C1147.99 3846.32 1075.35 3906.15 939.515 3944.5C802.851 3983.08 702.53 3873.11 532.511 3873.5C362.492 3873.89 265 4037.5 366.503 4089C468.006 4140.5 616.226 4235.2 616.226 4374" stroke="#212020"/>
</svg>