<svg width="80" height="80" viewBox="0 0 80 80" fill="none" xmlns="http://www.w3.org/2000/svg">
<circle r="40" transform="matrix(-1 0 0 1 40 40)" fill="#302E2E"/>
<path d="M37.655 11.4888C31.6442 11.6113 24.406 16.5605 19.4831 26.4631C14.5603 36.3656 12.0677 51.281 22.1488 59.5257C32.2298 67.7704 42.0162 71.1936 53.3012 62.7278C64.5863 54.262 70.1395 42.6111 65.6885 30.6159C61.2374 18.6207 43.6657 11.3664 37.655 11.4888Z" fill="#F9B131"/>
<g clip-path="url(#clip0_778_15591)">
<path d="M44.2626 40.4837C46.2363 38.8719 47.5734 36.6114 48.0353 34.1054C48.1058 33.6256 48.072 33.1362 47.9364 32.6707C47.8007 32.2051 47.5664 31.7742 47.2493 31.4073C46.9272 31.0322 46.528 30.7309 46.0789 30.5241C45.6299 30.3172 45.1415 30.2096 44.6471 30.2085H36.0887C35.5935 30.2088 35.1042 30.316 34.6544 30.5229C34.2045 30.7298 33.8046 31.0315 33.4822 31.4073C33.1643 31.7748 32.9295 32.2068 32.794 32.6735C32.6585 33.1402 32.6254 33.6307 32.697 34.1114C33.1567 36.6155 34.4925 38.8744 36.4654 40.4837C34.4925 42.0936 33.157 44.3531 32.6978 46.8578C32.6264 47.3381 32.6594 47.8283 32.7948 48.2947C32.9302 48.7611 33.1646 49.1927 33.4822 49.5602C33.8046 49.936 34.2045 50.2376 34.6544 50.4445C35.1042 50.6514 35.5935 50.7587 36.0887 50.759H44.6471C45.1422 50.7585 45.6314 50.6512 46.0813 50.4443C46.5311 50.2374 46.931 49.9358 47.2536 49.5602C47.5712 49.1928 47.8059 48.7611 47.9415 48.2948C48.0772 47.8284 48.1106 47.3383 48.0396 46.8578C47.5755 44.3527 46.237 42.0938 44.2626 40.4837ZM45.3561 47.8125C45.2778 47.9287 45.1722 48.0238 45.0486 48.0896C44.925 48.1555 44.7871 48.19 44.6471 48.1901H36.0844C35.9442 48.1902 35.8062 48.1559 35.6823 48.0902C35.5585 48.0244 35.4528 47.9293 35.3743 47.8131C35.2959 47.697 35.2471 47.5633 35.2324 47.4239C35.2176 47.2845 35.2373 47.1436 35.2898 47.0136C36.1801 45.0972 37.5338 43.4327 39.2286 42.1706L39.828 41.6919C39.9795 41.5714 40.1674 41.5058 40.361 41.5058C40.5546 41.5058 40.7425 41.5714 40.894 41.6919L41.4849 42.1637C43.1796 43.4303 44.5355 45.0956 45.4323 47.0119C45.4861 47.1414 45.5073 47.2821 45.494 47.4217C45.4807 47.5613 45.4334 47.6955 45.3561 47.8125ZM43.2334 46.4776H37.4964C38.2657 45.3463 39.2113 44.3454 40.2972 43.5132L40.3657 43.4567L40.4265 43.5038C41.512 44.342 42.4592 45.3455 43.2334 46.4776Z" fill="#212020"/>
</g>
<defs>
<clipPath id="clip0_778_15591">
<rect width="20.5505" height="20.5505" fill="white" transform="translate(30.0898 30.2085)"/>
</clipPath>
</defs>
</svg>
