<svg width="1074" height="584" viewBox="0 0 1074 584" fill="none" xmlns="http://www.w3.org/2000/svg">
<g opacity="0.15">
<path opacity="0.1" d="M8.10737 -160.781C-82.9262 -414.485 179.949 -460.826 376.99 -397.003C491.547 -365.177 555.353 -495.824 697.273 -456.304C839.194 -416.784 685.433 -246.999 902.914 -182.207C1120.4 -117.415 1044.43 251.568 859.977 269.659C675.528 287.75 730.877 344.678 556.593 497.596C382.308 650.513 56.4847 480.895 118.513 271.155C180.54 61.4144 106.653 113.857 8.10737 -160.781Z" stroke="url(#paint0_linear_889_36007)"/>
<path opacity="0.15" d="M45.5263 -146.435C-38.1506 -379.261 204.067 -425.273 386.136 -365.921C492.972 -335.769 553.54 -455.691 684.346 -419.265C818.071 -382.023 676.669 -226.667 876.576 -165.948C1076.96 -104.835 1009.56 236.796 836.149 253.675C663.756 270.476 715.656 324.411 553.764 464.707C391.871 605.003 91.5363 449.38 147.583 254.163C203.843 61.7835 136.644 106.878 45.5263 -146.435Z" stroke="url(#paint1_linear_889_36007)"/>
<path opacity="0.5" d="M82.9846 -132.086C6.66432 -344.035 228.224 -389.719 395.322 -334.837C494.437 -306.359 551.765 -415.557 671.458 -382.223C796.987 -347.259 667.945 -206.333 850.278 -149.687C1033.56 -92.2532 974.731 222.027 812.36 237.692C652.024 253.205 700.474 304.146 550.974 431.821C401.474 559.496 126.627 417.868 176.692 237.173C227.185 62.1548 166.674 99.9022 82.9846 -132.086Z" stroke="url(#paint2_linear_889_36007)"/>
<path opacity="0.7" d="M120.404 -117.739C51.4405 -308.811 252.342 -354.165 404.468 -303.754C495.862 -276.95 549.952 -375.423 658.531 -345.183C775.865 -312.498 659.182 -186.001 823.94 -133.428C990.127 -79.6726 939.865 207.256 788.533 221.709C640.252 235.932 685.253 283.88 548.145 398.933C411.037 513.986 161.679 386.354 205.763 220.183C250.488 62.5247 196.666 92.9247 120.404 -117.739Z" stroke="url(#paint3_linear_889_36007)"/>
<path opacity="0.3" d="M157.832 -103.388C96.2249 -273.583 276.469 -318.609 413.623 -272.668C497.296 -247.538 548.148 -335.287 645.612 -308.14C754.751 -277.732 650.427 -165.665 797.611 -117.165C946.7 -67.0888 905.006 192.488 764.713 205.728C628.489 218.662 670.04 263.618 545.324 366.049C420.608 468.481 196.74 354.844 234.842 203.195C273.799 62.8979 226.666 85.9504 157.832 -103.388Z" stroke="url(#paint4_linear_889_36007)"/>
<path opacity="0.35" d="M195.325 -88.1734C141.075 -237.491 300.661 -282.188 422.844 -240.718C498.795 -217.261 546.409 -294.286 632.759 -270.233C733.702 -242.103 641.738 -144.465 771.347 -100.038C903.338 -53.6408 870.214 178.585 740.959 190.612C616.791 202.256 654.893 244.219 542.569 334.029C430.246 423.839 231.866 324.198 263.986 187.072C297.176 64.1353 256.731 79.8403 195.325 -88.1734Z" stroke="url(#paint5_linear_889_36007)"/>
<path opacity="0.2" d="M232.92 -71.9344C186.026 -200.375 324.954 -244.743 432.165 -207.744C500.396 -185.961 544.771 -252.261 620.007 -231.301C712.754 -205.45 633.149 -122.24 745.184 -81.8868C860.077 -39.1686 835.522 165.706 717.307 176.52C605.194 186.875 639.847 225.845 539.916 303.033C439.984 380.221 267.093 294.576 293.232 171.973C320.654 66.3969 286.898 74.7545 232.92 -71.9344Z" stroke="url(#paint6_linear_889_36007)"/>
<path opacity="0.1" d="M270.488 -55.6395C230.951 -163.203 349.222 -207.242 441.461 -174.713C501.97 -154.604 543.107 -210.18 607.228 -192.313C691.781 -168.74 624.535 -99.9602 718.995 -63.6796C816.79 -24.6405 800.804 152.882 693.628 162.484C593.572 171.549 624.775 207.526 537.236 272.093C449.696 336.66 302.294 265.009 322.451 156.929C344.106 68.7144 317.038 69.7246 270.488 -55.6395Z" stroke="url(#paint7_linear_889_36007)"/>
<path opacity="0.5" d="M308.08 -39.2631C275.899 -125.95 373.512 -169.66 450.78 -141.601C503.568 -123.166 541.466 -168.017 594.474 -153.244C670.831 -131.949 615.944 -77.5985 692.83 -45.391C773.527 -10.0309 766.11 140.14 669.972 148.53C581.972 156.306 609.727 189.289 534.579 241.235C459.432 293.18 337.519 235.525 351.694 141.968C367.582 71.1134 347.202 64.7761 308.08 -39.2631Z" stroke="url(#paint8_linear_889_36007)"/>
<path opacity="0.55" d="M345.683 -22.7653C320.86 -88.5748 397.815 -131.956 460.11 -108.368C505.178 -91.6071 539.837 -125.733 581.73 -114.054C649.892 -95.0368 607.365 -55.1154 666.676 -26.9809C730.275 4.70014 731.427 127.52 646.329 134.697C570.385 141.183 594.69 171.174 531.934 210.498C469.179 249.821 372.755 206.162 380.949 127.127C391.069 73.6337 377.378 59.9491 345.683 -22.7653Z" stroke="url(#paint9_linear_889_36007)"/>
<path opacity="0.6" d="M383.306 -6.08511C365.839 -51.0175 422.136 -94.0701 469.46 -74.9522C506.806 -59.8653 538.227 -83.2671 569.006 -74.6808C628.972 -57.942 598.805 -32.4498 640.542 -8.38847C687.042 19.6136 696.764 115.082 622.704 121.046C558.816 126.243 579.672 153.241 529.309 179.943C478.946 206.645 408.01 176.981 410.223 112.469C414.575 76.3366 407.572 55.3045 383.306 -6.08511Z" stroke="url(#paint10_linear_889_36007)"/>
<path opacity="0.1" d="M420.964 10.8779C410.854 -13.1774 446.493 -55.9011 478.845 -41.2537C508.471 -27.8407 536.653 -40.518 556.318 -35.0251C608.089 -20.5644 590.281 -9.50143 614.443 10.4868C643.845 34.8098 662.136 102.927 599.115 107.678C547.283 111.586 564.69 135.59 526.719 149.671C488.748 163.752 443.301 148.083 439.532 98.0944C438.117 79.3222 437.803 50.9427 420.964 10.8779Z" stroke="url(#paint11_linear_889_36007)"/>
<path opacity="0.2" d="M449.408 21.3266C441.897 3.45468 468.375 -28.287 492.411 -17.4046C514.421 -7.43947 535.36 -16.858 549.97 -12.7771C588.433 -2.03353 575.202 6.18571 593.154 21.036C614.998 39.1068 628.587 89.7143 581.766 93.2442C543.257 96.1474 556.19 113.982 527.979 124.443C499.768 134.904 466.003 123.263 463.203 86.1241C462.152 72.1773 461.919 51.0927 449.408 21.3266Z" stroke="url(#paint12_linear_889_36007)"/>
<path opacity="0.2" d="M474.206 30.4344C468.959 17.9514 487.454 -4.21936 504.242 3.38167C519.616 10.3421 534.241 3.76346 544.445 6.61389C571.311 14.118 562.07 19.8589 574.608 30.2315C589.866 42.8535 599.358 78.2015 566.654 80.6671C539.757 82.6949 548.79 95.1518 529.085 102.459C509.381 109.765 485.797 101.635 483.841 75.6939C483.107 65.9524 482.944 51.2253 474.206 30.4344Z" stroke="url(#paint13_linear_889_36007)"/>
<path opacity="0.8" d="M500.05 39.9244C497.164 33.0581 507.337 20.863 516.571 25.044C525.028 28.8726 533.072 25.254 538.685 26.8219C553.462 30.9495 548.379 34.1074 555.276 39.8128C563.669 46.7555 568.89 66.1988 550.901 67.555C536.106 68.6704 541.075 75.5223 530.236 79.5414C519.398 83.5606 506.425 79.0881 505.35 64.8194C504.946 59.4611 504.856 51.3605 500.05 39.9244Z" stroke="url(#paint14_linear_889_36007)"/>
<path d="M518.36 46.6502C517.147 43.7644 521.422 38.6392 525.303 40.3963C528.857 42.0054 532.238 40.4846 534.597 41.1435C540.808 42.8783 538.672 44.2054 541.57 46.6032C545.097 49.5211 547.291 57.6926 539.731 58.2625C533.513 58.7313 535.602 61.611 531.046 63.3001C526.491 64.9893 521.039 63.1096 520.587 57.1129C520.418 54.8609 520.38 51.4564 518.36 46.6502Z" stroke="url(#paint15_linear_889_36007)"/>
</g>
<defs>
<linearGradient id="paint0_linear_889_36007" x1="618.473" y1="-134.626" x2="98.9588" y2="644.644" gradientUnits="userSpaceOnUse">
<stop stop-color="#B3B2B0"/>
<stop offset="1" stop-color="#B3B2B0" stop-opacity="0"/>
</linearGradient>
<linearGradient id="paint1_linear_889_36007" x1="350.793" y1="503.678" x2="1411.22" y2="101.931" gradientUnits="userSpaceOnUse">
<stop stop-color="#B3B2B0"/>
<stop offset="1" stop-color="#B3B2B0" stop-opacity="0"/>
</linearGradient>
<linearGradient id="paint2_linear_889_36007" x1="525.025" y1="-305.685" x2="-108.468" y2="41.5736" gradientUnits="userSpaceOnUse">
<stop stop-color="#B3B2B0"/>
<stop offset="1" stop-color="#B3B2B0" stop-opacity="0"/>
</linearGradient>
<linearGradient id="paint3_linear_889_36007" x1="-116.451" y1="120.378" x2="851.797" y2="491.641" gradientUnits="userSpaceOnUse">
<stop stop-color="#B3B2B0"/>
<stop offset="1" stop-color="#B3B2B0" stop-opacity="0"/>
</linearGradient>
<linearGradient id="paint4_linear_889_36007" x1="418.906" y1="845.797" x2="870.332" y2="-502.058" gradientUnits="userSpaceOnUse">
<stop stop-color="#B3B2B0"/>
<stop offset="1" stop-color="#B3B2B0" stop-opacity="0"/>
</linearGradient>
<linearGradient id="paint5_linear_889_36007" x1="889.311" y1="-235.995" x2="449.574" y2="537.302" gradientUnits="userSpaceOnUse">
<stop stop-color="#B3B2B0"/>
<stop offset="1" stop-color="#B3B2B0" stop-opacity="0"/>
</linearGradient>
<linearGradient id="paint6_linear_889_36007" x1="153.602" y1="-108.198" x2="978.28" y2="-267.778" gradientUnits="userSpaceOnUse">
<stop stop-color="#B3B2B0"/>
<stop offset="1" stop-color="#B3B2B0" stop-opacity="0"/>
</linearGradient>
<linearGradient id="paint7_linear_889_36007" x1="691.325" y1="91.869" x2="277.456" y2="288.521" gradientUnits="userSpaceOnUse">
<stop stop-color="#B3B2B0"/>
<stop offset="1" stop-color="#B3B2B0" stop-opacity="0"/>
</linearGradient>
<linearGradient id="paint8_linear_889_36007" x1="468.004" y1="-1.58089" x2="795.803" y2="-70.3672" gradientUnits="userSpaceOnUse">
<stop stop-color="#B3B2B0"/>
<stop offset="1" stop-color="#B3B2B0" stop-opacity="0"/>
</linearGradient>
<linearGradient id="paint9_linear_889_36007" x1="498.097" y1="234.418" x2="668.035" y2="-136.395" gradientUnits="userSpaceOnUse">
<stop stop-color="#B3B2B0"/>
<stop offset="1" stop-color="#B3B2B0" stop-opacity="0"/>
</linearGradient>
<linearGradient id="paint10_linear_889_36007" x1="572.54" y1="-101.365" x2="446.683" y2="249.182" gradientUnits="userSpaceOnUse">
<stop stop-color="#B3B2B0"/>
<stop offset="1" stop-color="#B3B2B0" stop-opacity="0"/>
</linearGradient>
<linearGradient id="paint11_linear_889_36007" x1="547.429" y1="7.90821" x2="713.98" y2="143.962" gradientUnits="userSpaceOnUse">
<stop stop-color="#B3B2B0"/>
<stop offset="1" stop-color="#B3B2B0" stop-opacity="0"/>
</linearGradient>
<linearGradient id="paint12_linear_889_36007" x1="349.211" y1="-161.553" x2="627.509" y2="134.318" gradientUnits="userSpaceOnUse">
<stop stop-color="#B3B2B0"/>
<stop offset="1" stop-color="#B3B2B0" stop-opacity="0"/>
</linearGradient>
<linearGradient id="paint13_linear_889_36007" x1="531.733" y1="11.0476" x2="460.958" y2="120.874" gradientUnits="userSpaceOnUse">
<stop stop-color="#B3B2B0"/>
<stop offset="1" stop-color="#B3B2B0" stop-opacity="0"/>
</linearGradient>
<linearGradient id="paint14_linear_889_36007" x1="502.521" y1="34.7551" x2="559.296" y2="63.2876" gradientUnits="userSpaceOnUse">
<stop stop-color="#B3B2B0"/>
<stop offset="1" stop-color="#B3B2B0" stop-opacity="0"/>
</linearGradient>
<linearGradient id="paint15_linear_889_36007" x1="551.947" y1="-136.211" x2="440.932" y2="402.131" gradientUnits="userSpaceOnUse">
<stop stop-color="#B3B2B0"/>
<stop offset="1" stop-color="#B3B2B0" stop-opacity="0"/>
</linearGradient>
</defs>
</svg>
