<svg width="1440" height="929" viewBox="0 0 1440 929" fill="none" xmlns="http://www.w3.org/2000/svg">
<g opacity="0.2">
<path opacity="0.1" d="M-522.27 -499.941C-697.066 -987.081 -192.314 -1076.06 186.029 -953.515C405.992 -892.405 528.507 -1143.26 801.011 -1067.38C1073.52 -991.496 778.276 -665.49 1195.87 -541.081C1613.46 -416.672 1467.59 291.82 1113.42 326.556C759.258 361.293 865.534 470.601 530.887 764.222C196.241 1057.84 -429.38 732.154 -310.279 329.428C-191.178 -73.2985 -333.051 27.397 -522.27 -499.941Z" stroke="url(#paint0_linear_1095_12764)"/>
<path opacity="0.15" d="M-450.414 -472.394C-611.084 -919.448 -145.998 -1007.8 203.598 -893.834C408.735 -835.938 525.032 -1066.2 776.196 -996.26C1032.96 -924.751 761.456 -626.45 1145.3 -509.862C1530.06 -392.517 1400.64 263.456 1067.68 295.864C736.661 328.125 836.314 431.686 525.462 701.072C214.61 970.457 -362.07 671.642 -254.454 296.802C-146.428 -72.5898 -275.458 13.9977 -450.414 -472.394Z" stroke="url(#paint1_linear_1095_12764)"/>
<path opacity="0.5" d="M-378.5 -444.843C-525.044 -851.811 -99.623 -939.528 221.225 -834.15C411.537 -779.468 521.616 -989.141 751.439 -925.137C992.471 -858.002 744.694 -587.407 1094.79 -478.64C1446.72 -368.359 1333.76 235.096 1021.99 265.176C714.123 294.961 807.153 392.775 520.095 637.926C233.037 883.076 -294.7 611.134 -198.57 264.179C-101.618 -71.8774 -217.806 0.60212 -378.5 -444.843Z" stroke="url(#paint2_linear_1095_12764)"/>
<path opacity="0.7" d="M-306.643 -417.293C-439.061 -784.174 -53.3061 -871.26 238.794 -774.465C414.281 -722.998 518.141 -912.078 726.624 -854.014C951.92 -791.253 727.875 -548.364 1044.23 -447.418C1363.33 -344.201 1266.82 206.736 976.244 234.487C691.527 261.796 777.934 353.864 514.67 574.779C251.407 795.695 -227.389 550.626 -142.744 231.557C-56.8664 -71.1656 -160.211 -12.794 -306.643 -417.293Z" stroke="url(#paint3_linear_1095_12764)"/>
<path opacity="0.3" d="M-234.786 -389.738C-353.078 -716.533 -6.98835 -802.988 256.365 -714.776C417.026 -666.523 514.668 -835.011 701.811 -782.886C911.37 -724.5 711.056 -509.317 993.666 -416.192C1279.94 -320.039 1199.88 178.38 930.499 203.802C668.932 228.636 748.716 314.957 509.246 511.637C269.777 708.318 -160.077 490.122 -86.9173 198.938C-12.114 -70.4494 -102.616 -26.1858 -234.786 -389.738Z" stroke="url(#paint4_linear_1095_12764)"/>
<path opacity="0.35" d="M-162.775 -360.525C-266.942 -647.233 39.4827 -733.056 274.088 -653.429C419.924 -608.389 511.348 -756.285 677.15 -710.1C870.973 -656.088 694.391 -468.611 943.256 -383.306C1196.69 -294.218 1133.09 151.683 884.908 174.777C646.49 197.135 719.651 277.708 503.976 450.154C288.301 622.6 -92.6121 431.277 -30.9373 167.979C32.7916 -68.074 -44.8678 -37.9184 -162.775 -360.525Z" stroke="url(#paint5_linear_1095_12764)"/>
<path opacity="0.2" d="M-90.6109 -329.345C-180.652 -575.966 86.1069 -661.158 291.965 -590.114C422.976 -548.289 508.181 -675.593 652.642 -635.347C830.729 -585.71 677.878 -425.938 892.998 -348.454C1113.61 -266.43 1066.46 126.953 839.47 147.718C624.201 167.6 690.739 242.427 498.858 390.638C306.978 538.849 -24.9937 374.398 25.1959 138.986C77.8504 -63.732 13.0337 -47.6843 -90.6109 -329.345Z" stroke="url(#paint6_linear_1095_12764)"/>
<path opacity="0.1" d="M-18.4604 -298.057C-94.376 -504.592 132.718 -589.153 309.828 -526.693C426.013 -488.082 505 -594.793 628.121 -560.487C790.472 -515.224 661.353 -383.158 842.727 -313.495C1030.5 -238.535 999.81 102.33 794.019 120.767C601.899 138.173 661.813 207.253 493.727 331.229C325.641 455.205 42.6113 317.627 81.3157 110.101C122.896 -59.2829 70.9218 -57.3431 -18.4604 -298.057Z" stroke="url(#paint7_linear_1095_12764)"/>
<path opacity="0.5" d="M53.7048 -266.611C-8.08516 -433.059 179.343 -516.988 327.706 -463.112C429.066 -427.715 501.835 -513.834 603.615 -485.468C750.23 -444.579 644.842 -340.219 792.472 -278.377C947.419 -210.481 933.178 77.8654 748.582 93.9739C579.612 108.904 632.903 172.237 488.611 271.978C344.319 371.719 110.231 261.015 137.45 81.3741C167.956 -54.6747 128.825 -66.8429 53.7048 -266.611Z" stroke="url(#paint8_linear_1095_12764)"/>
<path opacity="0.55" d="M125.916 -234.933C78.2515 -361.295 226.014 -444.593 345.629 -399.3C432.164 -367.117 498.715 -432.644 579.155 -410.218C710.033 -373.703 628.377 -297.049 742.261 -243.027C864.378 -182.196 866.591 53.6326 703.191 67.4125C557.37 79.8673 604.038 137.453 483.541 212.96C363.043 288.466 177.896 204.634 193.63 52.8788C213.062 -49.8353 186.773 -76.1115 125.916 -234.933Z" stroke="url(#paint9_linear_1095_12764)"/>
<path opacity="0.6" d="M198.156 -202.905C164.617 -289.181 272.715 -371.847 363.582 -335.138C435.292 -306.17 495.624 -351.104 554.723 -334.617C669.865 -302.477 611.94 -253.528 692.08 -207.328C781.366 -153.561 800.033 29.7501 657.829 41.2015C535.157 51.1805 575.203 103.02 478.499 154.291C381.796 205.562 245.591 148.604 249.84 24.7339C258.197 -44.6456 244.751 -85.0298 198.156 -202.905Z" stroke="url(#paint10_linear_1095_12764)"/>
<path opacity="0.1" d="M270.456 -170.334C251.044 -216.523 319.476 -298.558 381.595 -270.433C438.48 -244.678 492.594 -269.02 530.353 -258.473C629.758 -230.707 595.565 -209.465 641.96 -171.085C698.416 -124.382 733.536 6.41072 612.528 15.5337C513.005 23.0369 546.428 69.1292 473.519 96.1654C400.61 123.202 313.346 93.1161 306.11 -2.8679C303.392 -38.9127 302.789 -93.4048 270.456 -170.334Z" stroke="url(#paint11_linear_1095_12764)"/>
<path opacity="0.2" d="M325.089 -150.271C310.666 -184.587 361.508 -245.535 407.66 -224.639C449.922 -205.505 490.126 -223.59 518.179 -215.754C592.032 -195.125 566.628 -179.343 601.097 -150.829C643.041 -116.131 669.134 -18.9583 579.231 -12.1804C505.29 -6.60593 530.122 27.6384 475.954 47.725C421.786 67.8116 356.954 45.4595 351.577 -25.8519C349.558 -52.6314 349.11 -93.1163 325.089 -150.271Z" stroke="url(#paint12_linear_1095_12764)"/>
<path opacity="0.2" d="M372.704 -132.785C362.63 -156.754 398.141 -199.324 430.377 -184.729C459.896 -171.365 487.978 -183.996 507.572 -178.523C559.157 -164.114 541.413 -153.091 565.489 -133.175C594.785 -108.939 613.01 -41.0663 550.216 -36.3321C498.57 -32.4385 515.914 -8.51969 478.079 5.5103C440.244 19.5403 394.96 3.92791 391.205 -45.8813C389.795 -64.5861 389.482 -92.8638 372.704 -132.785Z" stroke="url(#paint13_linear_1095_12764)"/>
</g>
<defs>
<linearGradient id="paint0_linear_1095_12764" x1="649.704" y1="-449.72" x2="-347.824" y2="1046.57" gradientUnits="userSpaceOnUse">
<stop stop-color="#B3B2B0"/>
<stop offset="1" stop-color="#B3B2B0" stop-opacity="0"/>
</linearGradient>
<linearGradient id="paint1_linear_1095_12764" x1="135.734" y1="775.901" x2="2171.89" y2="4.4986" gradientUnits="userSpaceOnUse">
<stop stop-color="#B3B2B0"/>
<stop offset="1" stop-color="#B3B2B0" stop-opacity="0"/>
</linearGradient>
<linearGradient id="paint2_linear_1095_12764" x1="470.27" y1="-778.174" x2="-746.112" y2="-111.396" gradientUnits="userSpaceOnUse">
<stop stop-color="#B3B2B0"/>
<stop offset="1" stop-color="#B3B2B0" stop-opacity="0"/>
</linearGradient>
<linearGradient id="paint3_linear_1095_12764" x1="-761.434" y1="39.9202" x2="1097.72" y2="752.79" gradientUnits="userSpaceOnUse">
<stop stop-color="#B3B2B0"/>
<stop offset="1" stop-color="#B3B2B0" stop-opacity="0"/>
</linearGradient>
<linearGradient id="paint4_linear_1095_12764" x1="266.507" y1="1432.81" x2="1133.3" y2="-1155.23" gradientUnits="userSpaceOnUse">
<stop stop-color="#B3B2B0"/>
<stop offset="1" stop-color="#B3B2B0" stop-opacity="0"/>
</linearGradient>
<linearGradient id="paint5_linear_1095_12764" x1="1169.76" y1="-644.36" x2="325.414" y2="840.463" gradientUnits="userSpaceOnUse">
<stop stop-color="#B3B2B0"/>
<stop offset="1" stop-color="#B3B2B0" stop-opacity="0"/>
</linearGradient>
<linearGradient id="paint6_linear_1095_12764" x1="-242.91" y1="-398.975" x2="1340.57" y2="-705.388" gradientUnits="userSpaceOnUse">
<stop stop-color="#B3B2B0"/>
<stop offset="1" stop-color="#B3B2B0" stop-opacity="0"/>
</linearGradient>
<linearGradient id="paint7_linear_1095_12764" x1="789.597" y1="-14.8232" x2="-5.08161" y2="362.773" gradientUnits="userSpaceOnUse">
<stop stop-color="#B3B2B0"/>
<stop offset="1" stop-color="#B3B2B0" stop-opacity="0"/>
</linearGradient>
<linearGradient id="paint8_linear_1095_12764" x1="360.778" y1="-194.256" x2="990.192" y2="-326.334" gradientUnits="userSpaceOnUse">
<stop stop-color="#B3B2B0"/>
<stop offset="1" stop-color="#B3B2B0" stop-opacity="0"/>
</linearGradient>
<linearGradient id="paint9_linear_1095_12764" x1="418.569" y1="258.89" x2="744.871" y2="-453.115" gradientUnits="userSpaceOnUse">
<stop stop-color="#B3B2B0"/>
<stop offset="1" stop-color="#B3B2B0" stop-opacity="0"/>
</linearGradient>
<linearGradient id="paint10_linear_1095_12764" x1="561.508" y1="-385.854" x2="319.848" y2="287.239" gradientUnits="userSpaceOnUse">
<stop stop-color="#B3B2B0"/>
<stop offset="1" stop-color="#B3B2B0" stop-opacity="0"/>
</linearGradient>
<linearGradient id="paint11_linear_1095_12764" x1="513.285" y1="-176.036" x2="833.082" y2="85.2028" gradientUnits="userSpaceOnUse">
<stop stop-color="#B3B2B0"/>
<stop offset="1" stop-color="#B3B2B0" stop-opacity="0"/>
</linearGradient>
<linearGradient id="paint12_linear_1095_12764" x1="132.699" y1="-501.422" x2="667.064" y2="66.6871" gradientUnits="userSpaceOnUse">
<stop stop-color="#B3B2B0"/>
<stop offset="1" stop-color="#B3B2B0" stop-opacity="0"/>
</linearGradient>
<linearGradient id="paint13_linear_1095_12764" x1="483.162" y1="-170.01" x2="347.266" y2="40.8696" gradientUnits="userSpaceOnUse">
<stop stop-color="#B3B2B0"/>
<stop offset="1" stop-color="#B3B2B0" stop-opacity="0"/>
</linearGradient>
</defs>
</svg>
