<svg width="481" height="64" viewBox="0 0 481 64" fill="none" xmlns="http://www.w3.org/2000/svg">
<g opacity="0.2">
<path opacity="0.1" d="M620.804 -105.949C534.575 -268.957 346.685 -191.004 261.128 -82.8787C208.425 -22.6783 95.8531 -63.9599 30.6131 10.6667C-34.627 85.2933 155.298 111.637 57.6959 228.13C-39.9059 344.622 213.833 501.388 337.577 439.418C461.322 377.448 459.163 427.485 652.267 437.415C845.371 447.344 950.905 236.239 795.067 154.392C639.229 72.5453 714.148 70.5093 620.804 -105.949Z" stroke="url(#paint0_linear_1570_6015)"/>
<path opacity="0.15" d="M605.808 -84.2952C526.754 -233.949 351.762 -163.788 272.914 -63.6825C224.025 -7.29907 119.457 -44.4233 59.324 24.3634C-2.14968 94.6861 172.079 118.52 83.0121 226.19C-6.12752 334.243 227.005 480.528 343.277 422.199C458.879 364.222 457.166 411.423 635.569 419.765C813.971 428.108 911.662 233.873 767.645 157.04C625.089 81.7194 691.771 78.5564 605.808 -84.2952Z" stroke="url(#paint1_linear_1570_6015)"/>
<path opacity="0.2" d="M590.782 -62.6285C518.902 -198.927 356.808 -136.56 284.669 -44.4737C239.594 8.09284 143.03 -24.8739 88.0038 38.0728C30.2965 104.092 188.83 125.415 108.297 224.263C27.6199 323.877 240.147 459.681 348.946 404.992C456.406 351.009 455.139 395.374 618.84 402.129C782.54 408.884 872.388 231.52 740.193 159.7C610.918 90.9063 669.363 86.6163 590.782 -62.6285Z" stroke="url(#paint2_linear_1570_6015)"/>
<path opacity="0.25" d="M575.779 -40.9717C511.074 -163.916 361.878 -109.342 296.448 -25.2748C255.187 23.4748 166.627 -5.33431 116.708 51.7724C62.7664 113.488 205.604 132.3 133.606 222.327C61.3912 313.501 253.312 438.825 354.639 387.775C453.957 337.786 453.135 379.315 602.134 384.482C751.133 389.65 833.137 229.157 712.764 162.35C596.772 100.083 646.979 94.666 575.779 -40.9717Z" stroke="url(#paint3_linear_1570_6015)"/>
<path opacity="0.3" d="M560.777 -19.3154C503.247 -128.905 366.948 -82.1239 308.228 -6.07669C270.78 38.8562 190.224 14.205 145.412 65.4717C95.2365 122.884 222.377 139.185 158.915 220.39C95.1628 303.124 266.476 417.968 360.332 370.558C451.508 324.563 451.132 363.256 585.429 366.835C719.726 370.415 793.886 226.794 685.336 165C582.626 109.26 624.596 102.715 560.777 -19.3154Z" stroke="url(#paint4_linear_1570_6015)"/>
<path opacity="0.5" d="M546.194 2.80433C495.84 -93.4266 372.442 -54.4413 320.433 13.5844C286.801 54.6995 214.251 34.2071 174.546 79.6323C128.138 132.74 239.578 146.53 184.653 218.91C129.366 293.203 280.068 397.564 366.449 353.795C449.481 311.794 449.551 347.65 569.142 349.642C688.733 351.633 755.049 224.888 658.323 168.108C568.899 118.897 602.629 111.224 546.194 2.80433Z" stroke="url(#paint5_linear_1570_6015)"/>
<path opacity="0.4" d="M532.118 25.4708C488.943 -57.3982 378.45 -26.2101 333.155 33.7916C303.338 71.0876 238.797 54.7549 204.202 94.3369C161.563 143.138 257.298 154.416 210.913 217.97C164.093 283.818 294.177 377.692 373.081 337.566C447.966 299.561 448.482 332.579 553.363 332.983C658.244 333.386 716.711 223.521 631.814 171.757C555.68 129.076 581.168 120.276 532.118 25.4708Z" stroke="url(#paint6_linear_1570_6015)"/>
<path opacity="0.5" d="M518.087 48.1616C482.09 -21.3448 384.503 2.04552 345.921 54.0231C319.921 87.4999 263.388 75.3274 233.904 109.066C195.033 153.561 275.063 162.327 237.217 217.054C198.865 274.457 308.33 357.845 379.757 321.361C446.496 287.351 447.457 317.532 537.627 316.347C627.798 315.162 678.417 222.179 605.349 175.43C542.505 139.28 559.751 129.352 518.087 48.1616Z" stroke="url(#paint7_linear_1570_6015)"/>
<path opacity="0.5" d="M504.089 70.8967C475.272 14.7534 390.59 30.3453 358.722 74.2985C336.537 103.956 288.014 95.9443 263.639 123.839C228.536 164.029 292.86 170.282 263.555 216.181C233.671 265.141 322.516 338.041 386.467 305.199C445.059 275.185 446.466 302.529 521.926 299.755C597.385 296.981 640.156 220.88 578.917 179.147C529.364 149.528 538.366 138.472 504.089 70.8967Z" stroke="url(#paint8_linear_1570_6015)"/>
<path opacity="0.55" d="M490.136 93.7C468.498 50.921 396.722 58.7132 371.568 94.6417C353.2 120.481 312.685 116.63 293.421 138.681C262.087 174.565 310.702 178.306 289.939 215.377C268.524 255.891 336.748 318.305 393.223 289.105C443.668 263.087 445.521 287.593 506.269 283.23C567.016 278.867 601.939 219.649 552.53 182.931C516.269 159.844 517.026 147.659 490.136 93.7Z" stroke="url(#paint9_linear_1570_6015)"/>
</g>
<defs>
<linearGradient id="paint0_linear_1570_6015" x1="259.563" y1="142.489" x2="998.15" y2="390.16" gradientUnits="userSpaceOnUse">
<stop/>
<stop offset="1" stop-opacity="0"/>
</linearGradient>
<linearGradient id="paint1_linear_1570_6015" x1="782.439" y1="361.182" x2="-1.06832" y2="755.857" gradientUnits="userSpaceOnUse">
<stop/>
<stop offset="1" stop-opacity="0"/>
</linearGradient>
<linearGradient id="paint2_linear_1570_6015" x1="221.132" y1="20.2235" x2="773.854" y2="-152.252" gradientUnits="userSpaceOnUse">
<stop/>
<stop offset="1" stop-opacity="0"/>
</linearGradient>
<linearGradient id="paint3_linear_1570_6015" x1="855.258" y1="-12.1946" x2="581.691" y2="599.54" gradientUnits="userSpaceOnUse">
<stop/>
<stop offset="1" stop-opacity="0"/>
</linearGradient>
<linearGradient id="paint4_linear_1570_6015" x1="932.458" y1="560.058" x2="39.8806" y2="-129.194" gradientUnits="userSpaceOnUse">
<stop/>
<stop offset="1" stop-opacity="0"/>
</linearGradient>
<linearGradient id="paint5_linear_1570_6015" x1="35.6956" y1="195.817" x2="706.9" y2="492.341" gradientUnits="userSpaceOnUse">
<stop/>
<stop offset="1" stop-opacity="0"/>
</linearGradient>
<linearGradient id="paint6_linear_1570_6015" x1="560.641" y1="-23.4046" x2="68.4154" y2="352.226" gradientUnits="userSpaceOnUse">
<stop/>
<stop offset="1" stop-opacity="0"/>
</linearGradient>
<linearGradient id="paint7_linear_1570_6015" x1="341.551" y1="284.851" x2="679.08" y2="153.133" gradientUnits="userSpaceOnUse">
<stop/>
<stop offset="1" stop-opacity="0"/>
</linearGradient>
<linearGradient id="paint8_linear_1570_6015" x1="426.686" y1="151.581" x2="227.066" y2="298.844" gradientUnits="userSpaceOnUse">
<stop/>
<stop offset="1" stop-opacity="0"/>
</linearGradient>
<linearGradient id="paint9_linear_1570_6015" x1="540.548" y1="282.249" x2="254.017" y2="115.469" gradientUnits="userSpaceOnUse">
<stop/>
<stop offset="1" stop-opacity="0"/>
</linearGradient>
</defs>
</svg>
