<svg width="152" height="528" viewBox="0 0 152 528" fill="none" xmlns="http://www.w3.org/2000/svg">
<g opacity="0.2">
<path opacity="0.1" d="M313.73 -174.847C546.601 -89.8071 424.581 123.232 263.474 224.893C173.54 287.106 228.294 409.111 116.812 486.129C5.33038 563.148 -24.1185 354.535 -197.945 470.068C-371.771 585.602 -587.779 314.682 -491.969 173.693C-396.159 32.7039 -468.973 38.2989 -474.42 -174.886C-479.868 -388.071 -168.182 -518.447 -56.4908 -351.132C55.1999 -183.817 61.6436 -266.904 313.73 -174.847Z" stroke="url(#paint0_linear_592_58715)"/>
<path opacity="0.15" d="M281.558 -156.85C495.345 -78.9029 385.254 119.346 236.121 213.059C151.916 270.801 200.998 384.204 98.2455 455.19C-6.80122 527.758 -33.3305 336.374 -193.931 441.887C-355.091 547.504 -556.818 298.742 -466.65 166.268C-377.026 34.5574 -445.694 39.4773 -449.519 -157.52C-453.343 -354.517 -166.553 -475.122 -61.6032 -320.584C41.2155 -167.566 48.9132 -241.6 281.558 -156.85Z" stroke="url(#paint1_linear_592_58715)"/>
<path opacity="0.2" d="M249.369 -138.832C444.073 -67.9781 345.912 115.479 208.752 201.245C130.275 254.516 173.686 359.317 79.6628 424.271C-18.949 492.389 -42.5587 318.234 -189.935 413.726C-338.428 509.427 -525.872 282.823 -441.346 158.863C-357.91 36.4313 -422.432 40.6759 -424.634 -140.134C-426.835 -320.944 -164.941 -431.776 -66.732 -290.016C27.2146 -151.294 36.1665 -216.277 249.369 -138.832Z" stroke="url(#paint2_linear_592_58715)"/>
<path opacity="0.25" d="M217.203 -120.834C392.823 -57.0729 306.592 111.593 181.406 189.412C108.658 238.212 146.396 334.41 61.1028 393.332C-31.0742 457 -51.7642 300.074 -185.915 385.545C-321.742 471.33 -494.904 266.885 -416.02 151.439C-338.771 38.2856 -399.147 41.8549 -399.726 -122.767C-400.304 -287.389 -163.306 -388.451 -71.838 -259.467C13.2366 -135.042 23.4425 -190.972 217.203 -120.834Z" stroke="url(#paint3_linear_592_58715)"/>
<path opacity="0.3" d="M185.028 -102.838C341.565 -46.17 267.263 107.705 154.051 177.576C87.0308 221.906 119.098 309.502 42.5338 362.391C-43.2083 421.609 -60.9787 281.911 -181.904 357.362C-305.066 433.231 -463.945 250.944 -390.703 144.013C-319.641 40.1379 -375.871 43.0319 -374.827 -105.403C-373.782 -253.837 -161.681 -345.127 -76.953 -228.92C-0.750475 -118.792 10.7096 -165.67 185.028 -102.838Z" stroke="url(#paint4_linear_592_58715)"/>
<path opacity="0.5" d="M152.196 -85.2969C289.648 -35.7216 227.277 103.363 126.038 165.286C64.7466 205.146 91.1422 284.139 23.3072 330.995C-56.0001 385.764 -70.8509 263.295 -178.551 328.725C-289.046 394.678 -433.643 234.549 -366.044 136.132C-301.168 41.5355 -353.253 43.7542 -350.586 -88.4928C-347.918 -220.74 -160.713 -302.258 -82.7258 -198.828C-15.3953 -102.997 -2.68106 -140.823 152.196 -85.2969Z" stroke="url(#paint5_linear_592_58715)"/>
<path opacity="0.4" d="M118.587 -68.2971C236.956 -25.8146 186.514 98.4784 97.2488 152.454C41.6859 187.843 62.4099 258.234 3.30422 299.058C-69.5682 349.377 -81.4994 244.136 -175.975 299.546C-273.804 355.583 -404.118 217.612 -342.161 127.71C-283.472 42.3916 -331.412 43.935 -327.121 -72.1244C-322.83 -188.184 -160.521 -259.931 -89.2749 -169.278C-30.8164 -87.7429 -16.8481 -116.517 118.587 -68.2971Z" stroke="url(#paint6_linear_592_58715)"/>
<path opacity="0.5" d="M84.9499 -51.3374C184.235 -15.9477 145.723 93.5542 68.4317 139.582C18.5974 170.501 33.6498 232.289 -16.7267 267.081C-83.1642 312.95 -92.1758 224.938 -173.426 270.327C-258.589 316.448 -374.621 200.635 -318.306 119.248C-265.804 43.2076 -309.598 44.0758 -303.684 -55.796C-297.77 -155.668 -160.357 -217.643 -95.8518 -139.768C-46.2653 -72.5291 -31.0429 -92.2511 84.9499 -51.3374Z" stroke="url(#paint7_linear_592_58715)"/>
<path opacity="0.5" d="M51.2508 -34.4206C131.452 -6.12378 104.87 88.587 39.5522 126.667C-4.55353 153.116 4.82717 206.302 -36.8199 235.061C-96.8226 276.48 -102.915 205.697 -170.94 241.065C-243.436 277.27 -345.186 183.616 -294.513 110.743C-248.198 43.9808 -287.846 44.1738 -280.309 -39.5105C-272.773 -123.195 -160.256 -175.399 -102.491 -110.3C-61.7766 -57.3582 -45.3001 -68.0281 51.2508 -34.4206Z" stroke="url(#paint8_linear_592_58715)"/>
<path opacity="0.55" d="M17.4519 -17.5599C78.5698 3.64409 63.9176 83.5638 10.5729 113.696C-27.8042 135.675 -24.0951 180.258 -57.0129 202.985C-110.581 239.954 -113.753 186.399 -168.553 211.747C-228.384 238.036 -315.85 166.54 -270.82 102.181C-230.692 44.6978 -266.194 44.2155 -257.034 -23.2811C-247.875 -90.7778 -160.254 -133.21 -109.23 -80.8887C-77.3877 -42.2435 -59.657 -43.8613 17.4519 -17.5599Z" stroke="url(#paint9_linear_592_58715)"/>
<path opacity="0.5" d="M-16.4798 -0.795004C25.5545 13.3161 22.8321 78.4447 -18.539 100.63C-51.1875 118.138 -53.1501 154.119 -77.3386 170.813C-124.472 203.332 -124.724 167.006 -166.299 182.333C-213.463 198.706 -286.648 149.368 -247.26 93.524C-213.319 45.3189 -244.675 44.1614 -233.892 -7.14766C-223.11 -58.4568 -160.385 -91.1177 -116.102 -51.5732C-93.1315 -27.2246 -74.1467 -19.7903 -16.4798 -0.795004Z" stroke="url(#paint10_linear_592_58715)"/>
</g>
<defs>
<linearGradient id="paint0_linear_592_58715" x1="-64.1024" y1="241.059" x2="-308.899" y2="-584.84" gradientUnits="userSpaceOnUse">
<stop/>
<stop offset="1" stop-opacity="0"/>
</linearGradient>
<linearGradient id="paint1_linear_592_58715" x1="-357.559" y1="-323.89" x2="-697.995" y2="661.973" gradientUnits="userSpaceOnUse">
<stop/>
<stop offset="1" stop-opacity="0"/>
</linearGradient>
<linearGradient id="paint2_linear_592_58715" x1="111.79" y1="275.734" x2="239.373" y2="-376.361" gradientUnits="userSpaceOnUse">
<stop/>
<stop offset="1" stop-opacity="0"/>
</linearGradient>
<linearGradient id="paint3_linear_592_58715" x1="188.39" y1="-428.395" x2="-644.01" y2="37.2217" gradientUnits="userSpaceOnUse">
<stop/>
<stop offset="1" stop-opacity="0"/>
</linearGradient>
<linearGradient id="paint4_linear_592_58715" x1="-639.404" y1="-477.185" x2="47.2597" y2="635.354" gradientUnits="userSpaceOnUse">
<stop/>
<stop offset="1" stop-opacity="0"/>
</linearGradient>
<linearGradient id="paint5_linear_592_58715" x1="-151.931" y1="492.126" x2="-439.475" y2="-273.883" gradientUnits="userSpaceOnUse">
<stop/>
<stop offset="1" stop-opacity="0"/>
</linearGradient>
<linearGradient id="paint6_linear_592_58715" x1="190.91" y1="-102.995" x2="-181.852" y2="573.702" gradientUnits="userSpaceOnUse">
<stop/>
<stop offset="1" stop-opacity="0"/>
</linearGradient>
<linearGradient id="paint7_linear_592_58715" x1="-267.051" y1="159.195" x2="-162.348" y2="-249.038" gradientUnits="userSpaceOnUse">
<stop/>
<stop offset="1" stop-opacity="0"/>
</linearGradient>
<linearGradient id="paint8_linear_592_58715" x1="-69.5315" y1="56.4018" x2="-213.916" y2="328.533" gradientUnits="userSpaceOnUse">
<stop/>
<stop offset="1" stop-opacity="0"/>
</linearGradient>
<linearGradient id="paint9_linear_592_58715" x1="-254.016" y1="-61.275" x2="-92.0376" y2="277.124" gradientUnits="userSpaceOnUse">
<stop/>
<stop offset="1" stop-opacity="0"/>
</linearGradient>
<linearGradient id="paint10_linear_592_58715" x1="-60.5629" y1="189.02" x2="-234.174" y2="-106.298" gradientUnits="userSpaceOnUse">
<stop/>
<stop offset="1" stop-opacity="0"/>
</linearGradient>
</defs>
</svg>
