<svg width="1410" height="659" viewBox="0 0 1410 659" fill="none" xmlns="http://www.w3.org/2000/svg">
<g opacity="0.3">
<path opacity="0.1" d="M-635.27 -769.941C-810.066 -1257.08 -305.314 -1346.06 73.0292 -1223.52C292.992 -1162.41 415.507 -1413.26 688.011 -1337.38C960.516 -1261.5 665.276 -935.49 1082.87 -811.081C1500.46 -686.672 1354.59 21.8197 1000.42 56.5563C646.258 91.2928 752.534 200.601 417.887 494.222C83.2408 787.842 -542.38 462.154 -423.279 59.4277C-304.178 -343.298 -446.051 -242.603 -635.27 -769.941Z" stroke="url(#paint0_linear_1039_82724)"/>
<path opacity="0.15" d="M-563.414 -742.394C-724.084 -1189.45 -258.998 -1277.8 90.5977 -1163.83C295.735 -1105.94 412.032 -1336.2 663.196 -1266.26C919.964 -1194.75 648.456 -896.45 1032.3 -779.862C1417.06 -662.517 1287.64 -6.54398 954.676 25.8641C623.661 58.125 723.314 161.686 412.462 431.072C101.61 700.457 -475.07 401.642 -367.454 26.8017C-259.428 -342.59 -388.458 -256.002 -563.414 -742.394Z" stroke="url(#paint1_linear_1039_82724)"/>
<path opacity="0.5" d="M-491.504 -714.843C-638.048 -1121.81 -212.627 -1209.53 108.221 -1104.15C298.533 -1049.47 408.612 -1259.14 638.435 -1195.14C879.467 -1128 631.69 -857.407 981.791 -748.64C1333.72 -638.359 1220.76 -34.9038 908.985 -4.82423C601.119 24.9609 694.149 122.775 407.091 367.926C120.033 613.076 -407.704 341.134 -311.574 -5.8205C-214.622 -341.877 -330.809 -269.398 -491.504 -714.843Z" stroke="url(#paint2_linear_1039_82724)"/>
<path opacity="0.7" d="M-419.647 -687.293C-552.065 -1054.17 -166.31 -1141.26 125.79 -1044.47C301.277 -992.998 405.137 -1182.08 613.621 -1124.01C838.916 -1061.25 614.871 -818.364 931.226 -717.418C1250.33 -614.201 1153.82 -63.2642 863.24 -35.5132C578.523 -8.20381 664.93 83.8639 401.666 304.779C138.403 525.695 -340.393 280.626 -255.748 -38.4435C-169.87 -341.166 -273.215 -282.794 -419.647 -687.293Z" stroke="url(#paint3_linear_1039_82724)"/>
<path opacity="0.3" d="M-347.782 -659.738C-466.074 -986.533 -119.984 -1072.99 143.369 -984.776C304.03 -936.523 401.672 -1105.01 588.814 -1052.89C798.374 -994.5 598.06 -779.317 880.67 -686.192C1166.94 -590.039 1086.88 -91.6204 817.503 -66.1978C555.936 -41.3642 635.72 44.9566 396.25 241.637C156.781 438.318 -273.073 220.122 -199.913 -71.062C-125.11 -340.449 -215.612 -296.186 -347.782 -659.738Z" stroke="url(#paint4_linear_1039_82724)"/>
<path opacity="0.35" d="M-275.775 -630.525C-379.942 -917.233 -73.5173 -1003.06 161.088 -923.429C306.924 -878.389 398.348 -1026.29 564.15 -980.1C757.973 -926.088 581.391 -738.611 830.256 -653.306C1083.69 -564.218 1020.09 -118.317 771.908 -95.2232C533.49 -72.8654 606.651 7.7085 390.976 180.154C175.301 352.6 -205.612 161.277 -143.937 -102.021C-80.2084 -338.074 -157.868 -307.918 -275.775 -630.525Z" stroke="url(#paint5_linear_1039_82724)"/>
<path opacity="0.2" d="M-203.611 -599.345C-293.652 -845.966 -26.8931 -931.158 178.965 -860.114C309.976 -818.289 395.181 -945.593 539.642 -905.347C717.729 -855.71 564.878 -695.938 779.998 -618.454C1000.61 -536.43 953.458 -143.047 726.47 -122.282C511.201 -102.4 577.739 -27.5729 385.858 120.638C193.978 268.849 -137.994 104.398 -87.8041 -131.014C-35.1496 -333.732 -99.9663 -317.684 -203.611 -599.345Z" stroke="url(#paint6_linear_1039_82724)"/>
<path opacity="0.1" d="M-131.46 -568.057C-207.376 -774.592 19.7176 -859.153 196.828 -796.693C313.013 -758.082 392 -864.793 515.121 -830.487C677.472 -785.224 548.353 -653.158 729.727 -583.495C917.505 -508.535 886.81 -167.67 681.019 -149.233C488.899 -131.827 548.813 -62.7472 380.727 61.2287C212.641 185.205 -70.3887 47.6271 -31.6843 -159.899C9.89578 -329.283 -42.0782 -327.343 -131.46 -568.057Z" stroke="url(#paint7_linear_1039_82724)"/>
<path opacity="0.5" d="M-59.2952 -536.611C-121.085 -703.059 66.3431 -786.988 214.706 -733.112C316.066 -697.715 388.835 -783.834 490.615 -755.468C637.23 -714.579 531.842 -610.219 679.472 -548.377C834.419 -480.481 820.178 -192.135 635.582 -176.026C466.612 -161.096 519.903 -97.7625 375.611 1.97847C231.319 101.719 -2.76911 -8.98498 24.4501 -188.626C54.9558 -324.675 15.8246 -336.843 -59.2952 -536.611Z" stroke="url(#paint8_linear_1039_82724)"/>
<path opacity="0.55" d="M12.9158 -504.933C-34.7485 -631.295 113.014 -714.593 232.629 -669.3C319.164 -637.117 385.715 -702.644 466.155 -680.218C597.033 -643.703 515.377 -567.049 629.261 -513.027C751.378 -452.196 753.591 -216.367 590.191 -202.587C444.37 -190.133 491.038 -132.547 370.541 -57.0404C250.043 18.4657 64.8964 -65.3659 80.6304 -217.121C100.062 -319.835 73.7732 -346.111 12.9158 -504.933Z" stroke="url(#paint9_linear_1039_82724)"/>
</g>
<defs>
<linearGradient id="paint0_linear_1039_82724" x1="536.704" y1="-719.72" x2="-460.824" y2="776.572" gradientUnits="userSpaceOnUse">
<stop stop-color="#B3B2B0"/>
<stop offset="1" stop-color="#B3B2B0" stop-opacity="0"/>
</linearGradient>
<linearGradient id="paint1_linear_1039_82724" x1="22.7341" y1="505.901" x2="2058.89" y2="-265.501" gradientUnits="userSpaceOnUse">
<stop stop-color="#B3B2B0"/>
<stop offset="1" stop-color="#B3B2B0" stop-opacity="0"/>
</linearGradient>
<linearGradient id="paint2_linear_1039_82724" x1="357.266" y1="-1048.17" x2="-859.116" y2="-381.396" gradientUnits="userSpaceOnUse">
<stop stop-color="#B3B2B0"/>
<stop offset="1" stop-color="#B3B2B0" stop-opacity="0"/>
</linearGradient>
<linearGradient id="paint3_linear_1039_82724" x1="-874.438" y1="-230.08" x2="984.714" y2="482.79" gradientUnits="userSpaceOnUse">
<stop stop-color="#B3B2B0"/>
<stop offset="1" stop-color="#B3B2B0" stop-opacity="0"/>
</linearGradient>
<linearGradient id="paint4_linear_1039_82724" x1="153.511" y1="1162.81" x2="1020.3" y2="-1425.23" gradientUnits="userSpaceOnUse">
<stop stop-color="#B3B2B0"/>
<stop offset="1" stop-color="#B3B2B0" stop-opacity="0"/>
</linearGradient>
<linearGradient id="paint5_linear_1039_82724" x1="1056.76" y1="-914.36" x2="212.414" y2="570.463" gradientUnits="userSpaceOnUse">
<stop stop-color="#B3B2B0"/>
<stop offset="1" stop-color="#B3B2B0" stop-opacity="0"/>
</linearGradient>
<linearGradient id="paint6_linear_1039_82724" x1="-355.91" y1="-668.975" x2="1227.57" y2="-975.388" gradientUnits="userSpaceOnUse">
<stop stop-color="#B3B2B0"/>
<stop offset="1" stop-color="#B3B2B0" stop-opacity="0"/>
</linearGradient>
<linearGradient id="paint7_linear_1039_82724" x1="676.597" y1="-284.823" x2="-118.082" y2="92.7729" gradientUnits="userSpaceOnUse">
<stop stop-color="#B3B2B0"/>
<stop offset="1" stop-color="#B3B2B0" stop-opacity="0"/>
</linearGradient>
<linearGradient id="paint8_linear_1039_82724" x1="247.778" y1="-464.256" x2="877.192" y2="-596.334" gradientUnits="userSpaceOnUse">
<stop stop-color="#B3B2B0"/>
<stop offset="1" stop-color="#B3B2B0" stop-opacity="0"/>
</linearGradient>
<linearGradient id="paint9_linear_1039_82724" x1="305.569" y1="-11.1098" x2="631.871" y2="-723.115" gradientUnits="userSpaceOnUse">
<stop stop-color="#B3B2B0"/>
<stop offset="1" stop-color="#B3B2B0" stop-opacity="0"/>
</linearGradient>
</defs>
</svg>
