<svg width="16" height="12" viewBox="0 0 16 12" fill="none" xmlns="http://www.w3.org/2000/svg">
<path d="M14.362 2.98723C14.3713 3.11708 14.3713 3.24754 14.3713 3.37861C14.3713 7.38285 11.0687 12 5.03133 12V11.9975C3.248 12 1.50133 11.5286 0 10.6394C0.259333 10.6683 0.52 10.6825 0.781333 10.6831C2.26 10.6843 3.696 10.2265 4.858 9.38343C3.45333 9.35881 2.22133 8.51329 1.79133 7.27885C2.28333 7.36623 2.79 7.34839 3.27333 7.22716C1.74133 6.94163 0.64 5.69919 0.64 4.25675C0.64 4.24383 0.64 4.2309 0.64 4.2186C1.09667 4.45367 1.60733 4.58351 2.13 4.59767C0.687333 3.70845 0.242 1.93741 1.11333 0.552815C2.78 2.44571 5.23933 3.59645 7.87867 3.71891C7.614 2.66662 7.976 1.56387 8.828 0.82358C10.15 -0.324092 12.2293 -0.265016 13.4727 0.95527C14.208 0.821734 14.9127 0.572507 15.5573 0.219898C15.312 0.921424 14.7993 1.51711 14.114 1.89618C14.7653 1.82418 15.4007 1.66357 16 1.41865C15.5593 2.02725 15.0047 2.55832 14.362 2.98723Z" fill="white"/>
</svg>
