<svg width="46" height="44" viewBox="0 0 46 44" fill="none" xmlns="http://www.w3.org/2000/svg">
<path d="M3.12476 37.4602C6.00666 41.7913 13.0052 44.7911 22.5679 43.8151C32.1306 42.8391 44.2476 37.7759 45.6231 26.6127C46.9986 15.4495 44.9681 6.72625 33.506 2.39515C22.0439 -1.93595 10.9038 -0.613303 4.15755 8.17089C-2.58872 16.9551 0.242871 33.1291 3.12476 37.4602Z" fill="#212020"/>
<path d="M32 30.4824C32 27.6804 32 26.2794 31.455 25.2092C30.9757 24.2679 30.2108 23.5025 29.27 23.0228C28.2004 22.4775 26.8003 22.4775 24 22.4775H22C19.1997 22.4775 17.7996 22.4775 16.73 23.0228C15.7892 23.5025 15.0243 24.2679 14.545 25.2092C14 26.2794 14 27.6804 14 30.4824V34.7133C14 36.7976 15.6886 38.4872 17.7717 38.4872H18.3734C19.1525 38.4872 19.6852 39.2746 19.3959 39.9984C18.9874 41.0202 20.1635 41.944 21.0585 41.3043L23.6692 39.4384C23.6958 39.4193 23.7092 39.4098 23.7222 39.4006C24.5562 38.8125 25.5501 38.4939 26.5703 38.4873C26.5863 38.4872 26.6077 38.4872 26.6504 38.4872C26.9623 38.4872 27.1183 38.4872 27.2364 38.4816C29.812 38.3596 31.8725 36.2979 31.9944 33.7208C32 33.6026 32 33.4626 32 33.1828V30.4824Z" fill="white"/>
<path d="M18.4692 29.9634C18.1766 30.2566 18.177 30.7314 18.4701 31.0241C18.7633 31.3167 19.2381 31.3163 19.5308 31.0232L18.4692 29.9634ZM27.5308 31.0232C27.8234 30.73 27.823 30.2552 27.5299 29.9625C27.2367 29.6699 26.7619 29.6703 26.4692 29.9634L27.5308 31.0232ZM23 30.4933L22.2884 30.7301V30.7301L23 30.4933ZM19.5308 31.0232L20.2947 30.258L19.2331 29.1982L18.4692 29.9634L19.5308 31.0232ZM26.7669 31.7884L27.5308 31.0232L26.4692 29.9634L25.7053 30.7287L26.7669 31.7884ZM22.2884 30.7301C22.9236 32.6392 25.3446 33.2131 26.7669 31.7884L25.7053 30.7287C25.0729 31.3621 23.9952 31.1087 23.7116 30.2565L22.2884 30.7301ZM20.2947 30.258C20.9271 29.6245 22.0048 29.8779 22.2884 30.7301L23.7116 30.2565C23.0764 28.3474 20.6554 27.7735 19.2331 29.1982L20.2947 30.258Z" fill="#212020"/>
</svg>
