<svg width="1440" height="800" viewBox="0 0 1440 800" fill="none" xmlns="http://www.w3.org/2000/svg">
<g clip-path="url(#clip0_571_27376)">
<rect x="-1" width="1441" height="800" rx="16" fill="white"/>
<g opacity="0.2">
<path opacity="0.1" d="M-1095.38 -529.271C-1278.63 -1039.97 -749.465 -1133.26 -352.821 -1004.78C-122.218 -940.719 6.22272 -1203.71 291.908 -1124.16C577.594 -1044.6 268.073 -702.827 705.863 -572.401C1143.65 -441.974 990.726 300.788 619.431 337.205C248.135 373.621 359.552 488.217 8.71834 796.04C-342.115 1103.86 -997.998 762.421 -873.136 340.215C-748.274 -81.9914 -897.009 23.5748 -1095.38 -529.271Z" stroke="url(#paint0_linear_571_27376)"/>
<path opacity="0.15" d="M-1020.05 -500.392C-1188.49 -969.07 -700.911 -1061.69 -334.405 -942.218C-119.345 -881.521 2.57741 -1122.92 265.89 -1049.6C535.079 -974.629 250.437 -661.9 652.849 -539.672C1056.22 -416.652 920.544 271.052 571.47 305.027C224.443 338.849 328.917 447.419 3.02818 729.835C-322.86 1012.25 -927.434 698.982 -814.613 306.01C-701.361 -81.249 -836.632 9.52682 -1020.05 -500.392Z" stroke="url(#paint1_linear_571_27376)"/>
<path opacity="0.2" d="M-944.659 -471.51C-1098.29 -898.163 -652.293 -990.123 -315.926 -879.647C-116.408 -822.32 -1.00523 -1042.14 239.935 -975.035C492.626 -904.653 232.864 -620.969 599.899 -506.941C968.852 -391.326 850.424 241.319 523.571 272.853C200.814 304.079 298.344 406.625 -2.59919 663.634C-303.542 920.642 -856.807 635.546 -756.026 271.809C-654.385 -80.5032 -776.192 -4.51784 -944.659 -471.51Z" stroke="url(#paint2_linear_571_27376)"/>
<path opacity="0.25" d="M-869.321 -442.625C-1008.14 -827.252 -603.73 -918.551 -297.501 -817.074C-113.526 -763.116 -4.64187 -961.343 213.926 -900.47C450.119 -834.674 215.236 -580.036 546.894 -474.207C881.428 -365.998 780.25 211.589 475.619 240.682C177.131 269.312 267.717 365.833 -8.28079 597.435C-284.279 829.036 -786.234 572.113 -697.495 237.61C-607.463 -79.7551 -715.807 -18.56 -869.321 -442.625Z" stroke="url(#paint3_linear_571_27376)"/>
<path opacity="0.3" d="M-793.99 -413.738C-918.005 -756.34 -555.174 -846.977 -279.083 -754.498C-110.65 -703.911 -8.28527 -880.549 187.91 -825.903C407.606 -764.693 197.602 -539.101 493.883 -441.471C793.999 -340.668 710.07 181.86 427.66 208.512C153.441 234.547 237.084 325.043 -13.969 531.238C-265.022 737.432 -715.668 508.681 -638.97 203.413C-560.548 -79.0049 -655.428 -32.6002 -793.99 -413.738Z" stroke="url(#paint4_linear_571_27376)"/>
<path opacity="0.5" d="M-718.504 -383.11C-827.709 -683.687 -506.463 -773.661 -260.51 -690.182C-107.619 -642.964 -11.7733 -798.014 162.049 -749.595C365.247 -692.97 180.123 -496.425 441.026 -406.994C706.724 -313.597 640.045 153.873 379.856 178.084C129.906 201.523 206.605 285.995 -19.502 466.782C-245.609 647.569 -644.947 446.991 -580.289 170.957C-513.478 -76.5136 -594.893 -44.8993 -718.504 -383.11Z" stroke="url(#paint5_linear_571_27376)"/>
<path opacity="0.4" d="M-642.837 -350.423C-737.234 -608.973 -457.571 -698.286 -241.756 -623.806C-104.408 -579.958 -15.0816 -713.419 136.368 -671.227C323.069 -619.188 162.824 -451.688 388.35 -370.457C619.629 -284.465 570.2 127.946 332.232 149.716C106.551 170.56 176.307 249.006 -24.855 404.386C-226.017 559.766 -574.046 387.361 -521.429 140.562C-466.227 -71.9621 -534.179 -55.1382 -642.837 -350.423Z" stroke="url(#paint6_linear_571_27376)"/>
<path opacity="0.5" d="M-567.199 -317.621C-646.787 -534.146 -408.709 -622.797 -223.032 -557.316C-101.226 -516.837 -18.4184 -628.71 110.658 -592.745C280.862 -545.292 145.497 -406.838 335.645 -333.805C532.505 -255.22 500.326 102.133 284.58 121.462C83.1672 139.71 145.98 212.131 -30.2366 342.104C-206.453 472.077 -503.173 327.845 -462.597 110.28C-419.006 -67.2968 -473.494 -65.2632 -567.199 -317.621Z" stroke="url(#paint7_linear_571_27376)"/>
<path opacity="0.5" d="M-491.538 -284.653C-556.317 -459.153 -359.823 -547.142 -204.284 -490.66C-98.0204 -453.55 -21.7318 -543.835 84.972 -514.097C238.678 -471.23 128.193 -361.822 282.963 -296.989C445.406 -225.809 430.476 76.4854 236.951 93.373C59.807 109.026 115.676 175.422 -35.595 279.988C-186.866 384.553 -432.278 268.494 -403.742 80.1638C-371.761 -62.4658 -412.785 -75.2226 -491.538 -284.653Z" stroke="url(#paint8_linear_571_27376)"/>
<path opacity="0.55" d="M-415.838 -251.444C-465.808 -383.918 -310.897 -471.245 -185.497 -423.762C-94.7758 -390.022 -25.0063 -458.718 59.3247 -435.207C196.534 -396.926 110.927 -316.565 230.321 -259.93C358.344 -196.156 360.664 51.0796 189.361 65.5262C36.4858 78.5833 85.4119 138.955 -40.9143 218.113C-167.24 297.272 -361.343 209.385 -344.848 50.2895C-324.477 -57.393 -352.037 -84.9402 -415.838 -251.444Z" stroke="url(#paint9_linear_571_27376)"/>
<path opacity="0.5" d="M-340.107 -217.869C-375.268 -308.318 -261.941 -394.982 -166.679 -356.498C-91.5005 -326.128 -28.25 -373.236 33.7083 -355.952C154.42 -322.257 93.6929 -270.941 177.709 -222.506C271.314 -166.138 290.883 26.0399 141.801 38.0453C13.1953 48.5069 55.1781 102.854 -46.2029 156.605C-147.584 210.356 -290.377 150.642 -285.923 20.781C-277.162 -51.9543 -291.258 -94.2919 -340.107 -217.869Z" stroke="url(#paint10_linear_571_27376)"/>
<path opacity="0.65" d="M-264.312 -183.721C-284.664 -232.144 -212.922 -318.147 -147.797 -288.662C-88.1611 -261.661 -31.4297 -287.181 8.15589 -276.124C112.37 -247.014 76.5225 -224.745 125.161 -184.508C184.348 -135.546 221.167 1.57292 94.306 11.1371C-10.0311 19.0033 25.0082 67.3251 -51.4274 95.6691C-127.863 124.013 -219.348 92.4723 -226.934 -8.15452C-229.783 -45.9428 -230.415 -103.071 -264.312 -183.721Z" stroke="url(#paint11_linear_571_27376)"/>
<path opacity="0.7" d="M-207.041 -162.688C-222.162 -198.664 -168.861 -262.56 -120.477 -240.653C-76.1702 -220.594 -34.0215 -239.553 -4.61142 -231.338C72.8143 -209.711 46.1816 -193.166 82.3177 -163.273C126.291 -126.896 153.645 -25.0234 59.3938 -17.9177C-18.1234 -12.0735 7.90906 23.8272 -48.8789 44.8854C-105.667 65.9436 -173.635 42.5103 -179.272 -32.2504C-181.388 -60.3252 -181.858 -102.769 -207.041 -162.688Z" stroke="url(#paint12_linear_571_27376)"/>
<path opacity="0.75" d="M-157.117 -144.356C-167.678 -169.484 -130.449 -214.114 -96.6537 -198.813C-65.7068 -184.802 -36.267 -198.044 -15.7248 -192.306C38.3552 -177.201 19.7529 -165.644 44.993 -144.764C75.707 -119.356 94.8134 -48.2008 28.9813 -43.2376C-25.1625 -39.1556 -6.97953 -14.0799 -46.6444 0.628768C-86.3094 15.3374 -133.784 -1.03019 -137.721 -53.2487C-139.199 -72.8582 -139.527 -102.504 -157.117 -144.356Z" stroke="url(#paint13_linear_571_27376)"/>
</g>
</g>
<defs>
<linearGradient id="paint0_linear_571_27376" x1="133.282" y1="-476.621" x2="-912.497" y2="1092.05" gradientUnits="userSpaceOnUse">
<stop/>
<stop offset="1" stop-opacity="0"/>
</linearGradient>
<linearGradient id="paint1_linear_571_27376" x1="-405.551" y1="808.284" x2="1729.09" y2="-0.431717" gradientUnits="userSpaceOnUse">
<stop/>
<stop offset="1" stop-opacity="0"/>
</linearGradient>
<linearGradient id="paint2_linear_571_27376" x1="-54.834" y1="-820.964" x2="-1330.05" y2="-121.933" gradientUnits="userSpaceOnUse">
<stop/>
<stop offset="1" stop-opacity="0"/>
</linearGradient>
<linearGradient id="paint3_linear_571_27376" x1="-1346.11" y1="36.704" x2="602.969" y2="784.055" gradientUnits="userSpaceOnUse">
<stop/>
<stop offset="1" stop-opacity="0"/>
</linearGradient>
<linearGradient id="paint4_linear_571_27376" x1="-268.449" y1="1496.97" x2="640.27" y2="-1216.26" gradientUnits="userSpaceOnUse">
<stop/>
<stop offset="1" stop-opacity="0"/>
</linearGradient>
<linearGradient id="paint5_linear_571_27376" x1="678.488" y1="-680.675" x2="-206.701" y2="875.97" gradientUnits="userSpaceOnUse">
<stop/>
<stop offset="1" stop-opacity="0"/>
</linearGradient>
<linearGradient id="paint6_linear_571_27376" x1="-802.503" y1="-423.421" x2="857.57" y2="-744.656" gradientUnits="userSpaceOnUse">
<stop/>
<stop offset="1" stop-opacity="0"/>
</linearGradient>
<linearGradient id="paint7_linear_571_27376" x1="279.945" y1="-20.6866" x2="-553.173" y2="375.174" gradientUnits="userSpaceOnUse">
<stop/>
<stop offset="1" stop-opacity="0"/>
</linearGradient>
<linearGradient id="paint8_linear_571_27376" x1="-169.612" y1="-208.799" x2="490.247" y2="-347.266" gradientUnits="userSpaceOnUse">
<stop/>
<stop offset="1" stop-opacity="0"/>
</linearGradient>
<linearGradient id="paint9_linear_571_27376" x1="-109.029" y1="266.266" x2="233.056" y2="-480.18" gradientUnits="userSpaceOnUse">
<stop/>
<stop offset="1" stop-opacity="0"/>
</linearGradient>
<linearGradient id="paint10_linear_571_27376" x1="40.8205" y1="-409.667" x2="-212.528" y2="295.984" gradientUnits="userSpaceOnUse">
<stop/>
<stop offset="1" stop-opacity="0"/>
</linearGradient>
<linearGradient id="paint11_linear_571_27376" x1="-9.73701" y1="-189.699" x2="325.528" y2="84.1762" gradientUnits="userSpaceOnUse">
<stop/>
<stop offset="1" stop-opacity="0"/>
</linearGradient>
<linearGradient id="paint12_linear_571_27376" x1="-408.737" y1="-530.824" x2="151.475" y2="64.7646" gradientUnits="userSpaceOnUse">
<stop/>
<stop offset="1" stop-opacity="0"/>
</linearGradient>
<linearGradient id="paint13_linear_571_27376" x1="-41.3159" y1="-183.381" x2="-183.785" y2="37.6984" gradientUnits="userSpaceOnUse">
<stop/>
<stop offset="1" stop-opacity="0"/>
</linearGradient>
<clipPath id="clip0_571_27376">
<rect x="-1" width="1441" height="800" rx="16" fill="white"/>
</clipPath>
</defs>
</svg>
